<svg width="160" height="320" xmlns="http://www.w3.org/2000/svg">
	<!-- Generator: Sketch 64 (93537) - https://sketch.com -->
	<title>
		Group 261
	</title>
	<desc>
		Created with Sketch.
	</desc>
	<defs>
		<polygon id="path-1" points="0 0.0109105184 329.765526 0.0109105184 329.765526 287.930563 0 287.930563">
		</polygon>
	</defs>
	<g id="svg_40" class="body-parts">
		<path id="svg_41" d="m73.289,44.931l-0.032,-0.119l-0.002,-0.029a1.65,1.65 0 0 1 -0.137,0.248a1.189,1.189 0 0 1 -0.275,0.291a0.867,0.867 0 0 1 -0.449,0.159a0.822,0.822 0 0 1 -0.157,-0.006c-0.345,-0.047 -0.623,-0.293 -0.834,-0.554a4.243,4.243 0 0 1 -0.405,-0.621a8.046,8.046 0 0 1 -0.432,-0.945l-0.059,-0.156l-0.111,0.887c0.001,0.06 0.005,0.119 0.014,0.178c0.011,0.065 0.028,0.129 0.037,0.195l0.001,0.015c0.001,0.071 0.001,0.071 -0.008,0.142l-0.001,0.004c-0.008,0.028 -0.014,0.056 -0.024,0.084a0.507,0.507 0 0 1 -0.152,0.208c-0.022,0.018 -0.048,0.033 -0.072,0.049l-0.001,0.001c-0.024,0.012 -0.049,0.025 -0.073,0.034a0.516,0.516 0 0 1 -0.318,0.011c-0.069,-0.02 -0.083,-0.033 -0.145,-0.069l-0.002,-0.002c-0.06,-0.049 -0.06,-0.048 -0.112,-0.106a0.535,0.535 0 0 1 -0.087,-0.15c-0.045,-0.098 -0.082,-0.202 -0.12,-0.303a38.817,38.817 0 0 1 -1.47,-5.405a3.057,3.057 0 0 0 -0.018,0.235l-0.001,0.062c0.01,0.057 0.021,0.115 0.028,0.173l0.002,0.026l-0.003,0.093c-0.02,0.089 -0.02,0.089 -0.054,0.174l-0.001,0.001c-0.042,0.065 -0.049,0.085 -0.106,0.138a0.509,0.509 0 0 1 -0.711,-0.026c-0.021,-0.021 -0.037,-0.046 -0.055,-0.069l-0.001,-0.002c-0.031,-0.056 -0.032,-0.055 -0.056,-0.114a1.001,1.001 0 0 1 -0.051,-0.287l-0.137,-0.785l1.456,-0.42a9.218,9.218 0 0 0 2.439,-1.431a10.022,10.022 0 0 0 1.734,-1.818c0.489,-0.659 0.899,-1.376 1.225,-2.129c1.322,-3.052 1.231,-6.674 -0.263,-9.648a10.738,10.738 0 0 0 -0.962,-1.565a10.16,10.16 0 0 0 -1.551,-1.666a9.297,9.297 0 0 0 -2.295,-1.446a8.73,8.73 0 0 0 -2.284,-0.653l-0.471,-0.036l0.187,-1.768c0.095,-0.564 0.206,-1.125 0.332,-1.683c0.348,-1.53 0.822,-3.041 1.505,-4.456c0.501,-1.036 1.117,-2.022 1.881,-2.885c0.258,-0.291 0.533,-0.564 0.821,-0.824l0.076,-0.067c0.082,-0.099 0.167,-0.195 0.252,-0.292a23.917,23.917 0 0 1 1.801,-1.808a22.98,22.98 0 0 1 1.112,-0.934a16.805,16.805 0 0 1 3.137,-1.988c0.968,-0.463 1.996,-0.815 3.057,-0.977c0.395,-0.059 0.792,-0.09 1.191,-0.097c0.152,0 0.151,0 0.302,0.003a8.32,8.32 0 0 1 1.22,0.132c0.223,0.042 0.443,0.098 0.663,0.156c0.248,0.065 0.495,0.133 0.741,0.204c0.746,0.215 1.486,0.455 2.201,0.756c0.266,0.112 0.529,0.232 0.784,0.368c0.164,0.088 0.326,0.181 0.481,0.285c0.095,0.065 0.192,0.133 0.281,0.208a5.857,5.857 0 0 1 1.057,-0.299a5.406,5.406 0 0 1 1.82,-0.008c1.556,0.254 2.948,1.124 4.111,2.156c0.224,0.199 0.441,0.405 0.652,0.618c0.217,0.219 0.428,0.444 0.633,0.676c0.295,0.334 0.579,0.68 0.851,1.035c0.323,0.421 0.63,0.855 0.922,1.298c0.379,0.573 0.734,1.162 1.068,1.763a32.033,32.033 0 0 1 3.138,8.14l0.045,0.24l-0.19,0l-1.092,0.084a8.73,8.73 0 0 0 -2.284,0.653a9.316,9.316 0 0 0 -2.295,1.446a10.16,10.16 0 0 0 -1.551,1.666a10.738,10.738 0 0 0 -0.962,1.565c-1.494,2.974 -1.585,6.596 -0.263,9.648c0.326,0.753 0.736,1.47 1.225,2.129c0.5,0.675 1.082,1.289 1.734,1.818a9.234,9.234 0 0 0 2.439,1.431l1.218,0.351l-0.232,0.943l-0.082,0.284l-0.057,0.196l-0.025,0.119a0.88,0.88 0 0 1 -0.089,0.224c-0.012,0.019 -0.027,0.038 -0.04,0.057l-0.002,0.002c-0.02,0.02 -0.037,0.042 -0.057,0.059a0.51,0.51 0 0 1 -0.832,-0.29c-0.005,-0.027 -0.006,-0.055 -0.008,-0.081l-0.001,-0.004c0.001,-0.021 0.001,-0.041 0.003,-0.061c0.008,-0.081 0.036,-0.159 0.057,-0.236c0.007,-0.057 0.008,-0.114 0.008,-0.172a5.82,5.82 0 0 0 -0.056,-0.722l-0.121,0.441a99.43,99.43 0 0 1 -0.965,3.253c-0.11,0.347 -0.222,0.692 -0.339,1.036c-0.098,0.293 -0.199,0.586 -0.321,0.869l-0.032,0.069c-0.028,0.053 -0.033,0.064 -0.063,0.109a0.543,0.543 0 0 1 -0.223,0.194a0.514,0.514 0 0 1 -0.649,-0.189c-0.02,-0.034 -0.026,-0.043 -0.043,-0.081a0.64,0.64 0 0 1 -0.041,-0.237l0.003,-0.056c-0.084,0.151 -0.171,0.299 -0.262,0.445c-0.265,0.426 -0.555,0.843 -0.902,1.206l-0.55,0.402l-0.029,-0.011c-0.635,-2.062 -0.584,-2.091 -1.624,-3.982l-1.967,-2.11l-0.327,0.075l-0.774,2.493l-0.936,-1.978l-0.42,-0.006l-1.418,2.794l-0.723,-2.882l-0.283,-0.091l-3.616,3.059l-0.266,-1.478l-0.341,-0.116l-1.518,1.378l0.6,-2.707l-0.642,-0.301l-2.643,3.422l0.038,-0.912l-0.273,-0.177l-3.24,1.607l-0.416,0.553z" class="body-area body-area-head" />
		<path id="svg_42" d="m65.621,18.772l0.437,0.033a7.74,7.74 0 0 1 1.829,0.496c0.782,0.319 1.51,0.765 2.159,1.305c0.498,0.414 0.949,0.884 1.346,1.395a9.684,9.684 0 0 1 1.054,1.694c1.398,2.864 1.381,6.365 -0.05,9.213c-0.249,0.497 -0.54,0.972 -0.871,1.418a9.054,9.054 0 0 1 -1.479,1.57a8.292,8.292 0 0 1 -2.062,1.265l-1.435,0.445l-0.853,-6.531a82.473,82.473 0 0 1 -0.333,-5.328a60.055,60.055 0 0 1 0.048,-4.985l0.21,-1.99zm36.252,-0.041l0.219,0l0.146,0.011l0.154,0.824a26.06,26.06 0 0 1 0.19,3.819a42.838,42.838 0 0 1 -0.326,4.442a64.28,64.28 0 0 1 -0.803,4.9l-1.188,4.833l-1.284,-0.399a8.292,8.292 0 0 1 -2.062,-1.265a9.092,9.092 0 0 1 -1.479,-1.57a9.663,9.663 0 0 1 -0.871,-1.418c-1.431,-2.848 -1.448,-6.349 -0.05,-9.213a9.684,9.684 0 0 1 1.054,-1.694a9.017,9.017 0 0 1 1.346,-1.395a8.273,8.273 0 0 1 2.159,-1.305a7.74,7.74 0 0 1 1.829,-0.496l0.966,-0.074z" class="body-area body-area-ears" />
		<path id="svg_43" d="m65.084,53.5l2.041,-0.882c0.662,-0.296 1.325,-0.59 1.962,-0.938c1.722,-0.943 3.303,-2.248 4.266,-3.986a7.54,7.54 0 0 0 0.386,-0.806l0.416,-1.445l0.206,-0.274l1.801,-0.893l-0.071,1.695l0.563,0.205l2.217,-2.87l-0.449,2.028l0.518,0.301l2.054,-1.863l0.259,1.439l0.318,0.114l3.67,-3.104l0.864,3.446l0.535,0.06l1.575,-3.1l1.058,2.236l0.521,-0.036l0.909,-2.931l0.935,1.003l0.795,1.446l0.126,0.409l-0.045,-0.004a5.449,5.449 0 0 0 0.071,0.975c0.222,1.341 0.936,2.551 1.811,3.568a12.97,12.97 0 0 0 1.051,1.073a16.054,16.054 0 0 0 2.141,1.621a19.27,19.27 0 0 0 2.713,1.437l0.212,0.076l-13.656,0l-0.005,-0.012a3.264,3.264 0 0 0 -0.351,-0.602a3.361,3.361 0 0 0 -1.631,-1.146a5.078,5.078 0 0 0 -1.458,-0.238c-0.142,-0.002 -0.142,-0.002 -0.285,0a5.23,5.23 0 0 0 -1.356,0.204a3.552,3.552 0 0 0 -1.457,0.843a3.314,3.314 0 0 0 -0.566,0.749a3.142,3.142 0 0 0 -0.099,0.202l-14.565,0z" class="body-area body-area-nape_of_neck" />
		<path id="svg_44" d="m61.646,112.5l-0.371,-2.781c-0.448,-2.745 -1.028,-5.468 -1.654,-8.178c-0.164,-0.708 -0.331,-1.417 -0.501,-2.125c-0.131,-0.55 -0.268,-1.1 -0.393,-1.653c-0.03,-0.139 -0.057,-0.278 -0.082,-0.418a47.273,47.273 0 0 1 -0.311,-2.082c-0.099,-0.747 -0.191,-1.495 -0.28,-2.244l-0.055,-0.483l0.503,-4.024l-0.031,-0.403l-0.079,-1a883.057,883.057 0 0 0 -1.074,-12.372a461.56,461.56 0 0 0 -1.017,-9.817c-0.156,-1.35 -0.322,-2.7 -0.505,-4.047a94.42,94.42 0 0 0 -0.464,-3.092l-0.296,-1.497l1.571,-0.466c0.529,-0.081 1.059,-0.151 1.589,-0.231a24.981,24.981 0 0 0 1.651,-0.309a24.058,24.058 0 0 0 2.157,-0.609l0.448,-0.169l17.938,0l0.099,-0.395l0.004,-0.014c0.041,-0.134 0.101,-0.263 0.172,-0.384c0.264,-0.447 0.687,-0.774 1.166,-0.964c0.249,-0.098 0.51,-0.161 0.774,-0.198a4.5,4.5 0 0 1 0.545,-0.044c0.761,-0.017 1.58,0.117 2.188,0.61a1.99,1.99 0 0 1 0.661,0.947l0.102,0.442l17.654,0l0.857,0.183c0.344,0.048 0.689,0.081 1.035,0.095c0.343,0.015 0.686,0.009 1.03,0.015c0.207,0.005 0.415,0.012 0.622,0.02c1.169,0.054 2.344,0.166 3.484,0.442c0.369,0.09 0.735,0.196 1.09,0.334l0.026,0.013c-0.553,1.473 -0.95,3 -1.286,4.536c-0.558,2.552 -0.944,5.139 -1.242,7.733c-0.434,3.777 -0.675,7.575 -0.803,11.374c-0.061,1.8 -0.095,3.601 -0.102,5.401c-0.005,1.295 0.003,2.59 0.035,3.885l0.433,4.335l-0.296,2.01c-0.537,3.546 -1.092,7.089 -1.63,10.634a437.054,437.054 0 0 0 -0.581,3.951l-0.363,3.039l-44.418,0z" class="body-area body-area-back" />
		<path id="svg_45" d="m54.104,56.694l0.325,1.754c0.171,1.06 0.32,2.124 0.461,3.188c0.18,1.372 0.345,2.746 0.501,4.12c0.427,3.762 0.793,7.53 1.138,11.3c0.348,3.809 0.673,7.619 0.969,11.432l-0.376,3.004l-0.177,0.424a664.42,664.42 0 0 1 -3.305,7.78a253.336,253.336 0 0 1 -1.471,3.333a67.673,67.673 0 0 1 -0.946,2.024c-0.185,0.377 -0.384,0.745 -0.577,1.117c-0.095,0.19 -0.187,0.38 -0.278,0.57l-0.797,1.93a35.822,35.822 0 0 1 -5.064,-1a25.495,25.495 0 0 1 -2.627,-0.872a16.936,16.936 0 0 1 -2.109,-1a10.864,10.864 0 0 1 -1.636,-1.121l-0.896,-0.915c0.614,-1.003 1.134,-2.062 1.603,-3.146a47.32,47.32 0 0 0 1.181,-3.037a72.46,72.46 0 0 0 1.269,-3.998c0.447,-1.555 0.853,-3.122 1.227,-4.695a128.842,128.842 0 0 0 1.531,-7.36l0.125,-0.722c0.023,-0.134 0.047,-0.267 0.066,-0.401c0.002,-0.013 0.001,-0.027 0.002,-0.04l0.01,-0.202c0.019,-0.35 0.022,-0.386 0.046,-0.77c0.026,-0.405 0.056,-0.809 0.086,-1.215c0.218,-2.748 0.525,-5.488 0.93,-8.214c0.097,-0.652 0.199,-1.302 0.309,-1.952c0.085,-0.509 0.169,-1.018 0.289,-1.52c0.167,-0.701 0.389,-1.389 0.665,-2.056c1.217,-2.949 3.463,-5.415 6.179,-7.058l1.347,-0.682zm58.685,-0.659c0.862,0.386 1.688,0.867 2.458,1.43a14.472,14.472 0 0 1 2.644,2.515c1.978,2.419 3.164,5.395 3.834,8.424c0.106,0.473 0.198,0.948 0.279,1.425c0.116,0.686 0.211,1.377 0.283,2.069c0.179,1.679 0.236,3.37 0.198,5.057a45.004,45.004 0 0 1 -0.1,2.168c-0.01,0.161 -0.025,0.323 -0.028,0.483c0,0.06 0.004,0.12 0.008,0.179c0.022,0.256 0.055,0.51 0.092,0.765c0.048,0.339 0.104,0.677 0.162,1.015a81.2,81.2 0 0 0 0.449,2.383c0.459,2.276 0.98,4.54 1.549,6.791c0.644,2.549 1.35,5.086 2.185,7.578c0.315,0.94 0.648,1.874 1.016,2.795c0.374,0.938 0.784,1.863 1.27,2.749l0.41,0.705c-0.605,0.478 -1.27,0.909 -1.961,1.292c-2.862,1.589 -6.128,2.349 -9.386,2.454l-1.886,-0.019l-0.003,-0.009c-0.072,-0.2 -0.145,-0.399 -0.219,-0.598a216.173,216.173 0 0 0 -1.32,-3.409a825.764,825.764 0 0 0 -1.647,-4.131l-3.199,-7.897l-0.378,-3.78l-0.006,-0.247l-0.006,-0.322c-0.05,-3.081 -0.013,-6.164 0.102,-9.243c0.124,-3.325 0.338,-6.648 0.696,-9.956c0.266,-2.465 0.61,-4.924 1.097,-7.355c0.357,-1.784 0.79,-3.556 1.407,-5.311z" class="body-area body-area-upper_arm" />
		<path id="svg_46" d="m129.998,105.426l0.548,0.943c0.937,1.637 1.845,3.289 2.669,4.986a53.41,53.41 0 0 1 2.363,5.644l0.027,0.087c-0.611,0.526 -1.231,0.987 -1.877,1.41c-1.345,0.879 -2.8,1.59 -4.329,2.085c-1.43,0.462 -2.92,0.734 -4.422,0.811a18.13,18.13 0 0 1 -3.724,-0.198l-0.891,-0.187l-0.074,-0.154a32.995,32.995 0 0 1 -0.848,-2.06a53.016,53.016 0 0 1 -0.657,-1.855a46.116,46.116 0 0 1 -0.556,-1.786a21.939,21.939 0 0 1 -0.38,-1.489a13.22,13.22 0 0 1 -0.075,-0.397c-0.031,-0.193 -0.053,-0.387 -0.083,-0.581a9.9,9.9 0 0 0 -0.062,-0.344a8.649,8.649 0 0 0 -0.28,-1.002c-0.212,-0.605 -0.44,-1.206 -0.654,-1.809l-0.09,-0.259l1.744,0.035c3.131,-0.121 6.26,-0.825 9.063,-2.248c0.91,-0.463 1.783,-0.999 2.588,-1.632zm-93.313,-0.783l0.317,0.354c0.673,0.661 1.456,1.206 2.275,1.671c1.21,0.687 2.51,1.207 3.833,1.629c0.78,0.25 1.571,0.465 2.367,0.654c0.931,0.22 1.871,0.405 2.814,0.563l0.899,0.118l-0.847,2.606l-0.059,0.206l-0.034,0.126c-0.015,0.199 -0.015,0.199 -0.032,0.397a19.28,19.28 0 0 1 -0.38,2.365c-0.313,1.378 -0.776,2.718 -1.33,4.017l-0.75,1.595l-1.452,-0.036a52.072,52.072 0 0 1 -3.156,-0.256a38.306,38.306 0 0 1 -2.384,-0.342a29.001,29.001 0 0 1 -2.02,-0.429a22.038,22.038 0 0 1 -1.49,-0.431c-0.423,-0.14 -0.842,-0.295 -1.252,-0.469a12.89,12.89 0 0 1 -0.899,-0.421a10.346,10.346 0 0 1 -0.752,-0.43a8.801,8.801 0 0 1 -0.523,-0.359a6.942,6.942 0 0 1 -0.663,-0.562l-0.398,-0.486l0.722,-2.017a53.376,53.376 0 0 1 3.406,-7.19a48.54,48.54 0 0 1 1.227,-2.028l0.561,-0.845z" class="body-area body-area-elbow" />
		<path id="svg_47" d="m54.094,141.902l0.028,-0.26c0.189,-1.442 0.47,-2.871 0.812,-4.284c0.354,-1.463 0.774,-2.91 1.253,-4.337a48.622,48.622 0 0 1 1.429,-3.762a32.269,32.269 0 0 1 1.934,-3.843a16.717,16.717 0 0 0 0.984,-1.902a16.68,16.68 0 0 0 1.115,-3.703c0.086,-0.484 0.153,-0.973 0.191,-1.463c0.028,-0.345 0.048,-0.692 0.039,-1.038c0.002,-0.087 0.004,-0.086 0.01,-0.172c0.009,-0.125 0.014,-0.25 0.02,-0.374c0.038,-1.083 -0.025,-2.167 -0.127,-3.244l-0.003,-0.02l44.213,0l-0.082,2.558c0.009,0.988 0.055,1.976 0.142,2.959c0.074,0.841 0.177,1.68 0.334,2.509c0.076,0.397 0.163,0.792 0.277,1.18c0.08,0.269 0.17,0.54 0.3,0.789c0.093,0.179 0.226,0.329 0.344,0.491c0.08,0.115 0.158,0.23 0.235,0.345c0.452,0.705 0.842,1.448 1.2,2.205c0.365,0.773 0.697,1.56 1.006,2.357c0.884,2.284 1.593,4.635 2.21,7.004c0.197,0.762 0.388,1.526 0.558,2.295l0.696,3.859l-1.508,-0.5a93.951,93.951 0 0 0 -9.515,-2.348a96.884,96.884 0 0 0 -12.013,-1.531a103.526,103.526 0 0 0 -7.668,-0.198a102.51,102.51 0 0 0 -20.629,2.351a90.095,90.095 0 0 0 -6.652,1.713l-1.133,0.364z" class="body-area body-area-lower_back" />
		<path id="svg_48" d="m135.931,118.12c0.549,1.62 0.992,3.269 1.357,4.935c0.142,0.652 0.273,1.308 0.393,1.965c0.11,0.602 0.207,1.207 0.314,1.809a95.84,95.84 0 0 0 0.914,4.42c0.602,2.58 1.31,5.135 2.088,7.666c0.448,1.462 0.921,2.916 1.41,4.366c0.401,1.194 0.814,2.385 1.219,3.579c0.086,0.257 0.172,0.514 0.256,0.77c0.087,0.265 0.17,0.532 0.259,0.797l0.126,0.296l-0.426,0.329c-1.936,1.301 -4.152,2.152 -6.436,2.6c-0.605,0.118 -1.215,0.209 -1.835,0.268l-0.405,-1.447a24.198,24.198 0 0 0 -0.864,-2.072a18.33,18.33 0 0 0 -0.719,-1.384c-2.025,-4.001 -4.051,-8.003 -6.078,-12.002c-1.994,-3.93 -3.984,-7.86 -5.995,-11.779l-0.564,-1.087c1.286,0.22 2.584,0.303 3.877,0.251a18.28,18.28 0 0 0 4.885,-0.868a19.165,19.165 0 0 0 4.812,-2.362l1.412,-1.05zm-105.539,-0.306l0.951,0.84c0.238,0.171 0.484,0.331 0.736,0.48c0.334,0.198 0.679,0.378 1.031,0.543c0.404,0.19 0.817,0.36 1.236,0.514c0.553,0.204 1.116,0.38 1.685,0.536c0.662,0.181 1.332,0.334 2.006,0.465c0.886,0.172 1.779,0.308 2.675,0.416c1.049,0.126 2.103,0.216 3.159,0.277l1.412,0.04l-0.998,1.929l-0.36,0.722a860.791,860.791 0 0 0 -3.107,6.412a2832.192,2832.192 0 0 0 -6.93,14.514l-2.289,4.89a26.205,26.205 0 0 1 -3.032,-0.355c-1.127,-0.2 -2.246,-0.476 -3.315,-0.889c-0.696,-0.268 -1.376,-0.596 -1.991,-1.021l-0.015,-0.014l0.334,-0.762c0.085,-0.198 0.085,-0.198 0.167,-0.395c0.679,-1.677 1.199,-3.414 1.658,-5.162a78.94,78.94 0 0 0 1.188,-5.259c0.034,-0.18 0.063,-0.359 0.094,-0.539c0.072,-0.418 0.142,-0.837 0.215,-1.256c0.166,-0.966 0.334,-1.931 0.501,-2.897c0.366,-2.095 0.733,-4.19 1.118,-6.282c0.116,-0.632 0.234,-1.264 0.356,-1.896a43.313,43.313 0 0 1 0.702,-3.108l0.813,-2.743z" class="body-area body-area-forearm" />
		<path id="svg_49" d="m53.979,142.986l0.451,-0.156a82.109,82.109 0 0 1 3.676,-1.066a97.803,97.803 0 0 1 10.825,-2.21c10.315,-1.517 20.874,-1.473 31.156,0.284a93.125,93.125 0 0 1 9.338,2.092l3.988,1.229l0.161,0.895c0.278,1.836 0.518,3.678 0.736,5.521c0.48,4.039 0.858,8.088 1.205,12.141l0.266,3.148c0.043,0.503 0.087,1.007 0.128,1.511c0.013,0.178 0.024,0.356 0.033,0.534l0.028,2.831l-0.662,0.83c-1.513,1.688 -3.271,3.165 -5.23,4.31a19.059,19.059 0 0 1 -8.924,2.606a30.34,30.34 0 0 1 -2.297,-0.015a47.701,47.701 0 0 1 -3.046,-0.197a29.305,29.305 0 0 1 -3.693,-0.581l-2.464,-0.785l0.533,-0.921a9.012,9.012 0 0 0 0.119,-7.205a8.397,8.397 0 0 0 -0.948,-1.683a7.938,7.938 0 0 0 -1.209,-1.322a7.38,7.38 0 0 0 -1.798,-1.159a6.914,6.914 0 0 0 -2.754,-0.617l-0.194,0a6.914,6.914 0 0 0 -2.754,0.617a7.38,7.38 0 0 0 -1.798,1.159a7.938,7.938 0 0 0 -1.209,1.322a8.397,8.397 0 0 0 -0.948,1.683a9.012,9.012 0 0 0 0.119,7.205l0.442,0.765c-0.705,0.368 -1.471,0.628 -2.244,0.838c-1.296,0.351 -2.627,0.561 -3.961,0.698a42.653,42.653 0 0 1 -3.427,0.201c-0.746,0.015 -1.493,0.021 -2.238,-0.018a18.954,18.954 0 0 1 -3.057,-0.41a16.73,16.73 0 0 1 -5.083,-2.03c-1.87,-1.137 -3.501,-2.649 -4.818,-4.394l-0.804,-1.221l0.038,-3.027c0.038,-1.085 0.093,-2.169 0.19,-3.251c0.048,-0.551 0.115,-1.099 0.181,-1.647l0.491,-3.968c0.418,-3.432 0.828,-6.867 1.138,-10.312c0.074,-0.81 0.14,-1.623 0.198,-2.436c0.036,-0.513 0.062,-1.028 0.099,-1.541l0.021,-0.248z" class="body-area body-area-buttocks" />
		<path id="svg_50" d="m81.669,178.183l-0.387,-0.117a6.312,6.312 0 0 1 -1.65,-0.992a6.933,6.933 0 0 1 -1.182,-1.262a7.423,7.423 0 0 1 -0.656,-1.089a7.998,7.998 0 0 1 -0.037,-6.868c0.219,-0.459 0.485,-0.897 0.794,-1.301c0.3,-0.394 0.641,-0.756 1.018,-1.076c0.472,-0.4 0.999,-0.734 1.566,-0.982a5.915,5.915 0 0 1 2.614,-0.491a6.01,6.01 0 0 1 2.116,0.491a6.387,6.387 0 0 1 1.566,0.982c0.377,0.32 0.718,0.682 1.018,1.076c0.309,0.404 0.575,0.842 0.794,1.301a7.998,7.998 0 0 1 -0.037,6.868a7.423,7.423 0 0 1 -0.656,1.089c-0.34,0.467 -0.737,0.894 -1.182,1.262l-1.406,0.846l-0.195,-1.562a36.241,36.241 0 0 1 -0.1,-1.644a8.512,8.512 0 0 1 -1.742,-2.605a9.894,9.894 0 0 1 -0.601,-1.941c-0.012,-0.058 -0.024,-0.116 -0.034,-0.175l-0.01,0.05a9.973,9.973 0 0 1 -0.626,2.066a8.88,8.88 0 0 1 -0.641,1.217c0.04,0.182 0.056,0.372 0.065,0.559c0.02,0.438 -0.003,0.877 -0.035,1.315a32.637,32.637 0 0 1 -0.157,1.562l-0.217,1.421z" class="body-area body-area-anus" />
		<path id="svg_51" d="m138.474,178.074l0.001,0.001c0.001,0.003 -0.004,-0.001 -0.007,-0.003c-0.019,-0.009 -0.038,-0.017 -0.056,-0.028a1.15,1.15 0 0 1 -0.319,-0.261c-0.209,-0.245 -0.33,-0.559 -0.411,-0.868a7.294,7.294 0 0 1 -0.202,-1.308a17.792,17.792 0 0 1 -0.047,-1.366c0,-0.992 0.055,-1.985 0.13,-2.974c0.04,-0.524 0.092,-1.047 0.128,-1.573c0.01,-0.174 0.018,-0.349 0.022,-0.523a8.596,8.596 0 0 0 -0.011,-0.7c-0.003,-0.055 -0.008,-0.106 -0.013,-0.159c-0.004,-0.036 -0.005,-0.08 -0.015,-0.114a15.907,15.907 0 0 0 -0.048,-0.159c-0.14,-0.454 -0.282,-0.906 -0.419,-1.36a32.52,32.52 0 0 1 -0.627,-2.419a23.135,23.135 0 0 1 -0.498,-3.878a21.453,21.453 0 0 1 0.086,-2.967c0.02,-0.193 0.042,-0.386 0.057,-0.578c0.008,-0.114 0.015,-0.227 0.02,-0.339a12.418,12.418 0 0 0 -0.406,-3.619l1.522,-0.201c2.498,-0.46 4.925,-1.376 7.038,-2.796l0.272,-0.21l0.646,1.519c0.297,0.568 0.624,1.123 1.007,1.636c0.385,0.197 0.769,0.398 1.153,0.599c0.35,0.185 0.701,0.372 1.049,0.563c0.265,0.147 0.531,0.294 0.791,0.451c0.264,0.159 0.524,0.33 0.777,0.506c0.35,0.245 0.69,0.506 1.007,0.793c0.27,0.245 0.526,0.511 0.739,0.808c0.153,0.214 0.285,0.445 0.368,0.693c0.03,0.093 0.054,0.186 0.071,0.281c0.012,0.071 0.016,0.142 0.025,0.214l0.026,0.126c0.06,0.227 0.147,0.444 0.242,0.657c0.109,0.242 0.23,0.48 0.357,0.713c0.315,0.58 0.665,1.141 1.03,1.691l0.056,0.083c0.079,0.09 0.157,0.182 0.233,0.275a4.705,4.705 0 0 1 0.49,0.724c0.031,0.058 0.06,0.116 0.086,0.175c0.159,0.351 0.252,0.777 0.095,1.147a0.967,0.967 0 0 1 -0.098,0.182a0.84,0.84 0 0 1 -0.175,0.187a0.89,0.89 0 0 1 -0.162,0.097a3.286,3.286 0 0 1 -0.253,0.105a2.428,2.428 0 0 1 -0.571,0.131a2.508,2.508 0 0 1 -0.792,-0.044c-0.544,-0.116 -1.039,-0.396 -1.472,-0.739a5.542,5.542 0 0 1 -0.308,-0.263c0.089,0.338 0.185,0.675 0.285,1.01c0.471,1.573 1.039,3.116 1.641,4.643c0.168,0.426 0.339,0.851 0.511,1.277c0.145,0.356 0.293,0.711 0.433,1.07a7.005,7.005 0 0 1 0.248,0.788c0.13,0.53 0.188,1.08 0.139,1.624a3.458,3.458 0 0 1 -0.18,0.847c-0.07,0.198 -0.163,0.399 -0.302,0.558a1.078,1.078 0 0 1 -0.245,0.196a1.063,1.063 0 0 1 -0.287,0.126a0.872,0.872 0 0 1 -0.209,0.03c-0.439,0.012 -0.805,-0.284 -1.076,-0.601a5.448,5.448 0 0 1 -0.567,-0.829c-0.294,-0.516 -0.578,-1.039 -0.862,-1.56c-0.496,-0.907 -0.986,-1.817 -1.468,-2.731l-0.018,-0.037c0.074,0.272 0.073,0.272 0.145,0.544c0.068,0.274 0.068,0.273 0.134,0.548c0.233,0.995 0.428,1.997 0.591,3.005c0.055,0.345 0.108,0.69 0.159,1.035c0.041,0.282 0.079,0.565 0.125,0.847c0.019,0.099 0.038,0.199 0.059,0.298c0.115,0.51 0.262,1.009 0.393,1.514c0.028,0.12 0.057,0.24 0.082,0.36c0.077,0.386 0.137,0.807 -0.007,1.185a1.046,1.046 0 0 1 -0.153,0.273c-0.336,0.431 -0.968,0.497 -1.459,0.335a1.68,1.68 0 0 1 -0.298,-0.13c-0.314,-0.172 -0.575,-0.427 -0.796,-0.706c-0.369,-0.466 -0.636,-1.003 -0.852,-1.553l-0.03,-0.082c-0.063,-0.181 -0.118,-0.364 -0.177,-0.545l-0.413,-1.306c-0.294,-0.931 -0.583,-1.864 -0.866,-2.798l-0.373,-1.242c-0.067,-0.215 -0.066,-0.215 -0.136,-0.428a11.309,11.309 0 0 0 -0.391,-1.015l-0.008,-0.017c0.035,0.896 0.115,1.79 0.208,2.681c0.11,1.039 0.243,2.076 0.404,3.108c0.054,0.342 0.111,0.683 0.172,1.023c0.039,0.22 0.082,0.44 0.119,0.661l0.047,0.312c0.069,0.529 0.114,1.066 0.062,1.6c-0.033,0.349 -0.108,0.704 -0.276,1.014c-0.079,0.147 -0.18,0.282 -0.303,0.395a1.218,1.218 0 0 1 -0.344,0.223a1.129,1.129 0 0 1 -0.732,0.049c-0.382,-0.108 -0.663,-0.422 -0.87,-0.748a3.143,3.143 0 0 1 -0.119,-0.202a7.198,7.198 0 0 1 -0.505,-1.214a16.851,16.851 0 0 1 -0.407,-1.479a32.212,32.212 0 0 1 -0.568,-3.258c-0.069,-0.557 -0.114,-1.115 -0.169,-1.673c-0.02,-0.192 -0.042,-0.384 -0.065,-0.575c-0.074,-0.584 -0.155,-1.174 -0.335,-1.737l-0.027,-0.078l-0.007,-0.018a5.073,5.073 0 0 0 -0.085,0.291c-0.156,0.616 -0.245,1.247 -0.322,1.877a46.329,46.329 0 0 0 -0.196,2.068c-0.026,0.35 -0.048,0.7 -0.075,1.05c-0.014,0.163 -0.03,0.326 -0.048,0.488c-0.062,0.526 -0.142,1.052 -0.305,1.557c-0.094,0.293 -0.217,0.586 -0.412,0.827a1.202,1.202 0 0 1 -0.318,0.285a0.953,0.953 0 0 1 -0.309,0.123a0.878,0.878 0 0 1 -0.52,-0.052l-0.081,-0.039zm-115.635,-29.033c0.382,0.26 0.782,0.478 1.19,0.671c1.166,0.552 2.416,0.916 3.677,1.178c1.158,0.241 2.331,0.394 3.518,0.471l-0.202,0.747c-0.058,0.321 -0.099,0.645 -0.13,0.97a23.52,23.52 0 0 0 -0.069,3.096l0.004,0.083c0.032,0.09 0.061,0.18 0.09,0.269c0.037,0.117 0.07,0.234 0.103,0.352c0.396,1.528 0.395,3.136 0.204,4.696c-0.253,2.07 -0.804,4.093 -1.51,6.052l-0.065,0.175l-0.089,0.241c0.025,0.797 0.057,1.596 0.086,2.394c0.056,1.499 0.129,2.996 0.165,4.496c0.008,0.518 -0.008,1.042 -0.114,1.551c-0.065,0.314 -0.165,0.628 -0.343,0.898a1.23,1.23 0 0 1 -0.581,0.49a0.916,0.916 0 0 1 -0.498,0.05a1.168,1.168 0 0 1 -0.802,-0.481a2.373,2.373 0 0 1 -0.359,-0.744a6.84,6.84 0 0 1 -0.234,-1.203c-0.024,-0.213 -0.041,-0.426 -0.06,-0.64c-0.02,-0.233 -0.043,-0.464 -0.066,-0.696c-0.133,-1.27 -0.566,-3.119 -0.607,-2.778a302.81,302.81 0 0 1 -0.601,4.437c-0.032,0.222 -0.066,0.444 -0.102,0.665a16.87,16.87 0 0 1 -0.275,1.334a7.63,7.63 0 0 1 -0.269,0.863c-0.149,0.38 -0.344,0.768 -0.66,1.036a1.358,1.358 0 0 1 -0.816,0.324a1.577,1.577 0 0 1 -0.266,0.007a1.07,1.07 0 0 1 -0.407,-0.116a1.337,1.337 0 0 1 -0.584,-0.638a2.05,2.05 0 0 1 -0.16,-1.102c0.009,-0.082 0.024,-0.161 0.041,-0.24c0.014,-0.063 0.031,-0.125 0.043,-0.187c0.009,-0.044 0.016,-0.088 0.022,-0.132c0.058,-0.462 0.078,-0.927 0.099,-1.391c0.029,-0.735 0.055,-1.47 0.086,-2.204c0.025,-0.545 0.054,-1.09 0.099,-1.634c0.03,-0.357 0.07,-0.713 0.104,-1.069l0.029,-0.398l0.007,-0.128l-0.047,0.176a80.302,80.302 0 0 0 -0.836,3.469c-0.083,0.38 -0.159,0.763 -0.238,1.144l-0.058,0.244a5.235,5.235 0 0 1 -0.433,1.12c-0.34,0.625 -0.85,1.166 -1.5,1.467a2.728,2.728 0 0 1 -0.353,0.134a1.446,1.446 0 0 1 -0.245,0.054c-0.146,0.016 -0.298,0 -0.438,-0.048a0.886,0.886 0 0 1 -0.359,-0.227a1.043,1.043 0 0 1 -0.177,-0.249c-0.138,-0.268 -0.171,-0.578 -0.173,-0.876c0,-0.243 0.024,-0.486 0.056,-0.727c0.04,-0.298 0.094,-0.593 0.154,-0.888c0.056,-0.272 0.115,-0.542 0.169,-0.814c0.016,-0.091 0.033,-0.181 0.046,-0.273c0.013,-0.112 0.022,-0.224 0.034,-0.336c0.014,-0.118 0.03,-0.236 0.045,-0.353c0.085,-0.606 0.18,-1.21 0.287,-1.81c0.075,-0.424 0.153,-0.847 0.25,-1.266l0.034,-0.143l-0.119,0.38c-0.154,0.466 -0.318,0.929 -0.535,1.37a4.008,4.008 0 0 1 -0.651,0.976a3.49,3.49 0 0 1 -0.295,0.275a2.44,2.44 0 0 1 -0.619,0.395a1.012,1.012 0 0 1 -0.379,0.079a0.784,0.784 0 0 1 -0.623,-0.297a1.042,1.042 0 0 1 -0.194,-0.433c-0.016,-0.073 -0.02,-0.146 -0.029,-0.22l0.001,0.025a2.8,2.8 0 0 1 -0.026,-0.177a6.417,6.417 0 0 1 0.025,-1.336c0.063,-0.605 0.168,-1.206 0.286,-1.802c0.257,-1.294 0.586,-2.573 0.942,-3.842c0.11,-0.395 0.225,-0.79 0.344,-1.183l0.098,-0.316c0.032,-0.103 0.067,-0.203 0.094,-0.307c0.025,-0.101 0.047,-0.204 0.069,-0.306c0.141,-0.722 0.255,-1.45 0.366,-2.176l0.086,-0.571c-0.153,0.172 -0.31,0.338 -0.474,0.498c-0.31,0.301 -0.642,0.581 -1.006,0.813c-0.551,0.351 -1.195,0.596 -1.858,0.533a2.174,2.174 0 0 1 -0.673,-0.175c-0.068,-0.029 -0.14,-0.059 -0.201,-0.103a0.971,0.971 0 0 1 -0.381,-0.722c-0.02,-0.282 0.058,-0.563 0.172,-0.817c0.196,-0.433 0.494,-0.816 0.806,-1.17a37.582,37.582 0 0 0 1.15,-1.931c0.08,-0.146 0.158,-0.294 0.233,-0.442c0.043,-0.084 0.083,-0.17 0.127,-0.253l0.044,-0.072c0.102,-0.145 0.226,-0.272 0.353,-0.394c0.126,-0.121 0.256,-0.237 0.388,-0.351c0.373,-0.325 0.76,-0.636 1.149,-0.942c0.794,-0.626 1.603,-1.235 2.414,-1.838c0.359,-0.268 0.721,-0.534 1.082,-0.8c0.121,-0.09 0.246,-0.18 0.365,-0.274a1.855,1.855 0 0 0 0.312,-0.319c0.023,-0.031 0.053,-0.064 0.068,-0.099c0.011,-0.024 0.014,-0.051 0.021,-0.075c0.009,-0.033 0.022,-0.081 0.029,-0.115c0.035,-0.146 0.066,-0.292 0.105,-0.437c0.023,-0.085 0.048,-0.169 0.073,-0.253c0.186,-0.578 0.419,-1.14 0.655,-1.699l0.29,-0.66z" class="body-area body-area-hand" />
		<path id="svg_52" d="m51.621,171.227l0.008,0.012a18.41,18.41 0 0 0 4.916,4.535a17.678,17.678 0 0 0 5.443,2.235c1.098,0.25 2.219,0.4 3.344,0.46c0.77,0.041 1.541,0.035 2.311,0.019a42.277,42.277 0 0 0 3.731,-0.229a29.678,29.678 0 0 0 2.036,-0.29c1.058,-0.19 2.108,-0.443 3.12,-0.808c0.45,-0.163 0.895,-0.347 1.306,-0.567l1.158,1.251a7.31,7.31 0 0 0 1.999,1.182l0.524,0.15l-0.437,2.852c-0.376,2.17 -0.783,4.335 -1.193,6.499c-0.273,1.441 -0.548,2.881 -0.819,4.321c-0.137,0.729 -0.271,1.458 -0.402,2.188a68.966,68.966 0 0 0 -0.33,1.976c-0.106,0.718 -0.194,1.44 -0.278,2.161c-0.09,0.78 -0.174,1.562 -0.253,2.344c-0.19,1.877 -0.362,3.755 -0.525,5.634a892.182,892.182 0 0 0 -1.042,13.277c-0.082,1.148 -0.164,2.297 -0.243,3.445c-0.05,0.717 -0.098,1.433 -0.15,2.148c-0.025,0.318 -0.05,0.635 -0.077,0.952c-0.115,1.266 -0.254,2.53 -0.474,3.781c-0.172,0.976 -0.391,1.948 -0.721,2.884c-0.177,0.5 -0.386,0.988 -0.629,1.459c-0.117,0.224 -0.237,0.445 -0.36,0.665c-0.07,0.125 -0.143,0.249 -0.209,0.378a5.512,5.512 0 0 0 -0.097,0.222c-0.142,0.362 -0.252,0.735 -0.354,1.111l-0.355,1.465a74.161,74.161 0 0 1 -7.451,-0.457a53,53 0 0 1 -3.781,-0.561a35.15,35.15 0 0 1 -3.36,-0.789a22.003,22.003 0 0 1 -2.419,-0.848l-1.375,-0.693l0.353,-1.56c0.171,-0.989 0.306,-1.985 0.42,-2.983a87.62,87.62 0 0 0 0.279,-2.843c0.028,-0.355 0.054,-0.709 0.08,-1.063c0.017,-0.247 0.034,-0.494 0.04,-0.742c0.015,-0.646 0.001,-1.292 -0.016,-1.937c-0.025,-0.964 -0.064,-1.927 -0.108,-2.889a433.545,433.545 0 0 0 -0.391,-7.121a866.807,866.807 0 0 0 -0.815,-11.728a690.223,690.223 0 0 0 -1.014,-12.097a313.397,313.397 0 0 0 -0.369,-3.728c-0.094,-0.885 -0.193,-1.77 -0.284,-2.654c-0.05,-0.511 -0.099,-1.021 -0.146,-1.531c-0.341,-3.825 -0.559,-7.66 -0.591,-11.488zm64.311,0.113l-0.072,2.173a288.66,288.66 0 0 1 -0.574,9.016a706.382,706.382 0 0 1 -1.683,18.434c-0.11,1.067 -0.221,2.134 -0.337,3.201c-0.09,0.836 -0.184,1.672 -0.272,2.509c-0.056,0.551 -0.111,1.103 -0.162,1.655a252.089,252.089 0 0 0 -0.553,7.367a315.123,315.123 0 0 0 -0.332,6.517c-0.074,1.83 -0.133,3.66 -0.157,5.491a72.443,72.443 0 0 0 -0.003,2.032c0.006,0.503 0.016,1.009 0.063,1.51c0.04,0.415 0.102,0.827 0.171,1.237l0.246,1.322l-3.611,1.59a45.38,45.38 0 0 1 -5.604,1.674a54.947,54.947 0 0 1 -7.347,1.174l-1.648,0.11l-0.632,-1.79c-0.217,-0.552 -0.448,-1.097 -0.678,-1.643c-0.064,-0.157 -0.064,-0.157 -0.126,-0.315a20.93,20.93 0 0 1 -1.032,-3.923a27.31,27.31 0 0 1 -0.346,-2.993l-0.003,-0.047l-0.538,-9.668c-0.064,-1.443 -0.132,-2.886 -0.199,-4.33a880.057,880.057 0 0 0 -0.439,-8.434c-0.06,-1.034 -0.123,-2.069 -0.194,-3.102c-0.049,-0.699 -0.098,-1.399 -0.177,-2.095a73.72,73.72 0 0 0 -0.437,-3.108a254.406,254.406 0 0 0 -0.742,-4.447c-0.685,-3.934 -1.425,-7.857 -2.138,-11.786c-0.082,-0.456 -0.163,-0.912 -0.242,-1.369l-0.039,-0.318a7.117,7.117 0 0 0 1.911,-1.139l1.013,-1.095l2.708,0.879c0.536,0.128 1.077,0.235 1.62,0.327c0.707,0.12 1.418,0.214 2.131,0.289c1.112,0.117 2.228,0.187 3.345,0.226c0.79,0.027 1.581,0.046 2.371,0.014a20.56,20.56 0 0 0 3.362,-0.411a20.146,20.146 0 0 0 6.225,-2.447a22.242,22.242 0 0 0 5.151,-4.287z" class="body-area body-area-thigh" />
		<path id="svg_53" d="m115.734,297.5l-10.438,0l-0.016,-0.188a48.699,48.699 0 0 0 -0.434,-2.49a103.32,103.32 0 0 0 -0.787,-3.605a142.549,142.549 0 0 0 -0.89,-3.577l-0.026,-0.101c-0.707,-2.352 -1.411,-4.704 -2.115,-7.057c-0.607,-2.033 -1.211,-4.066 -1.813,-6.101c-0.414,-1.401 -0.825,-2.803 -1.236,-4.205c-0.127,-0.441 -0.257,-0.883 -0.381,-1.325c-0.358,-1.305 -0.594,-2.64 -0.791,-3.977a88.428,88.428 0 0 1 -0.574,-5.079c-0.253,-2.886 -0.418,-5.778 -0.551,-8.672c-0.08,-1.729 -0.145,-3.459 -0.219,-5.188c-0.016,-0.333 -0.031,-0.667 -0.05,-1.001a24.278,24.278 0 0 0 -0.293,-2.522l-0.737,-3.059c2.956,-0.211 5.813,-0.612 8.619,-1.247a46.643,46.643 0 0 0 6.003,-1.775a32.128,32.128 0 0 0 3.482,-1.515l0.515,2.359c0.478,2.075 0.969,4.148 1.449,6.224c0.413,1.805 0.821,3.612 1.201,5.424c0.25,1.189 0.499,2.38 0.702,3.579a51.15,51.15 0 0 1 0.465,3.464c0.24,2.381 0.317,4.777 0.286,7.17c-0.025,1.804 -0.118,3.606 -0.188,5.408c-0.011,0.32 -0.021,0.639 -0.027,0.958c-0.002,0.168 -0.004,0.336 -0.003,0.504c0.001,0.222 0.008,0.444 0.009,0.668c-0.001,0.232 -0.004,0.464 -0.009,0.698a154.689,154.689 0 0 1 -0.149,3.909a711.5,711.5 0 0 1 -0.305,5.832c-0.186,3.327 -0.377,6.652 -0.562,9.979c-0.054,0.992 -0.107,1.985 -0.154,2.978c-0.047,1.002 -0.1,2.007 -0.042,3.01l0.059,0.52zm-53.6,0l-10.75,0l0.057,-0.852c0.03,-0.787 0.031,-1.575 0.007,-2.362c-0.243,-6.029 -0.885,-12.034 -1.327,-18.051a188.909,188.909 0 0 1 -0.255,-4.188c-0.242,-4.974 -0.268,-9.964 0.04,-14.936c0.148,-2.378 0.374,-4.752 0.702,-7.112c0.321,-2.308 0.74,-4.605 1.298,-6.868a49.913,49.913 0 0 1 1.091,-3.794c0.137,-0.412 0.28,-0.822 0.429,-1.23c0.136,-0.376 0.278,-0.752 0.412,-1.129c0.035,-0.104 0.069,-0.206 0.101,-0.311l0.018,-0.08l1.211,0.618c0.761,0.322 1.543,0.593 2.334,0.829c1.114,0.334 2.248,0.599 3.389,0.82c1.362,0.264 2.735,0.465 4.114,0.622a74.38,74.38 0 0 0 7.372,0.458l-0.52,2.725a112.02,112.02 0 0 0 -0.633,4.308a98.359,98.359 0 0 0 -0.437,4.049a67.965,67.965 0 0 0 -0.14,1.908c-0.036,0.602 -0.063,1.204 -0.095,1.806l-0.073,1.188a157.238,157.238 0 0 1 -0.618,7.026a104.5,104.5 0 0 1 -0.317,2.559c-0.1,0.727 -0.207,1.454 -0.342,2.175c-0.092,0.483 -0.211,0.959 -0.332,1.436c-0.144,0.575 -0.293,1.148 -0.442,1.721c-0.429,1.646 -0.863,3.29 -1.3,4.933a2795.63,2795.63 0 0 1 -2.498,9.339c-0.446,1.652 -0.888,3.307 -1.347,4.957c-0.061,0.21 -0.123,0.42 -0.182,0.631a30.173,30.173 0 0 0 -0.851,4.232c-0.104,0.848 -0.167,1.706 -0.116,2.573z" class="body-area body-area-lower_leg" />
		<path id="svg_54" d="m115.848,298.5c0.088,0.67 0.24,1.362 0.435,2.042a19.686,19.686 0 0 0 0.726,2.057c0.213,0.48 0.472,0.94 0.707,1.409l0.118,0.247c0.107,0.237 0.21,0.476 0.293,0.723c0.124,0.366 0.21,0.745 0.251,1.129c0.021,0.205 0.031,0.41 0.022,0.615c-0.021,0.446 -0.122,0.885 -0.245,1.312c-0.152,0.531 -0.34,1.05 -0.515,1.574a24.98,24.98 0 0 0 -0.166,0.53a6.438,6.438 0 0 0 -0.187,0.811c-0.041,0.281 -0.053,0.564 0.007,0.843c0.052,0.206 0.113,0.411 0.167,0.617c0.171,0.673 0.319,1.352 0.371,2.046a6.524,6.524 0 0 1 -0.445,2.927a3.418,3.418 0 0 1 -0.204,0.449a2.909,2.909 0 0 1 -0.537,0.682a4.314,4.314 0 0 1 -1.181,0.769a7.66,7.66 0 0 1 -1.785,0.538c-0.732,0.135 -1.48,0.191 -2.225,0.178a7.676,7.676 0 0 1 -1.555,-0.158a5.895,5.895 0 0 1 -1.947,-0.822a5.03,5.03 0 0 1 -1.152,-1.021a3.707,3.707 0 0 1 -0.759,-1.489a3.117,3.117 0 0 1 -0.082,-0.887c0.009,-0.195 0.041,-0.386 0.059,-0.579c0.01,-0.116 0.018,-0.231 0.025,-0.348c0.024,-0.483 0.029,-0.968 0.023,-1.452l-0.12,-0.017c-0.201,-0.03 -0.4,-0.073 -0.594,-0.133a3.74,3.74 0 0 1 -1.894,-1.326a3.46,3.46 0 0 1 -0.444,-0.753l-0.017,-0.051a7.296,7.296 0 0 1 -0.144,-0.715c-0.156,-1.001 -0.126,-2.075 0.335,-2.996a3.237,3.237 0 0 1 0.616,-0.857a3.272,3.272 0 0 1 1.116,-0.734a2.35,2.35 0 0 1 0.358,-0.11a0.652,0.652 0 0 1 0.108,-0.006l0.033,0.003l0,-0.003c-0.027,-0.151 -0.027,-0.151 -0.05,-0.302a12.752,12.752 0 0 1 -0.103,-0.954c-0.067,-0.946 -0.037,-1.897 0.03,-2.843c0.026,-0.384 0.061,-0.77 0.098,-1.154c0.021,-0.203 0.046,-0.407 0.061,-0.611c0.005,-0.087 0.008,-0.174 0.009,-0.262l-0.081,-0.918l10.464,0zm-53.646,0l0.071,0.516c0.03,0.152 0.068,0.301 0.104,0.45a21.617,21.617 0 0 1 0.222,1.018c0.152,0.81 0.264,1.635 0.253,2.461a5.39,5.39 0 0 1 -0.062,0.783c-0.013,0.086 -0.03,0.173 -0.051,0.258c-0.011,0.046 -0.021,0.092 -0.04,0.135c-0.03,0.07 -0.068,0.134 -0.102,0.201a2.94,2.94 0 0 0 -0.084,0.192a7.209,7.209 0 0 0 -0.243,0.79l-0.031,0.121c0.191,0.051 0.38,0.104 0.57,0.157a3.196,3.196 0 0 1 1.346,0.812c0.143,0.144 0.271,0.3 0.386,0.467c0.586,0.846 0.716,1.923 0.622,2.925a8.08,8.08 0 0 1 -0.126,0.849l-0.044,0.201c-0.016,0.07 -0.03,0.137 -0.059,0.203c-0.113,0.26 -0.263,0.501 -0.432,0.727a3.762,3.762 0 0 1 -2.596,1.472a1.043,1.043 0 0 1 -0.209,0.011c-0.163,-0.023 -0.325,-0.052 -0.488,-0.081c-0.071,0.855 -0.134,1.713 -0.193,2.569l-0.03,0.446l-0.008,0.063c-0.014,0.076 -0.03,0.15 -0.047,0.225a3.259,3.259 0 0 1 -0.279,0.713a3.192,3.192 0 0 1 -0.241,0.379c-0.553,0.747 -1.396,1.221 -2.261,1.515a8.674,8.674 0 0 1 -1.037,0.273a10.364,10.364 0 0 1 -1.883,0.192a12.529,12.529 0 0 1 -3.078,-0.329a3.53,3.53 0 0 1 -0.352,-0.099a2.342,2.342 0 0 1 -1.016,-0.733c-0.298,-0.364 -0.503,-0.797 -0.654,-1.24c-0.231,-0.679 -0.344,-1.396 -0.408,-2.108a20.496,20.496 0 0 1 -0.057,-2.466c0.031,-1.067 0.121,-2.132 0.236,-3.194c0.064,-0.587 0.14,-1.172 0.202,-1.76a2.69,2.69 0 0 0 0.017,-0.219c-0.002,-0.138 -0.026,-0.274 -0.048,-0.41c-0.047,-0.259 -0.098,-0.516 -0.144,-0.775a8.713,8.713 0 0 1 -0.127,-1.194a6.15,6.15 0 0 1 0.532,-2.717c0.086,-0.193 0.187,-0.378 0.274,-0.569c0.041,-0.096 0.08,-0.191 0.116,-0.289c0.174,-0.474 0.294,-0.968 0.387,-1.464c0.089,-0.476 0.154,-0.956 0.204,-1.437l0.003,-0.04l10.885,0z" class="body-area body-area-foot" />
	</g>
</svg>
