<svg width="160" height="320" xmlns="http://www.w3.org/2000/svg">
	<!-- Generator: Sketch 64 (93537) - https://sketch.com -->
	<title>
		Group 261
	</title>
	<desc>
		Created with Sketch.
	</desc>
	<defs>
		<polygon id="path-1" points="0 0.0109105184 329.765526 0.0109105184 329.765526 287.930563 0 287.930563">
		</polygon>
	</defs>
	<g class="body-parts" id="svg_27">
		<path class="body-area body-area-head" d="m71.376,17.117l-0.353,-4.81c-0.033,-0.51 -0.067,-1.02 -0.094,-1.53a23.405,23.405 0 0 1 -0.023,-0.511a3.96,3.96 0 0 1 -0.002,-0.327c0.006,-0.151 0.028,-0.302 0.053,-0.451c0.117,-0.71 0.336,-1.401 0.607,-2.066a10.963,10.963 0 0 1 2.999,-4.14a12.05,12.05 0 0 1 2.708,-1.746c1.247,-0.59 2.583,-0.982 3.94,-1.223a20.938,20.938 0 0 1 3.701,-0.313c0.775,0.009 1.548,0.055 2.317,0.148a21.87,21.87 0 0 1 5.375,1.362a19.444,19.444 0 0 1 3.445,1.737l0.038,0.025a10.447,10.447 0 0 1 0.804,0.147c0.584,0.132 1.159,0.317 1.664,0.648c0.167,0.108 0.324,0.232 0.47,0.367c0.667,0.624 1.063,1.48 1.388,2.318c0.07,0.179 0.136,0.359 0.199,0.538c0.107,0.303 0.208,0.607 0.308,0.911c0.028,0.089 0.028,0.089 0.054,0.179c0.183,0.712 0.219,1.453 0.21,2.185a24.301,24.301 0 0 1 -0.205,2.681l-0.569,3.377l-1.288,0.251a8.21,8.21 0 0 0 -1.361,0.599a8.959,8.959 0 0 0 -1.715,1.236c-1.502,1.368 -2.545,3.168 -3.271,5.049c-0.129,0.336 -0.249,0.675 -0.36,1.018c-0.15,0.461 -0.284,0.927 -0.404,1.396a27.194,27.194 0 0 0 -0.407,1.87c-0.172,0.942 -0.3,1.891 -0.393,2.843l-0.088,1.615l-1.702,0l-0.203,0.066l-0.149,0.047c-0.397,0.123 -0.795,0.24 -1.196,0.349c-0.353,0.096 -0.707,0.186 -1.064,0.266c-0.24,0.054 -0.481,0.104 -0.723,0.147c-0.52,0.093 -1.044,0.155 -1.572,0.109a3.161,3.161 0 0 1 -0.77,-0.155a1.808,1.808 0 0 1 -0.607,-0.336a0.889,0.889 0 0 1 -0.191,-0.219l-0.155,-0.306l-2.888,0.289l-0.039,-1.086a37.85,37.85 0 0 0 -0.328,-2.929a28.94,28.94 0 0 0 -0.426,-2.223a24.042,24.042 0 0 0 -0.413,-1.538a17.933,17.933 0 0 0 -0.706,-1.934c-0.796,-1.844 -1.954,-3.591 -3.621,-4.755a7.603,7.603 0 0 0 -0.814,-0.498a7.225,7.225 0 0 0 -1.304,-0.536l-0.876,-0.141z" id="svg_42" />
		<path class="body-area body-area-ears" d="m71.454,18.141l1.149,0.306a6.754,6.754 0 0 1 1.401,0.815c1.374,1.034 2.338,2.521 3.024,4.078a17.19,17.19 0 0 1 0.751,2.061c0.205,0.683 0.375,1.377 0.517,2.077c0.188,0.921 0.328,1.852 0.433,2.786l0.181,2.592l-5.218,0.522l-0.018,-1.246l-0.001,-0.093a0.913,0.913 0 0 1 -0.371,0.021c-0.399,-0.058 -0.708,-0.362 -0.934,-0.676a4.366,4.366 0 0 1 -0.333,-0.55a7.502,7.502 0 0 1 -0.207,-0.434a10.6,10.6 0 0 1 -0.62,-1.905c-0.036,-0.173 -0.059,-0.348 -0.091,-0.522a18.277,18.277 0 0 0 -0.106,-0.518a65.662,65.662 0 0 0 -0.732,-2.955a53.99,53.99 0 0 0 -0.264,-0.954c-0.039,-0.136 -0.078,-0.271 -0.115,-0.407a5.566,5.566 0 0 1 -0.045,-0.195c-0.063,-0.341 -0.088,-0.73 0.136,-1.022a0.704,0.704 0 0 1 0.321,-0.241a0.868,0.868 0 0 1 0.337,-0.048c0.237,0.024 0.469,0.127 0.636,0.301c0.039,0.04 0.063,0.071 0.094,0.118c0.008,0.013 0.02,0.04 0.033,0.056c0.041,0.048 0.084,0.093 0.126,0.138c0.091,0.091 0.182,0.181 0.275,0.268l-0.017,-0.039l-0.342,-4.334zm26.058,14.359l-5.396,0l0.039,-0.952c0.084,-1.006 0.205,-2.009 0.375,-3.004c0.131,-0.761 0.29,-1.517 0.486,-2.264c0.117,-0.444 0.246,-0.885 0.391,-1.321c0.107,-0.322 0.222,-0.64 0.346,-0.955c0.685,-1.739 1.662,-3.41 3.077,-4.655c0.212,-0.186 0.432,-0.362 0.661,-0.525c0.274,-0.196 0.561,-0.374 0.858,-0.532a7.149,7.149 0 0 1 1.273,-0.528l0.585,-0.097l-0.68,3.005c0.479,0.085 0.922,0.392 1.187,0.796c0.136,0.208 0.227,0.445 0.265,0.691c0.034,0.228 0.024,0.461 -0.02,0.687c-0.033,0.172 -0.089,0.339 -0.134,0.509c-0.04,0.153 -0.077,0.306 -0.112,0.46c-0.326,1.491 -0.514,3.007 -0.73,4.516c-0.01,0.066 -0.024,0.13 -0.038,0.194c-0.083,0.34 -0.198,0.671 -0.326,0.997c-0.134,0.339 -0.283,0.673 -0.447,0.999a8.818,8.818 0 0 1 -0.505,0.88a4.47,4.47 0 0 1 -0.59,0.733c-0.162,0.158 -0.353,0.3 -0.565,0.366z" id="svg_41" />
		<path class="body-area body-area-neck_or_throat" d="m96.76,33.5l-0.02,0.236c-0.039,0.467 -0.074,0.935 -0.107,1.404c-0.018,0.265 -0.036,0.532 -0.057,0.797c-0.017,0.191 -0.037,0.381 -0.058,0.572a12.22,12.22 0 0 1 -0.249,1.447a5.463,5.463 0 0 1 -0.325,0.977a2.209,2.209 0 0 1 -0.364,0.582a0.861,0.861 0 0 1 -0.253,0.2l-0.034,0.014c0.046,0.373 0.104,0.745 0.187,1.111c0.036,0.146 0.077,0.291 0.116,0.437c0.059,0.217 0.116,0.433 0.172,0.651l0.232,1.072l-20.5,0l-0.014,-1.919l-0.005,-0.073a1.357,1.357 0 0 1 -0.191,-0.125a1.905,1.905 0 0 1 -0.303,-0.297a2.705,2.705 0 0 1 -0.197,-0.276a4.012,4.012 0 0 1 -0.37,-0.776a8.22,8.22 0 0 1 -0.323,-1.143a15.238,15.238 0 0 1 -0.222,-1.377a26.803,26.803 0 0 1 -0.165,-2.386l-0.004,-0.246l8.554,-0.856c0.069,0.079 0.141,0.153 0.22,0.221c0.608,0.531 1.441,0.724 2.229,0.75c0.184,0.007 0.367,0.004 0.551,-0.008c0.178,-0.011 0.356,-0.031 0.533,-0.055c0.221,-0.03 0.44,-0.068 0.659,-0.11c0.321,-0.061 0.64,-0.132 0.958,-0.21a32.947,32.947 0 0 0 1.751,-0.483l0.418,-0.131l7.181,0z" id="svg_40" />
		<path class="body-area body-area-nape_of_neck" d="m96,44s1.315,0.545 1.943,0.999c0.76,0.55 1.539,1.074 2.328,1.581c1.915,1.229 3.892,2.358 5.895,3.436c1.502,0.806 4.834,2.984 4.834,2.984l-18.5,0l-0.299,-0.511c-1.165,-1.177 -2.523,-2.227 -4.115,-2.746a6.687,6.687 0 0 0 -1.931,-0.329c-0.13,-0.001 -0.13,-0.001 -0.26,0.002a6.535,6.535 0 0 0 -1.23,0.159c-1.141,0.265 -2.189,0.844 -3.089,1.586a10.193,10.193 0 0 0 -1.109,1.082l-0.467,0.757l-19.5,0l11.332,-6.496c0.134,-0.063 0.271,-0.119 0.405,-0.182c0.712,-0.339 1.403,-0.738 2.014,-1.239a70.547,70.547 0 0 0 1.249,-1.083l20.5,0z" id="svg_39" />
		<path class="body-area body-area-back" d="m80.5,54l0.559,-0.908a8.264,8.264 0 0 1 1.281,-1.262a6.959,6.959 0 0 1 1.705,-1.011a5.501,5.501 0 0 1 1.35,-0.362a5.333,5.333 0 0 1 1.656,0.049c1.431,0.271 2.699,1.09 3.77,2.047c0.177,0.158 0.348,0.321 0.517,0.487l0.662,0.96l21.893,0l0.625,-0.412c0.57,0.095 1.137,0.203 1.698,0.337c0.615,0.145 1.222,0.319 1.822,0.516l1.259,0.523l-0.895,3.724c-0.451,2.323 -0.787,4.667 -1.064,7.016c-0.335,2.839 -0.58,5.689 -0.771,8.541c-0.214,3.19 -0.36,6.385 -0.452,9.582l-0.09,6.867l-0.197,1.243a65.684,65.684 0 0 1 -1.024,4.77a100.786,100.786 0 0 1 -1.071,3.863c-0.392,1.308 -0.798,2.613 -1.192,3.921a53.35,53.35 0 0 0 -0.798,2.913c-0.104,0.438 -0.193,0.879 -0.278,1.322c-0.091,0.474 -0.178,0.949 -0.258,1.426a30.12,30.12 0 0 0 -0.341,2.71a20.75,20.75 0 0 0 -0.046,2.217l0.18,0.921l-51,0c0.039,-1.316 0.076,-3.136 -0.022,-4.452c-0.05,-0.67 -0.115,-1.339 -0.193,-2.007c-0.031,-0.273 -0.061,-0.548 -0.103,-0.821c-0.132,-0.873 -0.336,-1.735 -0.542,-2.593a176.916,176.916 0 0 0 -0.835,-3.28c-0.454,-1.721 -0.916,-3.442 -1.37,-5.164l-0.931,-3.732l0.008,-7.349c-0.05,-3.854 -0.161,-7.708 -0.358,-11.558a188.114,188.114 0 0 0 -0.719,-9.637c-0.27,-2.618 -0.605,-5.232 -1.09,-7.818a54.318,54.318 0 0 0 -0.479,-2.295l-0.285,-1.107l0.56,-0.207l1.859,0.02l25,0z" id="svg_38" />
		<path class="body-area body-area-upper_arm" d="m52.106,54.546l0.8,3.463c0.455,2.483 0.775,4.99 1.034,7.5c0.29,2.813 0.496,5.633 0.655,8.456c0.182,3.249 0.3,6.502 0.367,9.755l0.043,7.438l-0.166,0.541c-0.424,1.285 -0.922,2.556 -1.584,3.738c-0.161,0.288 -0.332,0.571 -0.518,0.844c-0.134,0.199 -0.278,0.389 -0.415,0.585c-0.081,0.118 -0.159,0.237 -0.237,0.357c-0.396,0.631 -0.75,1.289 -1.083,1.955a49.457,49.457 0 0 0 -1.072,2.299a85.585,85.585 0 0 0 -2.333,5.954l-0.511,1.556c-2.179,-1.872 -4.877,-3.051 -7.642,-3.768a27.838,27.838 0 0 0 -1.507,-0.346a31.1,31.1 0 0 0 -1.739,-0.298a34.913,34.913 0 0 0 -2.393,-0.258l-2.143,-0.083l0.637,-0.76c0.249,-0.289 0.507,-0.57 0.758,-0.857c0.1,-0.119 0.199,-0.237 0.296,-0.359a7.79,7.79 0 0 0 0.68,-1.013c0.431,-0.771 0.734,-1.61 0.982,-2.456c0.255,-0.873 0.453,-1.764 0.624,-2.657c0.071,-0.373 0.135,-0.748 0.202,-1.121c0.054,-0.293 0.054,-0.293 0.11,-0.585c0.136,-0.67 0.285,-1.336 0.451,-1.999a51.859,51.859 0 0 1 1.245,-4.153c0.296,-0.865 0.611,-1.724 0.935,-2.578c0.247,-0.653 0.5,-1.303 0.746,-1.956c0.073,-0.196 0.145,-0.392 0.213,-0.589c0.065,-0.192 0.136,-0.388 0.17,-0.588c0.017,-0.099 0.019,-0.201 0.023,-0.3c0.011,-0.248 0.018,-0.497 0.023,-0.745c0.011,-0.616 0.013,-1.233 0.014,-1.85a466.82,466.82 0 0 0 -0.04,-6.034l-0.013,-1.069l-0.006,-0.419c0.009,-0.161 0.02,-0.321 0.032,-0.481c0.045,-0.513 0.113,-1.024 0.205,-1.531c0.443,-2.44 1.406,-4.77 2.608,-6.928c0.4,-0.717 0.829,-1.418 1.284,-2.101c0.454,-0.682 0.934,-1.347 1.441,-1.992c0.336,-0.428 0.681,-0.852 1.066,-1.237a11.019,11.019 0 0 1 1.561,-1.282a17.3,17.3 0 0 1 2.842,-1.548l1.355,-0.5zm68.087,0.79c1.293,0.531 2.522,1.236 3.683,2.033c0.422,0.289 0.834,0.589 1.237,0.902c0.323,0.25 0.644,0.503 0.949,0.774c0.369,0.329 0.715,0.682 1.038,1.056c1.385,1.602 2.343,3.538 3.039,5.526a29.89,29.89 0 0 1 1.179,4.554c0.311,1.71 0.503,3.442 0.595,5.177c0.05,0.924 0.072,1.85 0.06,2.777c-0.006,0.464 -0.022,0.93 -0.049,1.393c-0.025,0.414 -0.058,0.826 -0.114,1.236c-0.032,0.24 -0.087,0.475 -0.133,0.712a8.535,8.535 0 0 0 -0.125,2.162c0.027,0.358 0.077,0.715 0.16,1.065l0.01,0.034l0.549,1.341l0.483,1.212c0.487,1.244 0.969,2.491 1.385,3.761c0.139,0.424 0.272,0.852 0.379,1.285c0.067,0.271 0.135,0.552 0.124,0.833c0.053,0.343 0.109,0.685 0.167,1.027c0.5,2.875 1.178,5.776 2.56,8.368l0.03,0.05a24.757,24.757 0 0 0 -12.275,4.716l-1.235,1.043l-0.261,-0.869a82.558,82.558 0 0 0 -1.556,-4.227a74.576,74.576 0 0 0 -1.443,-3.398c-0.234,-0.508 -0.484,-1.009 -0.729,-1.511c-0.168,-0.35 -0.334,-0.701 -0.5,-1.052l-2.389,-5.278l0.022,-4.71c0.062,-3.465 0.18,-6.929 0.371,-10.389c0.157,-2.833 0.362,-5.663 0.642,-8.486c0.271,-2.732 0.612,-5.456 1.078,-8.162c0.272,-1.577 0.593,-3.149 0.995,-4.698l0.074,-0.257z" id="svg_37" />
		<path class="body-area body-area-elbow" d="m30.886,105.211l2.844,0.103c0.778,0.058 1.554,0.14 2.327,0.251c0.645,0.092 1.287,0.204 1.924,0.338c0.488,0.103 0.973,0.218 1.453,0.348c2.542,0.686 5.019,1.784 7.038,3.501l0.279,0.259l-0.103,0.314c-0.113,0.379 -0.221,0.761 -0.315,1.146c-0.055,0.226 -0.113,0.457 -0.135,0.689c-0.005,0.049 -0.002,0.096 -0.001,0.146c0.002,0.069 0.001,0.088 0,0.158a5.332,5.332 0 0 1 -0.012,0.251c-0.035,0.443 -0.107,0.881 -0.196,1.317c-0.09,0.441 -0.198,0.879 -0.319,1.313c-0.16,0.581 -0.344,1.155 -0.557,1.718c-0.182,0.483 -0.386,0.96 -0.632,1.415a6.405,6.405 0 0 1 -0.269,0.452c-0.083,0.127 -0.174,0.249 -0.259,0.375c-0.077,0.121 -0.154,0.244 -0.228,0.367c-0.275,0.462 -0.533,0.935 -0.785,1.409c-0.289,0.546 -0.57,1.095 -0.85,1.645l-0.065,0.132l-0.629,0.025a36.28,36.28 0 0 1 -1.582,-0.014c-3.483,-0.109 -6.994,-0.754 -10.157,-2.258c-0.474,-0.225 -0.939,-0.47 -1.393,-0.733a18.134,18.134 0 0 1 -1.742,-1.15a13.936,13.936 0 0 1 -2.148,-1.961l0.16,-0.58c0.052,-0.177 0.107,-0.354 0.163,-0.531c0.627,-1.903 1.532,-3.701 2.573,-5.409c1.077,-1.768 2.299,-3.439 3.616,-5.036zm107.086,-1.646l0.409,0.678c0.704,1.052 1.484,2.051 2.232,3.072c0.147,0.203 0.294,0.405 0.438,0.608c0.901,1.275 1.758,2.586 2.51,3.956c0.491,0.893 0.935,1.813 1.328,2.754l0.222,0.616a21.15,21.15 0 0 1 -3.629,2.71a23.012,23.012 0 0 1 -4.962,2.183c-1.969,0.606 -4.012,0.96 -6.067,1.087c-0.875,0.054 -1.753,0.067 -2.629,0.037l-0.41,-0.035l-0.833,-1.453a21.513,21.513 0 0 1 -0.273,-0.495a9.765,9.765 0 0 1 -0.423,-0.896a7.48,7.48 0 0 1 -0.346,-1.114a11.481,11.481 0 0 1 -0.251,-2.015c-0.016,-0.3 -0.019,-0.601 -0.029,-0.901a15.553,15.553 0 0 0 -0.025,-0.381c-0.098,-1.044 -0.325,-2.072 -0.587,-3.086l-0.438,-1.454l1.792,-1.508a23.825,23.825 0 0 1 8.566,-3.845a22.66,22.66 0 0 1 3.405,-0.518z" id="svg_36" />
		<path class="body-area body-area-lower_back" d="m111.026,117l0.219,1.891c0.12,0.695 0.261,1.385 0.401,2.076c0.113,0.558 0.224,1.116 0.334,1.674l0.197,1.029c0.119,0.638 0.236,1.276 0.341,1.916c0.064,0.383 0.125,0.768 0.167,1.154l0.006,0.076a396.211,396.211 0 0 0 0.126,3.429c0.08,1.765 0.174,3.528 0.304,5.288c0.086,1.164 0.183,2.328 0.329,3.487c0.086,0.689 0.19,1.376 0.297,2.062l0.146,0.903a42.432,42.432 0 0 0 -3.031,-0.538a103.65,103.65 0 0 0 -5.827,-0.668c-2.452,-0.22 -4.91,-0.381 -7.368,-0.507a243.623,243.623 0 0 0 -7.449,-0.268l-0.468,-0.008c-0.182,0.247 -0.361,0.495 -0.553,0.734a9.759,9.759 0 0 1 -0.759,0.836a6.346,6.346 0 0 1 -0.271,0.247c-0.54,0.465 -1.194,0.868 -1.921,0.925a2.264,2.264 0 0 1 -0.8,-0.085a2.781,2.781 0 0 1 -0.721,-0.334a4.25,4.25 0 0 1 -0.845,-0.721a6.527,6.527 0 0 1 -0.904,-1.266c-0.058,-0.11 -0.113,-0.222 -0.169,-0.332l-0.671,0.001l-0.363,0.001c-5.362,0.04 -10.718,0.405 -16.045,1.017c-2.912,0.335 -5.818,0.739 -8.71,1.259c0.396,-1.852 0.587,-3.736 0.762,-5.616c0.128,-1.436 0.246,-2.871 0.373,-4.307c0.171,-1.875 0.363,-3.748 0.634,-5.612c0.081,-0.566 0.17,-1.131 0.268,-1.695c0.096,-0.557 0.201,-1.113 0.296,-1.67a54.645,54.645 0 0 0 0.658,-5.616l-0.009,-0.762l51.026,0z" id="svg_35" />
		<path class="body-area body-area-forearm" d="m145.474,116.257c0.56,1.472 0.983,2.972 1.363,4.478c0.437,1.74 0.817,3.495 1.175,5.254c0.198,0.971 0.386,1.945 0.581,2.917c0.098,0.478 0.196,0.955 0.298,1.432c0.629,2.934 1.343,5.85 2.185,8.729a89.92,89.92 0 0 0 1.473,4.595c0.249,0.708 0.511,1.412 0.785,2.111l0.425,1.047l-0.645,0.555c-2.236,1.691 -4.781,2.991 -7.506,3.673l-1.567,0.264l-0.509,-1.631c-0.36,-0.967 -0.79,-1.907 -1.261,-2.824a42.561,42.561 0 0 0 -1.93,-3.347a71.976,71.976 0 0 0 -2.499,-3.676c-0.367,-0.506 -0.739,-1.009 -1.111,-1.511a60.424,60.424 0 0 1 -2.258,-3.318a62.962,62.962 0 0 1 -2.574,-4.501a87.302,87.302 0 0 1 -1.497,-3.039c-0.541,-1.152 -1.063,-2.315 -1.596,-3.471c-0.145,-0.309 -0.29,-0.618 -0.437,-0.926l-0.43,-0.833l2.768,-0.02a26.887,26.887 0 0 0 6.819,-1.347a23.567,23.567 0 0 0 5.786,-2.894a19.32,19.32 0 0 0 2.162,-1.717zm-121.41,1.632l1.188,1.113c0.693,0.571 1.428,1.09 2.196,1.555c0.501,0.303 1.016,0.584 1.543,0.843c3.407,1.674 7.216,2.377 10.99,2.474l1.533,0.005l-1.658,3.315c-0.236,0.467 -0.473,0.933 -0.712,1.397c-0.203,0.387 -0.402,0.775 -0.622,1.153a36.615,36.615 0 0 1 -1.331,2.086c-0.631,0.931 -1.282,1.848 -1.941,2.759a273.59,273.59 0 0 1 -4.519,6.031c-0.388,0.507 -0.777,1.011 -1.167,1.517c-0.289,0.374 -0.581,0.748 -0.866,1.125c-0.094,0.126 -0.187,0.255 -0.278,0.385c-0.576,0.833 -1.085,1.71 -1.578,2.594c-0.43,0.775 -0.844,1.558 -1.273,2.333c-0.142,0.255 -0.284,0.508 -0.438,0.755c-0.073,0.115 -0.154,0.225 -0.227,0.34a3.465,3.465 0 0 0 -0.1,0.18l-0.144,0.41l-2.783,-0.679c-1.732,-0.516 -3.428,-1.192 -4.986,-2.113a12.273,12.273 0 0 1 -1.807,-1.279l0.374,-0.712c1.658,-3.342 3.009,-6.836 4.09,-10.406c0.29,-0.959 0.561,-1.924 0.807,-2.896c0.18,-0.706 0.344,-1.418 0.517,-2.127c0.125,-0.508 0.251,-1.017 0.378,-1.524a513.151,513.151 0 0 1 2.068,-7.934l0.746,-2.7z" id="svg_34" />
		<path class="body-area body-area-buttocks" d="m52.533,164.288l0.536,-2.874c0.124,-0.58 0.254,-1.158 0.388,-1.736c0.103,-0.437 0.209,-0.874 0.309,-1.311c0.078,-0.344 0.155,-0.689 0.229,-1.033c0.238,-1.11 0.456,-2.224 0.665,-3.339c0.311,-1.668 0.603,-3.339 0.911,-5.007a99.04,99.04 0 0 1 0.771,-3.815l0.453,-1.846l1.958,-0.349a170.9,170.9 0 0 1 7.089,-0.966c3.188,-0.366 6.386,-0.644 9.59,-0.816a130.75,130.75 0 0 1 6.773,-0.196l0.002,0.005a8.118,8.118 0 0 0 0.668,0.96c0.672,0.821 1.561,1.536 2.63,1.728c0.178,0.032 0.358,0.05 0.538,0.051c0.29,0.003 0.579,-0.034 0.859,-0.106a4.148,4.148 0 0 0 1.098,-0.469c0.823,-0.493 1.49,-1.201 2.082,-1.947c0.084,-0.108 0.084,-0.107 0.167,-0.217c2.457,0.05 4.913,0.14 7.367,0.265c2.446,0.126 4.89,0.286 7.33,0.505c1.845,0.165 3.689,0.363 5.523,0.625c1.201,0.172 2.4,0.369 3.597,0.652l0.068,0.417c0.389,2.346 0.801,4.687 1.215,7.027c0.756,4.258 1.523,8.515 2.279,12.772l0.121,0.706l-1.551,2.939a17.471,17.471 0 0 1 -2.288,2.841a17.094,17.094 0 0 1 -2.042,1.748a17.8,17.8 0 0 1 -1.702,1.097c-0.431,0.245 -0.872,0.472 -1.321,0.682c-2.976,1.391 -6.259,2.013 -9.524,2.175c-0.607,0.03 -1.214,0.044 -1.821,0.044c-0.783,0 -1.567,-0.033 -2.347,-0.11a18.363,18.363 0 0 1 -1.808,-0.267a14.585,14.585 0 0 1 -1.542,-0.396l-0.147,-0.057c0.548,-1.152 0.816,-2.43 0.842,-3.71c0.031,-1.529 -0.28,-3.071 -0.954,-4.447c-0.682,-1.391 -1.748,-2.621 -3.13,-3.346a5.756,5.756 0 0 0 -2.841,-0.664a5.785,5.785 0 0 0 -2.487,0.664c-1.382,0.725 -2.448,1.956 -3.13,3.346c-0.659,1.344 -0.971,2.848 -0.955,4.342a9.697,9.697 0 0 0 0.91,4.036l-0.716,0.34c-1.353,0.558 -2.787,0.901 -4.237,1.088a22.967,22.967 0 0 1 -4.374,0.133a20.045,20.045 0 0 1 -3.232,-0.485a20,20 0 0 1 -3.649,-1.243a21.732,21.732 0 0 1 -3.453,-1.967c-1.955,-1.36 -3.696,-3.017 -5.21,-4.853a29.127,29.127 0 0 1 -1.65,-2.208l-0.857,-1.408z" id="svg_33" />
		<path class="body-area body-area-anus" d="m84.725,177.882l-0.653,-0.197c-1.39,-0.537 -2.468,-1.683 -3.143,-2.989c-0.642,-1.241 -0.943,-2.647 -0.928,-4.041c0.014,-1.386 0.341,-2.777 1.006,-3.998c0.666,-1.222 1.692,-2.289 2.999,-2.816c0.198,-0.079 0.401,-0.146 0.608,-0.199a4.762,4.762 0 0 1 1.354,-0.137c0.334,0.019 0.664,0.068 0.987,0.155c0.206,0.056 0.408,0.126 0.605,0.209c1.276,0.535 2.278,1.587 2.933,2.788c0.65,1.193 0.977,2.549 1.005,3.903c0.029,1.398 -0.259,2.81 -0.889,4.062c-0.61,1.211 -1.558,2.289 -2.788,2.891a4.769,4.769 0 0 1 -1.213,0.406l-0.217,0.019l0.007,-0.387l0.005,-0.051c-0.097,-2.544 -0.204,-5.089 -0.317,-7.632a16.563,16.563 0 0 1 -0.201,-0.848a5.04,5.04 0 0 1 -0.028,0.131l-0.026,0.113c-0.006,0.293 -0.007,0.311 -0.017,0.637a44.287,44.287 0 0 1 -0.172,2.601a39.213,39.213 0 0 1 -0.822,5.027l-0.095,0.353z" id="svg_32" />
		<path class="body-area body-area-hand" d="m154.137,147.795l0.029,0.073c0.113,0.305 0.224,0.611 0.335,0.918c0.361,1.008 0.712,2.019 1.073,3.027c0.069,0.191 0.137,0.382 0.211,0.571c0.04,0.105 0.079,0.21 0.128,0.311c0.143,0.292 0.331,0.563 0.551,0.802c0.14,0.152 0.292,0.29 0.449,0.424c0.158,0.129 0.322,0.252 0.482,0.38c0.541,0.443 1.062,0.91 1.582,1.377a98.368,98.368 0 0 1 1.939,1.774l0.081,0.077l0.019,0.025c0.054,0.055 0.107,0.11 0.162,0.164c0.206,0.202 0.414,0.403 0.617,0.608c0.323,0.327 0.636,0.663 0.903,1.038c0.186,0.26 0.351,0.541 0.459,0.843c0.046,0.131 0.082,0.266 0.104,0.403c0.012,0.081 0.016,0.164 0.03,0.246c0.009,0.046 0.021,0.092 0.033,0.138c0.067,0.233 0.16,0.459 0.262,0.68c0.101,0.22 0.212,0.436 0.328,0.648c0.317,0.584 0.669,1.149 1.037,1.702l0.056,0.083c0.08,0.091 0.159,0.183 0.235,0.276c0.056,0.071 0.111,0.142 0.164,0.214a4.682,4.682 0 0 1 0.33,0.516c0.032,0.057 0.06,0.116 0.087,0.175c0.16,0.354 0.254,0.782 0.096,1.154a0.877,0.877 0 0 1 -0.276,0.372a0.888,0.888 0 0 1 -0.163,0.097a2.534,2.534 0 0 1 -0.83,0.238a2.556,2.556 0 0 1 -0.799,-0.044a3.45,3.45 0 0 1 -1.211,-0.545c-0.514,-0.351 -0.956,-0.801 -1.346,-1.285a7.565,7.565 0 0 1 -0.594,-0.839l-0.151,-0.169l0.313,1.478c0.123,0.522 0.26,1.042 0.39,1.564l0.191,0.806c0.181,0.787 0.353,1.574 0.513,2.365a86.453,86.453 0 0 1 0.754,4.348a33.325,33.325 0 0 1 0.175,1.377c0.017,0.163 0.033,0.325 0.044,0.488c0.009,0.117 0.013,0.233 0.011,0.35c0,0.084 -0.004,0.168 -0.01,0.253c-0.043,0.533 -0.223,1.102 -0.662,1.441c-0.057,0.044 -0.12,0.082 -0.185,0.116l-0.02,0.009c-0.025,0.008 -0.047,0.019 -0.072,0.026a1.32,1.32 0 0 1 -0.536,-0.004c-0.497,-0.111 -0.88,-0.491 -1.168,-0.891a5.322,5.322 0 0 1 -0.437,-0.731a8.646,8.646 0 0 1 -0.258,-0.552a13.134,13.134 0 0 1 -0.293,-0.742a20.106,20.106 0 0 1 -0.31,-0.926l-0.019,-0.059c0.102,1.055 0.205,2.111 0.327,3.163c0.063,0.546 0.138,1.09 0.205,1.634l0.046,0.448c0.017,0.222 0.032,0.444 0.038,0.667a7.376,7.376 0 0 1 -0.04,1.068a5.552,5.552 0 0 1 -0.053,0.339a3.712,3.712 0 0 1 -0.069,0.295c-0.122,0.441 -0.349,0.916 -0.78,1.127l-0.027,0.012c-0.037,0.01 -0.072,0.024 -0.109,0.031c-0.095,0.016 -0.198,0.003 -0.293,-0.007a2.424,2.424 0 0 1 -0.96,-0.311c-0.699,-0.406 -1.143,-1.151 -1.324,-1.923c-0.025,-0.123 -0.039,-0.249 -0.057,-0.373a136.58,136.58 0 0 0 -0.185,-1.199c-0.343,-2.113 -0.738,-4.221 -1.323,-6.282l-0.027,-0.091l0.26,7.879l-0.005,-0.02a8.4,8.4 0 0 1 0.187,1.129c0.035,0.381 0.044,0.773 -0.021,1.152a1.887,1.887 0 0 1 -0.297,0.774a1.188,1.188 0 0 1 -0.491,0.408c-0.116,0.051 -0.24,0.083 -0.363,0.111c-0.431,0.096 -0.89,0.075 -1.282,-0.146c-0.374,-0.209 -0.635,-0.564 -0.814,-0.946c-0.27,-0.572 -0.378,-1.2 -0.471,-1.821a73.294,73.294 0 0 1 -0.23,-1.74a321.062,321.062 0 0 1 -0.685,-6.193l-0.045,-0.44a50.106,50.106 0 0 0 -0.387,2.031c-0.124,0.716 -0.24,1.435 -0.319,2.157c-0.026,0.236 -0.039,0.473 -0.057,0.711c-0.012,0.141 -0.012,0.14 -0.028,0.281a8.74,8.74 0 0 1 -0.44,1.951c-0.06,0.164 -0.13,0.324 -0.21,0.478c-0.095,0.18 -0.207,0.354 -0.349,0.5a1.215,1.215 0 0 1 -0.301,0.233c-0.326,0.173 -0.727,0.144 -1.058,0.005a1.82,1.82 0 0 1 -0.519,-0.333a2.133,2.133 0 0 1 -0.648,-1.087c-0.078,-0.337 -0.037,-0.684 -0.008,-1.024c0.042,-0.491 0.096,-0.981 0.151,-1.47c0.15,-1.315 0.317,-2.629 0.514,-3.937c0.034,-0.222 0.068,-0.444 0.104,-0.665c0.039,-0.235 0.082,-0.47 0.119,-0.705l0.039,-0.288c0.036,-0.329 0.064,-0.66 0.04,-0.991a1.929,1.929 0 0 0 -0.032,-0.252a0.585,0.585 0 0 0 -0.038,-0.136l0.011,0.018l-0.053,-0.108c-0.042,-0.122 -0.081,-0.244 -0.121,-0.367a25.7,25.7 0 0 1 -0.69,-2.965a58.57,58.57 0 0 1 -0.463,-3.062a112.91,112.91 0 0 1 -0.687,-7.573a109.98,109.98 0 0 1 -0.1,-1.986c-0.016,-0.387 -0.024,-0.774 -0.045,-1.16a13.042,13.042 0 0 0 -0.029,-0.394l-0.219,-1.256l1.294,-0.244c2.889,-0.675 5.596,-2.012 7.974,-3.775l0.61,-0.52zm-145.589,35.187l-0.437,0c-0.463,-0.052 -0.913,-0.268 -1.191,-0.649a1.41,1.41 0 0 1 -0.228,-0.49c-0.03,-0.128 -0.04,-0.26 -0.031,-0.391c0.003,-0.054 0.01,-0.093 0.017,-0.146c0.032,-0.204 0.067,-0.407 0.103,-0.61c0.261,-1.46 0.536,-2.918 0.81,-4.376l0.268,-2.363l-0.02,0.048c-0.321,0.653 -0.646,1.305 -0.98,1.951c-0.169,0.326 -0.339,0.651 -0.519,0.97a7.061,7.061 0 0 1 -0.178,0.303a1.34,1.34 0 0 1 -0.233,0.301c-0.03,0.027 -0.067,0.05 -0.101,0.073a3.085,3.085 0 0 1 -0.206,0.128c-0.33,0.187 -0.727,0.31 -1.103,0.189a0.968,0.968 0 0 1 -0.414,-0.267a1.174,1.174 0 0 1 -0.191,-0.283a1.611,1.611 0 0 1 -0.147,-0.491c-0.042,-0.32 -0.014,-0.652 0.019,-0.973c0.05,-0.498 0.13,-0.994 0.217,-1.488a71.4,71.4 0 0 1 0.523,-2.58l0.148,-0.681c0.018,-0.079 0.05,-0.233 0.069,-0.332c0.013,-0.068 0.025,-0.135 0.041,-0.203c0.018,-0.07 0.019,-0.069 0.038,-0.138c0.054,-0.167 0.117,-0.332 0.182,-0.495c0.139,-0.34 0.281,-0.678 0.419,-1.019c0.301,-0.755 0.568,-1.522 0.79,-2.305c0.147,-0.521 0.155,-1.494 0.007,-1.352c-0.374,0.358 -0.775,0.703 -1.225,0.964c-0.304,0.176 -0.635,0.309 -0.99,0.325a1.695,1.695 0 0 1 -0.363,-0.021c-0.627,-0.107 -1.124,-0.573 -1.412,-1.12a2.285,2.285 0 0 1 -0.102,-0.219a1.484,1.484 0 0 1 -0.128,-0.548c0,-0.087 0.011,-0.184 0.048,-0.265c0.011,-0.025 0.021,-0.053 0.037,-0.076c0.058,-0.086 0.126,-0.16 0.193,-0.24c0.14,-0.174 0.278,-0.348 0.415,-0.525c0.351,-0.458 0.694,-0.923 1.007,-1.408c0.115,-0.177 0.226,-0.356 0.327,-0.542c0.067,-0.123 0.133,-0.248 0.176,-0.381c0.018,-0.057 0.023,-0.118 0.035,-0.179c0.014,-0.059 0.014,-0.058 0.03,-0.116c0.114,-0.336 0.323,-0.621 0.536,-0.901c0.188,-0.238 0.38,-0.472 0.568,-0.711c0.288,-0.372 0.561,-0.756 0.776,-1.177c0.065,-0.128 0.124,-0.26 0.177,-0.395c0.03,-0.075 0.055,-0.153 0.087,-0.227a1.92,1.92 0 0 1 0.065,-0.128c0.19,-0.321 0.454,-0.593 0.719,-0.853c0.363,-0.352 0.747,-0.683 1.139,-1.001c0.611,-0.5 1.239,-0.98 1.875,-1.446c0.495,-0.363 0.995,-0.721 1.505,-1.061l0.075,-0.048c0.133,-0.248 0.251,-0.503 0.37,-0.758c0.155,-0.329 0.306,-0.661 0.456,-0.993c0.415,-0.915 0.821,-1.833 1.223,-2.752c0.066,-0.131 0.143,-0.254 0.214,-0.382l0.187,-0.332l0.362,-0.691a14.85,14.85 0 0 0 1.639,1.137c1.597,0.965 3.339,1.68 5.12,2.225l2.991,0.748l-0.229,1.213c-0.156,1.125 -0.217,2.263 -0.239,3.398c-0.008,0.392 -0.008,0.785 -0.012,1.178c-0.004,0.214 -0.004,0.213 -0.01,0.426c-0.074,1.735 -0.346,3.453 -0.706,5.149a48.463,48.463 0 0 1 -1.127,4.326l-0.026,0.078c-0.298,0.796 -0.596,1.591 -0.896,2.385c-0.082,0.22 -0.223,0.546 -0.306,0.821c-0.013,0.045 -0.022,0.091 -0.031,0.137c-0.064,0.367 -0.069,0.741 -0.072,1.112c-0.004,0.392 0,0.784 -0.002,1.177c-0.002,0.157 -0.005,0.314 -0.01,0.47l-0.014,0.326c-0.002,0.119 -0.002,0.119 -0.002,0.239c0.011,0.645 0.065,1.288 0.121,1.93c0.055,0.646 0.117,1.291 0.174,1.936l0.048,0.633c0.011,0.198 0.021,0.394 0.018,0.591a6.885,6.885 0 0 1 -0.272,1.764a3.597,3.597 0 0 1 -0.249,0.637c-0.08,0.152 -0.174,0.298 -0.293,0.421a1.129,1.129 0 0 1 -0.525,0.304c-0.571,0.15 -1.184,-0.096 -1.57,-0.524a2.101,2.101 0 0 1 -0.462,-0.884a3.039,3.039 0 0 1 -0.08,-0.454c-0.016,-0.197 -0.023,-0.395 -0.038,-0.593c-0.078,-1.002 -0.216,-2 -0.328,-2.998c-0.017,-0.17 -0.035,-0.338 -0.049,-0.508c-0.01,-0.138 -0.02,-0.276 -0.022,-0.414c-0.001,-0.093 0.006,-0.186 0.008,-0.279a5.09,5.09 0 0 0 -0.009,-0.248a29.03,29.03 0 0 0 -0.223,-2.123c-0.1,0.785 -0.202,1.569 -0.307,2.354c-0.048,0.355 -0.097,0.709 -0.149,1.063a9.696,9.696 0 0 1 -0.05,0.305c-0.016,0.073 -0.033,0.147 -0.047,0.221c-0.039,0.211 -0.074,0.422 -0.11,0.632c-0.183,1.107 -0.361,2.214 -0.548,3.321c-0.061,0.352 -0.123,0.705 -0.188,1.058a6.266,6.266 0 0 1 -0.213,0.851c-0.212,0.613 -0.563,1.2 -1.083,1.601c-0.07,0.054 -0.142,0.104 -0.218,0.15c-0.455,0.278 -1.043,0.425 -1.548,0.199a1.25,1.25 0 0 1 -0.265,-0.159a1.485,1.485 0 0 1 -0.304,-0.324a1.765,1.765 0 0 1 -0.228,-0.473l-0.005,-0.018c-0.017,-0.098 -0.017,-0.098 -0.015,-0.198l0.398,-3.335c0.027,-0.755 0.043,-1.512 0.072,-2.266c0.007,-0.148 0.017,-0.294 0.027,-0.441c0.07,-0.855 0.222,-1.698 0.343,-2.546c0.03,-0.233 0.059,-0.465 0.086,-0.699c0.066,-0.594 0.121,-1.189 0.166,-1.784l-0.01,0.019c-0.026,0.054 -0.037,0.078 -0.066,0.132c-0.021,0.042 -0.048,0.083 -0.066,0.127c-0.026,0.065 -0.046,0.131 -0.067,0.198c-0.137,0.449 -0.25,0.906 -0.365,1.363c-0.136,0.549 -0.268,1.1 -0.4,1.651c-0.318,1.34 -0.627,2.681 -0.949,4.021c-0.054,0.224 -0.11,0.449 -0.166,0.674c-0.065,0.246 -0.129,0.49 -0.226,0.726c-0.051,0.126 -0.111,0.25 -0.176,0.369c-0.29,0.532 -0.727,1.025 -1.304,1.247l-0.39,0.101z" id="svg_31" />
		<path class="body-area body-area-thigh" d="m52.254,165.782l0.059,0.1c0.6,0.923 1.256,1.809 1.956,2.658c1.517,1.84 3.255,3.506 5.2,4.89c1.979,1.408 4.173,2.513 6.504,3.205c1.17,0.347 2.371,0.591 3.584,0.728a22.3,22.3 0 0 0 2.991,0.131a23.93,23.93 0 0 0 2.056,-0.127c1.762,-0.187 3.511,-0.586 5.143,-1.283l0.641,-0.346c0.647,1.07 1.566,2.002 2.698,2.595c0.228,0.12 0.465,0.226 0.707,0.315l0.677,0.189l-0.298,1.117c-0.174,0.578 -0.37,1.148 -0.552,1.724c-0.019,0.064 -0.04,0.127 -0.053,0.191c-0.025,0.142 -0.043,0.286 -0.065,0.428c-0.039,0.228 -0.039,0.228 -0.082,0.455a45.5,45.5 0 0 1 -0.876,3.587a111.378,111.378 0 0 1 -1.188,3.923c-0.466,1.45 -0.954,2.894 -1.458,4.332a156.975,156.975 0 0 1 -1.478,4.055c-0.172,0.454 -0.346,0.906 -0.526,1.356c-0.078,0.196 -0.158,0.391 -0.235,0.587c-0.089,0.234 -0.089,0.234 -0.176,0.469a73.85,73.85 0 0 0 -0.976,2.964c-0.31,1.006 -0.608,2.015 -0.901,3.025a332.594,332.594 0 0 0 -2.301,8.38a262.942,262.942 0 0 0 -1.441,5.722a95.884,95.884 0 0 0 -0.448,1.963c-0.104,0.482 -0.208,0.966 -0.279,1.454c-0.026,0.18 -0.034,0.361 -0.054,0.541c-0.017,0.137 -0.034,0.274 -0.054,0.409a38.327,38.327 0 0 1 -0.603,3.058a50.864,50.864 0 0 1 -1.013,3.736l-0.306,0.852l-1.327,-0.151c-4.43,-0.599 -8.826,-1.487 -13.124,-2.717a74.558,74.558 0 0 1 -4.703,-1.51l-0.058,-0.024l0.593,-3.85l0.436,-3.049c0.101,-0.71 0.21,-1.419 0.307,-2.13c0.151,-1.175 0.238,-2.356 0.286,-3.54c0.039,-0.978 0.053,-1.958 0.048,-2.937a68.332,68.332 0 0 0 -0.297,-6.154c-0.058,-0.602 -0.132,-1.199 -0.206,-1.798c-0.026,-0.231 -0.026,-0.231 -0.049,-0.463c-0.1,-1.086 -0.16,-2.176 -0.211,-3.265a203.282,203.282 0 0 1 -0.117,-3.025a492.27,492.27 0 0 1 -0.194,-9.011a534.943,534.943 0 0 1 -0.052,-7.277c0.001,-0.674 0.003,-1.349 0.009,-2.022c0.005,-0.5 0.008,-0.999 0.027,-1.498c0.026,-0.704 0.077,-1.407 0.14,-2.109a77.47,77.47 0 0 1 0.343,-3.079c0.161,-1.247 0.345,-2.491 0.543,-3.732l0.753,-4.042zm65.792,-0.086l0.37,2.151c0.031,0.198 0.061,0.397 0.09,0.595c0.237,1.753 0.322,3.524 0.331,5.291a84.82,84.82 0 0 1 -0.18,5.615c-0.31,4.981 -0.906,9.939 -1.435,14.9c-0.09,0.859 -0.179,1.719 -0.266,2.579c-0.632,6.283 -1.171,12.577 -1.469,18.886a224,224 0 0 0 -0.163,4.336c-0.019,0.707 -0.038,1.416 -0.043,2.125c-0.006,0.74 0.003,1.48 0.028,2.22a37.32,37.32 0 0 0 0.43,4.694a128.54,128.54 0 0 1 -12.283,2.892c-2.168,0.398 -4.347,0.739 -6.549,1.002a41.558,41.558 0 0 1 -1.362,-4.469a29.697,29.697 0 0 1 -0.481,-2.475c-0.064,-0.429 -0.114,-0.859 -0.167,-1.288a307.478,307.478 0 0 0 -0.382,-2.939c-0.47,-3.446 -0.981,-6.887 -1.566,-10.315a163.854,163.854 0 0 0 -0.849,-4.611a66.852,66.852 0 0 0 -0.873,-3.854a29.142,29.142 0 0 0 -0.271,-0.973c-0.115,-0.385 -0.241,-0.767 -0.357,-1.152a83.522,83.522 0 0 1 -0.25,-0.854a137.288,137.288 0 0 1 -1.39,-5.37a235.819,235.819 0 0 1 -1.881,-8.521a88.085,88.085 0 0 1 -0.256,-1.342c-0.075,-0.413 -0.152,-0.828 -0.196,-1.246c-0.041,-0.542 -0.089,-1.083 -0.13,-1.625a54.828,54.828 0 0 1 -0.133,-2.563l0.008,-0.448l0.593,-0.07a5.79,5.79 0 0 0 1.45,-0.534c1.188,-0.623 2.142,-1.619 2.798,-2.772a12.87,12.87 0 0 0 2.134,0.581c0.346,0.065 0.694,0.12 1.043,0.166c0.452,0.06 0.907,0.104 1.362,0.135a27.95,27.95 0 0 0 2.067,0.056a38.232,38.232 0 0 0 1.552,-0.044c3.47,-0.172 6.958,-0.852 10.104,-2.366c0.468,-0.225 0.927,-0.468 1.375,-0.729a18.725,18.725 0 0 0 1.776,-1.173a18.042,18.042 0 0 0 2.133,-1.869a18.432,18.432 0 0 0 2.381,-3.021l0.907,-1.601z" id="svg_30" />
		<path class="body-area body-area-lower_leg" d="m121,297l-9.5,0l-0.496,-2.036a53.637,53.637 0 0 0 -0.624,-3.72a83.262,83.262 0 0 0 -0.897,-3.975l-0.029,-0.114l-0.005,-0.027a67.105,67.105 0 0 0 -0.264,-0.977a98.078,98.078 0 0 0 -1.874,-5.869a158.202,158.202 0 0 0 -2.15,-5.738c-0.304,-0.771 -0.614,-1.539 -0.93,-2.306c-0.232,-0.566 -0.474,-1.127 -0.703,-1.694c-0.08,-0.203 -0.159,-0.407 -0.235,-0.613c-1.084,-2.93 -1.735,-6.01 -2.093,-9.111a43.97,43.97 0 0 1 -0.259,-3.264a21.078,21.078 0 0 1 -0.001,-2.177c0.024,-0.324 0.053,-0.647 0.077,-0.971c0.191,-2.729 0.201,-5.477 -0.087,-8.2c-0.231,-2.182 -0.654,-4.357 -1.429,-6.415c-0.433,-1.121 -0.876,-2.238 -1.312,-3.359l-0.925,-2.49c2.157,-0.261 4.27,-0.594 6.373,-0.98a128.683,128.683 0 0 0 12.243,-2.879l0.083,0.588a39.117,39.117 0 0 0 1.711,6.26a64.65,64.65 0 0 0 1.21,3.056c0.291,0.692 0.593,1.379 0.884,2.072c0.055,0.133 0.108,0.268 0.16,0.403c0.344,0.922 0.619,1.866 0.865,2.818c0.264,1.021 0.493,2.051 0.701,3.085c0.5,2.482 0.889,4.988 1.196,7.5c0.24,1.961 0.43,3.929 0.538,5.903c0.044,0.84 0.075,1.682 0.076,2.523a21.68,21.68 0 0 1 -0.088,2.207c-0.02,0.212 -0.046,0.424 -0.079,0.635c-0.036,0.222 -0.081,0.444 -0.12,0.667c-0.037,0.228 -0.073,0.457 -0.107,0.687c-0.306,2.105 -0.508,4.225 -0.703,6.343l-0.056,0.19l-0.039,0.052c0.05,0.054 0.089,0.118 0.113,0.187c0.026,0.081 0.021,0.104 0.025,0.186c-0.047,0.931 -0.095,1.863 -0.144,2.793c-0.213,3.966 -0.445,7.93 -0.666,11.896c-0.054,0.978 -0.107,1.958 -0.157,2.937a167,167 0 0 0 -0.08,1.731c-0.024,0.636 -0.036,1.27 -0.005,1.905l-0.198,0.291zm-68,0l-10.5,0l-0.137,-0.556c0.032,-0.539 0.053,-1.079 0.05,-1.619l0.002,-0.021l-0.002,-0.008l0.056,-1.134c0.147,-3.551 0.177,-7.107 0.131,-10.661a261.319,261.319 0 0 0 -0.354,-10.586c-0.079,-1.495 -0.171,-2.99 -0.275,-4.484c-0.049,-0.699 -0.104,-1.398 -0.152,-2.096c-0.023,-0.36 -0.023,-0.36 -0.043,-0.721a48.728,48.728 0 0 1 -0.037,-3.586c0.097,-3.448 0.554,-6.882 1.263,-10.256a76.97,76.97 0 0 1 2.993,-10.409a81.796,81.796 0 0 1 2.462,-6.036c0.123,-0.272 0.254,-0.544 0.373,-0.819c0.027,-0.065 0.049,-0.13 0.073,-0.195c0.166,-0.512 0.281,-1.04 0.39,-1.567c0.146,-0.708 0.273,-1.42 0.394,-2.133l0.058,-0.375l3.39,1.153c4.428,1.344 8.969,2.315 13.547,2.979l2.08,0.255l-0.202,0.561c-0.252,0.601 -0.53,1.203 -0.898,1.745a3.862,3.862 0 0 1 -0.28,0.37c-0.09,0.104 -0.19,0.199 -0.28,0.304a4.522,4.522 0 0 0 -0.136,0.174a7.03,7.03 0 0 0 -0.681,1.223a16.98,16.98 0 0 0 -0.617,1.597c-0.26,0.769 -0.482,1.549 -0.683,2.335c-0.198,0.77 -0.373,1.546 -0.529,2.326c-0.03,0.157 0.014,0.319 0.022,0.477c0.017,0.348 0.032,0.697 0.047,1.045c0.176,4.601 0.131,9.22 -0.379,13.8c-0.374,3.366 -0.997,6.722 -2.057,9.942a33.286,33.286 0 0 1 -2.294,5.369c-0.222,0.419 -0.451,0.834 -0.673,1.254c-0.07,0.135 -0.138,0.271 -0.205,0.407a55.21,55.21 0 0 0 -0.792,1.85a97.47,97.47 0 0 0 -1.122,2.88c-0.948,2.552 -1.802,5.139 -2.498,7.771l-0.057,0.134l-0.054,0.067a0.495,0.495 0 0 1 0.013,0.115c0,0.068 -0.007,0.084 -0.022,0.15c-0.092,0.297 -0.185,0.593 -0.275,0.89c-0.395,1.331 -0.733,2.68 -0.938,4.055c-0.127,0.844 -0.212,1.202 -0.172,2.034z" id="svg_29" />
		<path class="body-area body-area-foot" d="m121.5,298l-0.014,1.054c0.14,0.694 0.321,1.378 0.544,2.049c0.083,0.253 0.171,0.504 0.265,0.753c0.064,0.172 0.129,0.345 0.201,0.515c0.068,0.16 0.143,0.317 0.218,0.473c0.178,0.358 0.368,0.709 0.546,1.065c0.144,0.296 0.281,0.596 0.391,0.906c0.138,0.39 0.234,0.794 0.277,1.207c0.024,0.237 0.034,0.475 0.016,0.713c-0.033,0.448 -0.14,0.89 -0.269,1.32c-0.168,0.561 -0.369,1.112 -0.549,1.668c-0.046,0.146 -0.091,0.292 -0.134,0.439c-0.08,0.289 -0.15,0.581 -0.183,0.88c-0.025,0.241 -0.026,0.486 0.033,0.723c0.053,0.199 0.109,0.398 0.161,0.597c0.173,0.677 0.323,1.361 0.375,2.058a6.396,6.396 0 0 1 -0.256,2.392a7.687,7.687 0 0 1 -0.192,0.553a3.685,3.685 0 0 1 -0.206,0.452c-0.144,0.255 -0.33,0.485 -0.541,0.685a4.287,4.287 0 0 1 -1.191,0.775c-0.57,0.26 -1.181,0.428 -1.797,0.541c-0.737,0.136 -1.491,0.193 -2.241,0.18a7.996,7.996 0 0 1 -1.457,-0.136a5.943,5.943 0 0 1 -2.165,-0.912a5.108,5.108 0 0 1 -1.068,-0.965a3.77,3.77 0 0 1 -0.765,-1.499a3.27,3.27 0 0 1 -0.083,-0.893c0.011,-0.195 0.042,-0.388 0.061,-0.582c0.01,-0.117 0.018,-0.234 0.025,-0.35c0.025,-0.487 0.029,-0.975 0.023,-1.463l-0.037,-0.004a5.658,5.658 0 0 1 -0.502,-0.086a4.624,4.624 0 0 1 -0.985,-0.338a4.614,4.614 0 0 1 -2.194,-2.246c-0.015,-0.034 -0.014,-0.034 -0.026,-0.068c-0.038,-0.135 -0.065,-0.273 -0.094,-0.411c-0.04,-0.197 -0.074,-0.395 -0.103,-0.594c-0.167,-1.164 -0.125,-2.404 0.393,-3.479c0.07,-0.146 0.149,-0.288 0.236,-0.424a3.93,3.93 0 0 1 1.891,-1.563c0.128,-0.05 0.263,-0.101 0.399,-0.127a10.38,10.38 0 0 1 -0.144,-1.041a6.696,6.696 0 0 1 0.138,-2.06c0.074,-0.312 0.173,-0.618 0.296,-0.915c0.06,-0.147 0.134,-0.287 0.195,-0.433c0.02,-0.052 0.038,-0.104 0.055,-0.157l0.457,-1.252l10,0zm-68.5,0l0.122,0.888c0.029,0.152 0.067,0.301 0.103,0.451c0.038,0.152 0.072,0.304 0.107,0.456c0.041,0.189 0.08,0.378 0.116,0.568c0.145,0.767 0.252,1.545 0.256,2.327c0.002,0.436 -0.02,0.886 -0.146,1.307a5.033,5.033 0 0 1 -0.072,0.193c-0.057,0.149 -0.112,0.299 -0.167,0.449c-0.078,0.219 -0.153,0.438 -0.226,0.659c0.291,0.074 0.581,0.158 0.871,0.238c0.355,0.108 0.69,0.269 0.997,0.479a3.797,3.797 0 0 1 1.051,1.086c0.094,0.148 0.178,0.302 0.251,0.461c0.524,1.137 0.498,2.448 0.267,3.654c-0.04,0.208 -0.085,0.417 -0.136,0.623l-0.044,0.15a3.938,3.938 0 0 1 -0.288,0.683a3.486,3.486 0 0 1 -1.257,1.336a3.491,3.491 0 0 1 -0.77,0.342a4.066,4.066 0 0 1 -0.458,0.11l0.01,0.117c0.038,0.481 0.009,0.969 -0.099,1.44a4.182,4.182 0 0 1 -0.802,1.666a3.313,3.313 0 0 1 -0.566,0.569a3.862,3.862 0 0 1 -0.826,0.467a7.958,7.958 0 0 1 -1.122,0.379c-0.593,0.157 -1.199,0.264 -1.807,0.34c-0.672,0.083 -1.349,0.125 -2.025,0.129a15.24,15.24 0 0 1 -2.757,-0.221a11.16,11.16 0 0 1 -0.659,-0.138a3.3,3.3 0 0 1 -0.402,-0.117a2.217,2.217 0 0 1 -0.709,-0.439c-0.369,-0.34 -0.628,-0.772 -0.817,-1.233c-0.252,-0.618 -0.385,-1.28 -0.469,-1.94a17.706,17.706 0 0 1 -0.12,-2.457c0.013,-1.105 0.093,-2.209 0.207,-3.308c0.074,-0.726 0.168,-1.451 0.246,-2.177c0.007,-0.073 0.014,-0.147 0.016,-0.22c-0.002,-0.139 -0.026,-0.276 -0.048,-0.413c-0.047,-0.26 -0.098,-0.52 -0.145,-0.78a8.96,8.96 0 0 1 -0.128,-1.201a6.22,6.22 0 0 1 0.536,-2.734c0.079,-0.177 0.17,-0.347 0.253,-0.522c0.039,-0.083 0.038,-0.083 0.075,-0.165c0.23,-0.55 0.393,-1.121 0.518,-1.703l0.563,-1.799l10.5,0z" id="svg_28" />
	</g>
</svg>
