<svg width="160" height="320" xmlns="http://www.w3.org/2000/svg">
 <!-- Generator: Sketch 64 (93537) - https://sketch.com -->
 <title>Group 109</title>
 <desc>Created with Sketch.</desc>
 <defs>
  <polygon points="0 0.9349 282.978906 0.9349 282.978906 32 0 32" id="path-1"/>
  <polygon points="0.761479052 0.008 2.76147905 0.008 2.76147905 19.8924167 0.761479052 19.8924167" id="path-3"/>
 </defs>
 <g>
  <title>background</title>
  <rect fill="none" id="canvas_background" height="316" width="152" y="-1" x="-1"/>
 </g>
 <g>
  <title>Layer 1</title>
  <g class="body-parts" id="svg_18">
   <g class="ng-hide" id="svg_19">
    <path class="body-area body-area-whole_head" d="m65.94167,45.441c-0.019,0.092 -0.109,0.28 -0.102,0.249l-0.02,0.025a0.596,0.596 0 0 1 -0.595,0.182c-0.232,-0.057 -0.423,-0.228 -0.588,-0.392a4.946,4.946 0 0 1 -0.398,-0.458a8.58,8.58 0 0 1 -0.489,-0.694a10.171,10.171 0 0 1 -0.306,-0.512l0.001,0.026a0.55,0.55 0 0 1 -0.109,0.352a0.518,0.518 0 0 1 -0.811,0.013a1.123,1.123 0 0 1 -0.166,-0.304c-0.071,-0.168 -0.132,-0.34 -0.193,-0.512a47.446,47.446 0 0 1 -0.555,-1.699a97.383,97.383 0 0 1 -0.94,-3.211a4.214,4.214 0 0 0 -0.047,0.793l0.003,0.035c0.005,0.05 0.026,0.102 0.04,0.152l0.007,0.032c0.011,0.061 0.01,0.06 0.013,0.122l0,0.003c-0.003,0.027 -0.003,0.055 -0.008,0.082a0.555,0.555 0 0 1 -0.055,0.154c-0.124,0.224 -0.404,0.321 -0.64,0.224a0.528,0.528 0 0 1 -0.139,-0.086c-0.021,-0.018 -0.038,-0.039 -0.058,-0.059l-0.001,-0.002c-0.014,-0.019 -0.029,-0.037 -0.041,-0.058a0.977,0.977 0 0 1 -0.113,-0.339a84.118,84.118 0 0 1 -1.862,-7.558a62.616,62.616 0 0 1 -0.713,-4.433a42.766,42.766 0 0 1 -0.323,-4.394a25.952,25.952 0 0 1 0.188,-3.78c0.091,-0.69 0.225,-1.374 0.384,-2.052a31.71,31.71 0 0 1 3.108,-8.054c0.331,-0.595 0.682,-1.178 1.058,-1.745c0.29,-0.438 0.594,-0.867 0.913,-1.283a17.214,17.214 0 0 1 1.47,-1.694c0.21,-0.211 0.424,-0.415 0.647,-0.611c1.116,-0.99 2.441,-1.828 3.925,-2.108c0.271,-0.052 0.545,-0.082 0.822,-0.095c0.1,-0.003 0.2,-0.004 0.301,-0.003a5.395,5.395 0 0 1 1.807,0.349l0.064,0.024a3.54,3.54 0 0 1 0.187,-0.142c0.383,-0.272 0.812,-0.48 1.243,-0.665a19.026,19.026 0 0 1 2.28,-0.792c0.244,-0.07 0.489,-0.137 0.735,-0.201c0.216,-0.057 0.434,-0.112 0.653,-0.154a8.094,8.094 0 0 1 1.212,-0.131c0.149,-0.003 0.149,-0.003 0.3,-0.003c0.395,0.007 0.787,0.036 1.179,0.097c1.005,0.152 1.979,0.477 2.899,0.905c1.233,0.575 2.376,1.333 3.434,2.183c0.366,0.294 0.722,0.601 1.068,0.918a21.416,21.416 0 0 1 1.826,1.876l0.044,0.051c0.092,0.081 0.091,0.081 0.182,0.163c0.105,0.099 0.105,0.098 0.208,0.198c0.309,0.306 0.601,0.627 0.871,0.968c0.814,1.027 1.439,2.192 1.931,3.404c0.769,1.896 1.221,3.912 1.512,5.933a45.14,45.14 0 0 1 0.41,4.912a65.096,65.096 0 0 1 -0.034,4.9c-0.147,3.394 -0.51,6.779 -1.032,10.134c-0.121,0.775 -0.252,1.546 -0.389,2.317l-0.012,0.12a0.925,0.925 0 0 1 -0.064,0.224l-0.031,0.055l-0.001,0.001c-0.018,0.023 -0.035,0.047 -0.055,0.069a0.512,0.512 0 0 1 -0.714,0.028c-0.058,-0.053 -0.065,-0.073 -0.107,-0.138l0,-0.001c-0.032,-0.074 -0.045,-0.093 -0.055,-0.173c-0.012,-0.1 0.009,-0.196 0.026,-0.293c0.001,-0.068 -0.005,-0.136 -0.01,-0.204l-0.004,-0.045c-0.035,0.182 -0.072,0.364 -0.109,0.545a40.948,40.948 0 0 1 -1.278,4.588a9.02,9.02 0 0 1 -0.114,0.313a2.297,2.297 0 0 1 -0.089,0.211c-0.016,0.034 -0.037,0.06 -0.058,0.092l-0.003,0.004c-0.053,0.059 -0.053,0.059 -0.115,0.109l-0.003,0.001c-0.062,0.037 -0.076,0.05 -0.146,0.07a0.511,0.511 0 0 1 -0.321,-0.014c-0.025,-0.009 -0.049,-0.022 -0.074,-0.034l-0.001,-0.001c-0.023,-0.016 -0.049,-0.031 -0.07,-0.049a0.503,0.503 0 0 1 -0.149,-0.204c-0.01,-0.027 -0.017,-0.054 -0.025,-0.082l-0.001,-0.003c-0.007,-0.056 -0.015,-0.107 -0.008,-0.163c0.009,-0.075 0.031,-0.147 0.042,-0.222c0.005,-0.049 0.008,-0.097 0.009,-0.146a3.993,3.993 0 0 0 -0.104,-0.85c-0.09,0.241 -0.19,0.477 -0.298,0.708c-0.098,0.206 -0.205,0.41 -0.325,0.604a3.032,3.032 0 0 1 -0.37,0.496c-0.226,0.245 -0.528,0.446 -0.875,0.428a0.794,0.794 0 0 1 -0.358,-0.103a0.957,0.957 0 0 1 -0.207,-0.155a1.36,1.36 0 0 1 -0.234,-0.318c-0.097,-0.179 -0.157,-0.372 -0.223,-0.565c-0.053,-0.156 -0.068,-0.196 -0.124,-0.353c-0.064,-0.176 -0.13,-0.351 -0.197,-0.526a34.482,34.482 0 0 0 -0.74,-1.735c-0.005,0.168 -0.717,-3.438 -0.694,-3.587a8.452,8.452 0 0 1 -0.678,0.5c-0.347,0.23 -0.706,0.443 -1.078,0.629c-0.564,0.282 -1.154,0.511 -1.752,0.707a20.371,20.371 0 0 1 -4.34,0.903a8.224,8.224 0 0 1 -0.888,0.043c-0.58,-0.007 -1.161,-0.08 -1.733,-0.173a19.434,19.434 0 0 1 -2.25,-0.501c-0.881,-0.252 -1.75,-0.565 -2.567,-0.981c-0.299,-0.152 -0.59,-0.319 -0.872,-0.497a8.886,8.886 0 0 1 -0.877,-0.626c0.107,0.684 -0.641,5.483 -0.639,5.179a15.01,15.01 0 0 0 -0.175,0.869c-0.038,0.23 -0.07,0.463 -0.086,0.696c-0.01,0.157 -0.015,0.316 0.002,0.473c0.008,0.065 0.022,0.13 0.034,0.194l0.004,0.03s0.006,0.21 -0.014,0.301z" id="svg_20"/>
   </g>
   <g id="svg_21">
    <path class="body-area body-area-head" d="m57.63567,17.549l-0.38,0.031l0.05,-0.271a31.737,31.737 0 0 1 3.108,-8.055c0.331,-0.595 0.682,-1.178 1.058,-1.745c0.29,-0.438 0.594,-0.867 0.913,-1.283c0.27,-0.351 0.551,-0.694 0.844,-1.026c0.203,-0.228 0.412,-0.451 0.626,-0.668c0.21,-0.21 0.424,-0.415 0.647,-0.611c1.116,-0.99 2.441,-1.827 3.925,-2.108c0.271,-0.052 0.545,-0.082 0.822,-0.095c0.1,-0.003 0.2,-0.004 0.301,-0.003a5.395,5.395 0 0 1 1.807,0.349l0.064,0.025a3.09,3.09 0 0 1 0.187,-0.143c0.383,-0.272 0.812,-0.48 1.243,-0.665a19.026,19.026 0 0 1 2.28,-0.792c0.244,-0.07 0.489,-0.137 0.735,-0.201c0.216,-0.057 0.434,-0.112 0.653,-0.154a8.094,8.094 0 0 1 1.212,-0.131c0.149,-0.003 0.149,-0.003 0.3,-0.003a8.8,8.8 0 0 1 1.179,0.097c1.005,0.152 1.979,0.477 2.899,0.905c1.233,0.575 2.376,1.333 3.434,2.183c0.366,0.294 0.722,0.601 1.068,0.918a21.416,21.416 0 0 1 1.826,1.876l0.044,0.052c0.092,0.08 0.091,0.08 0.182,0.162c0.105,0.099 0.105,0.098 0.208,0.198c0.309,0.306 0.601,0.627 0.871,0.968c0.814,1.027 1.439,2.193 1.931,3.404c0.769,1.896 1.221,3.912 1.512,5.933l0.074,0.892l-0.469,-0.039l-0.227,0a8.657,8.657 0 0 0 -1.115,0.092l-2.052,0.603l-1.443,-0.772a32.367,32.367 0 0 0 -4.333,-1.762a29.19,29.19 0 0 0 -5.479,-1.209a28.849,28.849 0 0 0 -3.891,-0.193c-1.04,0.025 -2.078,0.102 -3.109,0.239a28.46,28.46 0 0 0 -6.678,1.739a27.31,27.31 0 0 0 -2.316,1.043l-1.432,0.822l-1.737,-0.51l-1.116,-0.092l-0.226,0z" id="svg_22"/>
    <path class="body-area body-area-eyes" d="m69.12667,16.572c2.405,0 4.358,1.574 4.358,3.513c0,1.939 -1.953,3.514 -4.358,3.514c-2.406,0 -4.358,-1.575 -4.358,-3.514c0,-1.939 1.952,-3.513 4.358,-3.513zm12.358,0c2.489,0 4.51,1.558 4.51,3.476s-2.021,3.476 -4.51,3.476c-2.488,0 -4.509,-1.558 -4.509,-3.476s2.021,-3.476 4.509,-3.476z" id="svg_23"/>
    <path class="body-area body-area-ears" d="m92.67667,35.507l-0.1,0.009a7.172,7.172 0 0 1 -2.551,-0.509a7.59,7.59 0 0 1 -2.043,-1.225a8.241,8.241 0 0 1 -1.505,-1.659a8.811,8.811 0 0 1 -1.228,-2.658a9.252,9.252 0 0 1 0.367,-5.937a8.725,8.725 0 0 1 0.975,-1.748a8.225,8.225 0 0 1 1.244,-1.372a7.664,7.664 0 0 1 1.926,-1.239a7.181,7.181 0 0 1 3.113,-0.618l0.468,0.042l0.252,3.015a65.096,65.096 0 0 1 -0.034,4.9a84.266,84.266 0 0 1 -0.884,8.999zm-34.828,-16.958l0.978,0.081a7.186,7.186 0 0 1 1.836,0.539c0.7,0.312 1.35,0.734 1.926,1.239c0.49,0.43 0.926,0.92 1.301,1.452a8.783,8.783 0 0 1 1.257,2.639a9.26,9.26 0 0 1 -0.226,5.752a8.729,8.729 0 0 1 -1.031,1.953a8.188,8.188 0 0 1 -1.448,1.578a7.56,7.56 0 0 1 -2.132,1.259a5.97,5.97 0 0 1 -1.773,0.403a74.528,74.528 0 0 1 -0.767,-3.477a62.681,62.681 0 0 1 -0.713,-4.432a42.806,42.806 0 0 1 -0.323,-4.395a25.952,25.952 0 0 1 0.188,-3.78l0.143,-0.763l0.584,-0.048l0.2,0z" id="svg_24"/>
    <path class="body-area body-area-nose" d="m75.29767,20.048c1.557,-0.021 1.971,1.877 2,2.108l1,4.839c-0.003,0.28 -0.041,0.556 -0.139,0.814a2.098,2.098 0 0 1 -0.261,0.491a1.759,1.759 0 0 1 -0.913,0.667c-0.129,0.037 -0.26,0.056 -0.392,0.062c-0.878,0.013 -1.757,0.036 -2.635,-0.002a1.628,1.628 0 0 1 -0.389,-0.073a1.763,1.763 0 0 1 -0.871,-0.654a2.098,2.098 0 0 1 -0.261,-0.491a2.19,2.19 0 0 1 -0.13,-0.58a3.459,3.459 0 0 1 -0.01,-0.25c0.257,-1.702 0.732,-3.123 1.001,-4.823c0.062,-0.33 0.443,-2.087 2,-2.108z" fill-rule="nonzero" id="svg_25"/>
    <path class="body-area body-area-oral_cavity" d="m65.47267,31.419l0.529,-0.223a27.239,27.239 0 0 1 8.268,-1.476a27.257,27.257 0 0 1 10.858,2.031l0.316,0.581l-0.142,1.01c-0.242,0.968 -0.666,1.895 -1.286,2.68a6.27,6.27 0 0 1 -1.396,1.295a6.714,6.714 0 0 1 -0.761,0.444c-0.222,0.111 -0.451,0.21 -0.679,0.307c-0.544,0.231 -1.096,0.44 -1.658,0.623c-0.737,0.24 -1.489,0.436 -2.253,0.568c-0.671,0.117 -1.35,0.184 -2.031,0.171a3.371,3.371 0 0 1 -0.469,-0.036l-0.071,0.003a6.263,6.263 0 0 1 -0.698,-0.035a10.225,10.225 0 0 1 -0.78,-0.108a13.888,13.888 0 0 1 -2.403,-0.655a17.146,17.146 0 0 1 -2.921,-1.405a5.188,5.188 0 0 1 -0.553,-0.416c-0.858,-0.739 -1.449,-1.738 -1.816,-2.801a9.027,9.027 0 0 1 -0.404,-1.702l-0.018,-0.162l0.368,-0.694z" id="svg_26"/>
   </g>
   <path class="body-area body-area-neck_or_throat" d="m83.88767,37.556l-0.054,0.249a28.695,28.695 0 0 0 -0.26,2.186c-0.041,0.525 -0.068,1.05 -0.077,1.576c-0.007,0.428 -0.003,0.857 0.015,1.285c0.097,2.401 0.603,4.856 1.877,6.922a9.881,9.881 0 0 0 1.367,1.743l0.486,0.394l-3.424,0.831c-4.872,0.92 -9.888,1.093 -14.805,0.434a41.283,41.283 0 0 1 -5.667,-1.157l-0.112,-0.039l0.637,-0.499c0.278,-0.264 0.538,-0.547 0.779,-0.845c1.407,-1.741 2.114,-3.94 2.408,-6.133a21.951,21.951 0 0 0 0.172,-2.307c0.011,-0.56 0.002,-1.12 -0.024,-1.679c-0.033,-0.701 -0.094,-1.4 -0.179,-2.096l-0.134,-0.756l0.301,0.262c0.273,0.189 0.562,0.352 0.854,0.51c0.298,0.162 0.601,0.316 0.908,0.462c1.002,0.476 2.047,0.866 3.124,1.135c0.77,0.192 1.558,0.325 2.352,0.359c0.094,0.003 0.189,0.005 0.283,0.003c0.164,0.023 0.331,0.03 0.497,0.034c0.338,0.009 0.677,-0.004 1.015,-0.03a15.195,15.195 0 0 0 3.075,-0.594c0.701,-0.206 1.39,-0.453 2.065,-0.732c0.317,-0.131 0.633,-0.265 0.94,-0.419c0.302,-0.151 0.594,-0.321 0.874,-0.51l0.707,-0.589z" id="svg_27"/>
   <path class="body-area body-area-chest" d="m89.48667,52.369a11.5,11.5 0 0 0 1.832,1.017c0.599,0.27 1.217,0.494 1.844,0.689c0.059,0.023 0.119,0.044 0.179,0.064c0.707,0.232 1.445,0.371 2.183,0.463c1.124,0.142 2.261,0.169 3.392,0.115c0.269,-0.013 0.538,-0.03 0.806,-0.053c0.219,-0.017 0.436,-0.041 0.655,-0.058a8.434,8.434 0 0 1 1.782,0.076c1.754,0.27 3.387,1.093 4.784,2.168l0.874,0.751c-2.017,2.131 -3.606,4.642 -4.864,7.279a36.928,36.928 0 0 0 -0.79,1.773a41.389,41.389 0 0 0 -0.855,2.238a45.822,45.822 0 0 0 -0.888,2.827a48.497,48.497 0 0 0 -1.025,4.485a41.928,41.928 0 0 0 -0.248,1.542a11.418,11.418 0 0 0 -3.813,-3.109a10.632,10.632 0 0 0 -4.632,-1.135l-0.285,0c-0.428,0.009 -0.855,0.037 -1.28,0.093a12.378,12.378 0 0 0 -3.689,1.105a12.77,12.77 0 0 0 -3.676,2.62a10.49,10.49 0 0 0 -1.964,2.788a8.367,8.367 0 0 0 -0.738,2.427l-0.031,0.466l-7.521,0l-0.031,-0.466a8.396,8.396 0 0 0 -0.737,-2.427a10.514,10.514 0 0 0 -1.964,-2.788a12.783,12.783 0 0 0 -3.676,-2.62a12.387,12.387 0 0 0 -3.689,-1.105a11.667,11.667 0 0 0 -1.28,-0.093a11.494,11.494 0 0 0 -1.408,0.075c-0.683,0.082 -1.357,0.232 -2.011,0.445c-0.599,0.195 -1.181,0.443 -1.737,0.738a11.429,11.429 0 0 0 -3.552,2.958c-0.032,-0.4 -0.074,-0.8 -0.123,-1.197a32.605,32.605 0 0 0 -0.896,-4.549a34.262,34.262 0 0 0 -5.56,-11.475a29.264,29.264 0 0 0 -2.248,-2.687l0.008,-0.008c0.314,-0.302 0.642,-0.587 0.985,-0.856c1.285,-1.013 2.771,-1.813 4.378,-2.165a8.28,8.28 0 0 1 1.85,-0.192c0.441,0.004 0.88,0.058 1.319,0.092c0.2,0.014 0.4,0.026 0.6,0.037c1.533,0.066 3.082,0.005 4.586,-0.314a9.82,9.82 0 0 0 1.048,-0.283c0.04,-0.014 0.079,-0.032 0.12,-0.045l0.249,-0.078c1.205,-0.388 2.373,-0.918 3.412,-1.623l1.347,0.445c1.901,0.564 3.845,0.981 5.807,1.269c5.201,0.765 10.524,0.612 15.687,-0.363a51.602,51.602 0 0 0 5.484,-1.356z" id="svg_28"/>
   <path class="body-area body-area-upper_arm" d="m41.92167,58.538a28.63,28.63 0 0 1 2.13,2.555a33.26,33.26 0 0 1 5.339,10.924c0.365,1.315 0.65,2.652 0.844,4.003c0.146,1.012 0.245,2.034 0.264,3.057c-0.192,0.329 -0.368,0.667 -0.527,1.015a10.806,10.806 0 0 0 -0.824,2.663a11.158,11.158 0 0 0 -0.105,2.81c0.107,1.277 0.415,2.546 0.949,3.711c-0.02,0.52 -0.068,1.04 -0.14,1.555l-0.137,0.576l-3.245,7.599a384.597,384.597 0 0 0 -2.749,6.607c-0.278,0.689 -0.551,1.379 -0.814,2.071a31.77,31.77 0 0 0 -0.278,0.763c-0.056,0.162 -0.112,0.324 -0.155,0.49c-0.018,0.067 -0.028,0.131 -0.04,0.199c-0.018,0.104 -0.027,0.151 -0.047,0.255l-0.089,0.445a76.903,76.903 0 0 1 -0.613,2.67a55.17,55.17 0 0 1 -0.605,2.266c-0.021,0.066 -0.021,0.066 -0.045,0.131a9.503,9.503 0 0 1 -0.249,0.553c-0.137,0.279 -0.276,0.557 -0.417,0.834c-0.422,0.823 -0.856,1.639 -1.292,2.453l-0.075,0.138l-0.495,-0.016c-2.304,-0.189 -4.575,-0.765 -6.661,-1.771a17.611,17.611 0 0 1 -5.039,-3.661l-0.971,-1.163l2.565,-5.049a502.238,502.238 0 0 0 2.179,-4.34c0.395,-0.799 0.793,-1.597 1.161,-2.408l0.096,-0.225c0.291,-0.71 0.54,-1.437 0.778,-2.166c0.253,-0.776 0.491,-1.558 0.723,-2.341a208.645,208.645 0 0 0 1.678,-6.018c0.408,-1.536 0.805,-3.075 1.184,-4.617c0.178,-0.719 0.349,-1.439 0.507,-2.163c0.176,-0.804 0.327,-1.614 0.424,-2.433c0.137,-1.145 0.199,-2.297 0.242,-3.449c0.049,-1.298 0.07,-2.598 0.082,-3.897c0.005,-0.599 0.004,-1.197 0.014,-1.797a22.815,22.815 0 0 1 0.358,-3.543a22.33,22.33 0 0 1 2.307,-6.569c0.318,-0.589 0.665,-1.163 1.041,-1.718l0.747,-0.999zm66.622,-0.222l0.154,0.16c0.286,0.336 0.545,0.696 0.792,1.061c0.376,0.555 0.721,1.129 1.041,1.718a22.374,22.374 0 0 1 2.336,6.736c0.206,1.178 0.311,2.37 0.331,3.567c0.006,0.753 0.01,1.506 0.019,2.26c0.018,1.367 0.043,2.735 0.111,4.1c0.051,1.032 0.124,2.065 0.27,3.088c0.093,0.65 0.219,1.295 0.359,1.937c0.195,0.883 0.407,1.761 0.624,2.638c0.457,1.832 0.932,3.66 1.425,5.482c0.507,1.874 1.03,3.745 1.597,5.603c0.222,0.726 0.452,1.453 0.698,2.172c0.189,0.55 0.384,1.103 0.622,1.635c0.133,0.298 0.281,0.59 0.429,0.88c0.218,0.426 0.444,0.847 0.673,1.266c0.522,0.959 1.061,1.91 1.603,2.857l3.904,6.684c-1.897,1.93 -4.307,3.323 -6.834,4.308c-0.445,0.173 -0.895,0.334 -1.349,0.484c-0.557,0.184 -1.12,0.351 -1.686,0.502c-0.745,0.199 -1.497,0.37 -2.255,0.515l-1.642,0.211l-1.098,-1.891a14.712,14.712 0 0 1 -0.682,-1.529c-0.3,-0.776 -0.549,-1.574 -0.722,-2.389a12.477,12.477 0 0 1 -0.131,-0.72c-0.023,-0.157 -0.038,-0.314 -0.063,-0.471a4.734,4.734 0 0 0 -0.052,-0.264a13.79,13.79 0 0 0 -0.336,-1.163a38.824,38.824 0 0 0 -0.45,-1.295c-0.43,-1.179 -0.893,-2.344 -1.365,-3.506a299.407,299.407 0 0 0 -2.958,-6.986c-0.45,-1.032 -0.905,-2.06 -1.354,-3.092c-0.218,-0.511 -0.427,-1.027 -0.64,-1.541l-1.242,-3.016l-0.173,-0.841a0.417,0.417 0 0 1 -0.004,-0.035l-0.006,0.001c0.601,-1.249 0.936,-2.626 1.037,-4.009c0.065,-0.894 0.036,-1.793 -0.115,-2.678a10.85,10.85 0 0 0 -0.825,-2.663a10.977,10.977 0 0 0 -0.584,-1.111l0.012,-0.116c0.117,-1.052 0.284,-2.097 0.486,-3.135c0.259,-1.334 0.574,-2.657 0.946,-3.964c0.243,-0.856 0.511,-1.705 0.805,-2.545c0.864,-2.466 1.952,-4.864 3.337,-7.084c0.85,-1.361 1.813,-2.655 2.955,-3.821z" id="svg_29"/>
   <path class="body-area body-area-breasts" d="m50.99767,89.066a8.042,8.042 0 0 0 1.149,1.748a7.56,7.56 0 0 0 1.961,1.618c1.361,0.782 2.931,1.117 4.492,1.131c0.8,0.008 1.604,-0.061 2.391,-0.21a13.012,13.012 0 0 0 4.816,-1.997a12.013,12.013 0 0 0 2.906,-2.721c0.769,-1.02 1.356,-2.184 1.649,-3.431c0.122,-0.524 0.196,-1.06 0.199,-1.598a6.622,6.622 0 0 0 -0.063,-0.934a7.37,7.37 0 0 0 -0.651,-2.136a9.482,9.482 0 0 0 -1.778,-2.521a11.761,11.761 0 0 0 -3.269,-2.355a11.408,11.408 0 0 0 -3.379,-1.057a10.79,10.79 0 0 0 -1.164,-0.099c-0.129,-0.003 -0.258,-0.004 -0.387,-0.003a9.587,9.587 0 0 0 -3.07,0.55c-2.196,0.776 -4.076,2.335 -5.299,4.303l-0.001,0.115l-0.001,0.044l-0.093,-0.003c-0.46,0.771 -0.821,1.601 -1.061,2.47a9.507,9.507 0 0 0 -0.326,1.909c-0.032,0.49 -0.025,0.982 0.011,1.472c0.091,1.256 0.392,2.507 0.938,3.643l0.031,0l-0.001,0.062zm39.434,-14.565c-0.39,0.008 -0.778,0.034 -1.164,0.085a11.36,11.36 0 0 0 -3.389,1.016a11.81,11.81 0 0 0 -3.299,2.322a9.572,9.572 0 0 0 -1.815,2.504a7.428,7.428 0 0 0 -0.686,2.129a6.682,6.682 0 0 0 -0.08,1.049c0.003,0.575 0.086,1.148 0.225,1.706c0.301,1.206 0.875,2.333 1.622,3.323a12.05,12.05 0 0 0 2.906,2.721a13.007,13.007 0 0 0 4.817,1.997c0.74,0.14 1.493,0.208 2.246,0.211c1.57,0.004 3.156,-0.309 4.538,-1.076a7.546,7.546 0 0 0 2.059,-1.674a7.86,7.86 0 0 0 0.537,-0.696c0.96,-1.399 1.458,-3.074 1.581,-4.757c0.035,-0.49 0.043,-0.982 0.01,-1.472a9.453,9.453 0 0 0 -0.294,-1.792c-0.838,-3.182 -3.282,-5.869 -6.37,-7.005a9.621,9.621 0 0 0 -3.058,-0.589c-0.129,-0.002 -0.258,-0.003 -0.386,-0.002z" id="svg_30"/>
   <path class="body-area body-area-upper_abdomen" d="m79.04667,84l0.177,1.432c0.335,1.423 1.01,2.751 1.9,3.905a13.079,13.079 0 0 0 3.07,2.849a14.028,14.028 0 0 0 5.189,2.15c0.8,0.151 1.615,0.225 2.429,0.228c1.302,0.004 2.611,-0.191 3.833,-0.65a8.816,8.816 0 0 0 2.055,-1.099a8.474,8.474 0 0 0 1.134,-0.981a8.843,8.843 0 0 0 0.873,-1.055c0.082,0.396 0.178,0.789 0.285,1.179l0.075,0.232l-0.22,1.202c-0.164,1.085 -0.314,2.171 -0.468,3.258c-0.301,2.138 -0.6,4.276 -0.88,6.418a245.649,245.649 0 0 0 -0.442,3.524l-0.1,0.908l-45.257,0l-0.227,-2.028c-0.149,-1.216 -0.309,-2.43 -0.472,-3.642a632.295,632.295 0 0 0 -0.716,-5.18c-0.144,-1.02 -0.288,-2.04 -0.437,-3.058a54.152,54.152 0 0 0 -0.132,-0.822l-0.112,-0.596l0.209,-1.005c0.019,-0.124 0.037,-0.248 0.053,-0.372a8.702,8.702 0 0 0 1.994,2.018a8.816,8.816 0 0 0 2.055,1.099c1.222,0.459 2.531,0.654 3.833,0.65a13.374,13.374 0 0 0 2.429,-0.228a14.028,14.028 0 0 0 5.189,-2.15a13.118,13.118 0 0 0 3.07,-2.849c0.89,-1.155 1.565,-2.482 1.899,-3.905l0.177,-1.432l7.535,0z" id="svg_31"/>
   <path class="body-area body-area-mid_abdomen" d="m97.84567,108.5l-0.006,0.056c-0.038,0.379 -0.074,0.759 -0.1,1.139c-0.11,1.6 -0.135,3.209 -0.023,4.809c0.055,0.783 0.142,1.564 0.283,2.336c0.125,0.692 0.29,1.379 0.531,2.04c0.092,0.249 0.194,0.495 0.311,0.734c0.126,0.259 0.267,0.51 0.401,0.765a67.526,67.526 0 0 1 3.304,7.593c0.803,2.207 1.49,4.462 1.974,6.745l-6.834,0.598c-2.885,0.234 -5.772,0.45 -8.661,0.64c-2.319,0.152 -4.64,0.287 -6.962,0.389c-2.021,0.088 -4.043,0.156 -6.065,0.156c-1.821,0 -3.642,-0.056 -5.462,-0.131a292.311,292.311 0 0 1 -6.276,-0.332c-5.531,-0.345 -11.055,-0.794 -16.575,-1.29l-0.492,-0.045c0.342,-1.753 0.822,-3.44 1.373,-5.102a66.32,66.32 0 0 1 2.532,-6.443a59.08,59.08 0 0 1 1.491,-3.065c0.073,-0.138 0.148,-0.274 0.217,-0.414c0.035,-0.074 0.068,-0.147 0.1,-0.222a6.66,6.66 0 0 0 0.411,-1.638c0.074,-0.57 0.097,-1.145 0.097,-1.718a30.4,30.4 0 0 0 -0.135,-2.579c-0.081,-0.937 -0.183,-1.872 -0.271,-2.809c-0.051,-0.58 -0.092,-1.16 -0.144,-1.74l-0.053,-0.472l45.034,0z" id="svg_32"/>
   <path class="body-area body-area-lower_abdomen" d="m46.98867,135.678l7.241,0.634c2.89,0.234 5.782,0.451 8.676,0.64c2.327,0.153 4.655,0.288 6.985,0.391c2.034,0.089 4.071,0.157 6.108,0.157s4.074,-0.068 6.108,-0.157c2.546,-0.112 5.089,-0.263 7.631,-0.433c3.051,-0.205 6.1,-0.438 9.148,-0.69l5.832,-0.516l0.29,1.633c0.104,0.722 0.182,1.448 0.265,2.172c0.119,1.032 0.233,2.066 0.343,3.1l0.07,0.735l-1.807,0.69a83.213,83.213 0 0 0 -4.978,2.269a78.636,78.636 0 0 0 -4.966,2.684a69.026,69.026 0 0 0 -3.841,2.433c-2.323,1.585 -4.552,3.325 -6.606,5.27a9.842,9.842 0 0 0 -0.887,-1.64c-0.241,-0.36 -0.504,-0.706 -0.788,-1.032a9.437,9.437 0 0 0 -1.342,-1.271a8.565,8.565 0 0 0 -2.062,-1.186a7.893,7.893 0 0 0 -2.793,-0.56l-0.234,0a7.893,7.893 0 0 0 -2.793,0.56a8.565,8.565 0 0 0 -2.062,1.186a9.437,9.437 0 0 0 -1.342,1.271c-0.284,0.326 -0.547,0.672 -0.788,1.032a9.27,9.27 0 0 0 -0.977,1.88c-3.736,-3.795 -8.011,-6.99 -12.59,-9.61a62.69,62.69 0 0 0 -6.137,-3.08a54.18,54.18 0 0 0 -2.515,-1.019l-0.275,-0.095l0.49,-3.584c0.087,-0.674 0.163,-1.351 0.255,-2.025c0.033,-0.24 0.069,-0.48 0.106,-0.719l0.235,-1.12z" id="svg_33"/>
   <path class="body-area body-area-forearm" d="m126.04267,113.035l0.164,0.28c0.145,0.25 0.29,0.5 0.429,0.752c0.03,0.057 0.062,0.114 0.086,0.173c0.058,0.142 0.107,0.292 0.157,0.436c0.094,0.271 0.192,0.561 0.282,0.831c0.249,0.747 0.491,1.495 0.729,2.245a158.78,158.78 0 0 1 1.566,5.233c0.13,0.466 0.258,0.933 0.382,1.4c0.122,0.457 0.237,0.917 0.359,1.376c0.063,0.233 0.128,0.466 0.194,0.699a71.464,71.464 0 0 0 1.566,4.728c0.427,1.164 0.874,2.32 1.336,3.469c0.467,1.162 0.95,2.317 1.447,3.465c0.37,0.86 0.745,1.718 1.149,2.563l1.546,3.023c-1.464,1.253 -3.158,2.227 -4.922,3.008a24.139,24.139 0 0 1 -3.471,1.24l-0.421,-1.095a5.582,5.582 0 0 0 -0.428,-0.752c-0.147,-0.215 -0.309,-0.419 -0.46,-0.632c-0.042,-0.062 -0.081,-0.126 -0.121,-0.19c-0.25,-0.413 -0.496,-0.829 -0.743,-1.244c-0.932,-1.573 -1.859,-3.148 -2.787,-4.722c-1.083,-1.84 -2.165,-3.679 -3.245,-5.518l-8.513,-14.662l1.783,-0.292a31.11,31.11 0 0 0 3.555,-0.947c1.745,-0.577 3.44,-1.315 5.019,-2.258c1.222,-0.729 2.372,-1.584 3.362,-2.609zm-100.7,0.209l0.636,0.77a18.626,18.626 0 0 0 5.433,3.981c2.11,1.018 4.401,1.62 6.729,1.841l0.332,0.016l-2.935,5.388c-3.39,6.16 -6.82,12.298 -10.226,18.449a595.729,595.729 0 0 0 -1.822,3.316l-0.212,0.431l-1.754,-0.162a17.855,17.855 0 0 1 -7.245,-3.015l-0.066,-0.053l0.635,-1.305c0.364,-0.769 0.725,-1.541 1.08,-2.315c0.284,-0.617 0.563,-1.237 0.83,-1.861a112.785,112.785 0 0 0 2.25,-5.778c0.733,-2.031 1.425,-4.08 2.031,-6.154c0.139,-0.476 0.274,-0.953 0.401,-1.432c0.121,-0.457 0.236,-0.915 0.356,-1.373l0.25,-0.919a140.928,140.928 0 0 1 1.651,-5.469c0.34,-1.049 0.688,-2.097 1.062,-3.134c0.025,-0.068 0.05,-0.137 0.078,-0.204l0.506,-1.018z" id="svg_34"/>
   <path class="body-area body-area-hand" d="m13.76867,145.118a18.785,18.785 0 0 0 7.586,3.141l1.471,0.136a9.832,9.832 0 0 0 -0.649,2.24a7.924,7.924 0 0 0 -0.116,1.356c0.001,0.094 0.01,0.178 0.02,0.273c0.016,0.148 0.02,0.191 0.034,0.34a22.694,22.694 0 0 1 0.086,2.73a20.933,20.933 0 0 1 -0.866,5.37a18.402,18.402 0 0 1 -0.626,1.765a14.167,14.167 0 0 1 -0.801,1.649l-0.002,0.004c0.009,0.908 0.015,1.817 0.021,2.725c0.002,0.562 0.004,1.123 0.004,1.685c-0.001,0.587 0,1.174 -0.017,1.761c-0.004,0.158 -0.013,0.316 -0.021,0.475c-0.012,0.246 -0.024,0.492 -0.042,0.738a7.886,7.886 0 0 1 -0.153,1.156a3.035,3.035 0 0 1 -0.297,0.828c-0.14,0.249 -0.337,0.469 -0.594,0.599a1.267,1.267 0 0 1 -0.512,0.133a1.288,1.288 0 0 1 -0.992,-0.362c-0.309,-0.313 -0.427,-0.758 -0.45,-1.187c-0.008,-0.303 -0.016,-0.6 -0.026,-0.907c-0.061,-1.888 -0.121,-3.776 -0.191,-5.664a8.203,8.203 0 0 0 -0.021,-0.31a2.177,2.177 0 0 0 -0.119,-0.58l-0.016,-0.037a0.311,0.311 0 0 0 -0.077,0.106c-0.039,0.071 -0.068,0.146 -0.101,0.219l-0.015,0.034c-0.032,0.11 -0.061,0.218 -0.089,0.329c-0.128,0.498 -0.249,0.997 -0.372,1.497c-0.467,1.925 -0.925,3.85 -1.393,5.774c-0.099,0.409 -0.2,0.817 -0.304,1.225c-0.039,0.152 -0.08,0.305 -0.126,0.457c-0.042,0.14 -0.089,0.278 -0.14,0.416c-0.131,0.35 -0.294,0.693 -0.509,1a2.365,2.365 0 0 1 -0.537,0.561a1.663,1.663 0 0 1 -1.125,0.325a1.54,1.54 0 0 1 -0.368,-0.074a1.064,1.064 0 0 1 -0.486,-0.361c-0.255,-0.333 -0.322,-0.776 -0.334,-1.185a6.51,6.51 0 0 1 0.122,-1.335c0.04,-0.207 0.086,-0.411 0.128,-0.617l0.17,-0.822l0.384,-1.869c0.24,-1.182 0.48,-2.364 0.709,-3.548c0.072,-0.375 0.144,-0.752 0.212,-1.128c0.05,-0.279 0.1,-0.557 0.136,-0.838l0.005,-0.048c-0.248,0.415 -0.473,0.843 -0.69,1.274c-0.246,0.492 -0.482,0.989 -0.711,1.488a99.293,99.293 0 0 0 -2.227,5.267c-0.074,0.192 -0.142,0.385 -0.219,0.574c-0.041,0.096 -0.084,0.19 -0.128,0.284c-0.319,0.641 -0.787,1.268 -1.473,1.541c-0.189,0.075 -0.39,0.12 -0.594,0.124a1.537,1.537 0 0 1 -0.815,-0.209a1.155,1.155 0 0 1 -0.313,-0.296c-0.266,-0.374 -0.292,-0.863 -0.238,-1.304a3.243,3.243 0 0 1 0.117,-0.577c0.149,-0.495 0.324,-0.981 0.485,-1.471l1.057,-3.192c0.281,-0.842 0.56,-1.685 0.843,-2.527c0.246,-0.735 0.489,-1.472 0.748,-2.204c0.022,-0.062 0.044,-0.125 0.07,-0.186a18.72,18.72 0 0 0 -0.539,0.712c-0.271,0.374 -0.538,0.752 -0.8,1.134c-0.606,0.882 -1.196,1.777 -1.779,2.674c-0.331,0.507 -0.656,1.018 -0.991,1.521l-0.132,0.188c-0.285,0.378 -0.615,0.744 -1.053,0.946a1.621,1.621 0 0 1 -0.761,0.147c-0.2,-0.01 -0.397,-0.059 -0.583,-0.132a1.691,1.691 0 0 1 -0.295,-0.147a1.022,1.022 0 0 1 -0.396,-0.511c-0.113,-0.308 -0.099,-0.648 -0.045,-0.967c0.042,-0.257 0.113,-0.509 0.199,-0.757c0.092,-0.271 0.202,-0.537 0.325,-0.795c0.056,-0.115 0.116,-0.228 0.174,-0.342l0.418,-0.818l0.943,-1.832c0.709,-1.373 1.413,-2.75 2.149,-4.109c0.099,-0.182 0.198,-0.365 0.301,-0.544c0.048,-0.084 0.102,-0.164 0.149,-0.248c0.024,-0.047 0.044,-0.095 0.063,-0.143c0.086,-0.223 0.153,-0.452 0.216,-0.68c0.067,-0.246 0.128,-0.492 0.187,-0.739c0.18,-0.756 0.332,-1.518 0.479,-2.28l0.018,-0.091c-0.183,0.203 -0.283,0.456 -0.405,0.697a7.253,7.253 0 0 1 -0.142,0.258a5.025,5.025 0 0 1 -0.554,0.744c-0.526,0.581 -1.184,1.028 -1.877,1.386c-0.162,0.083 -0.325,0.161 -0.49,0.236a3.141,3.141 0 0 1 -0.358,0.143c-0.254,0.078 -0.521,0.11 -0.786,0.101a2.533,2.533 0 0 1 -0.993,-0.24a1.988,1.988 0 0 1 -0.513,-0.344a1.4,1.4 0 0 1 -0.293,-0.382a1.03,1.03 0 0 1 0.068,-1.068c0.07,-0.101 0.154,-0.186 0.246,-0.268c0.086,-0.068 0.177,-0.13 0.264,-0.197c0.266,-0.214 0.509,-0.455 0.745,-0.702c0.321,-0.338 0.626,-0.691 0.922,-1.051c0.329,-0.4 0.648,-0.808 0.953,-1.226c0.186,-0.254 0.371,-0.513 0.532,-0.783c0.077,-0.128 0.14,-0.265 0.21,-0.396c0.044,-0.077 0.087,-0.154 0.133,-0.23c0.092,-0.144 0.188,-0.286 0.293,-0.422c0.441,-0.573 0.992,-1.059 1.553,-1.511c0.239,-0.191 0.481,-0.377 0.728,-0.559c0.201,-0.148 0.402,-0.298 0.611,-0.435c0.19,-0.124 0.388,-0.236 0.591,-0.339c0.873,-0.447 1.826,-0.731 2.781,-0.937c0.498,-0.108 1,-0.197 1.505,-0.266a0.443,0.443 0 0 1 0.017,-0.114c0.024,-0.091 0.045,-0.114 0.084,-0.18c0.033,-0.056 0.059,-0.107 0.089,-0.164c0.076,-0.142 0.149,-0.286 0.222,-0.429l1.104,-2.27zm124.17,-0.509l1.39,2.477c0.053,0.089 0.106,0.178 0.161,0.266l0.03,0.049l0.004,0.009c0.776,0.107 1.529,0.351 2.243,0.667c0.341,0.15 0.67,0.32 0.999,0.493c0.571,0.3 1.138,0.61 1.693,0.94c0.561,0.334 1.117,0.685 1.629,1.093c0.347,0.275 0.69,0.586 0.92,0.97c0.063,0.106 0.117,0.217 0.157,0.333c0.024,0.072 0.039,0.145 0.06,0.219l0.047,0.155c0.026,0.072 0.051,0.145 0.08,0.216c0.148,0.366 0.339,0.71 0.58,1.024c0.108,0.141 0.23,0.266 0.352,0.393c0.091,0.096 0.182,0.192 0.271,0.289c0.186,0.204 0.186,0.204 0.371,0.41c0.428,0.484 0.846,0.976 1.261,1.472l0.16,0.193c0.055,0.067 0.056,0.065 0.103,0.137a1.3,1.3 0 0 1 0.128,0.269c0.122,0.328 0.152,0.695 0.019,1.024c-0.07,0.175 -0.183,0.33 -0.325,0.455c-0.327,0.292 -0.778,0.416 -1.204,0.465a2.607,2.607 0 0 1 -0.459,0.016c-0.89,-0.038 -1.709,-0.49 -2.35,-1.088a4.789,4.789 0 0 1 -0.436,-0.465l-0.018,-0.023l-0.042,-0.062a19.09,19.09 0 0 0 -0.164,-0.283l-0.182,-0.29l-0.038,-0.057c0.122,0.487 0.27,0.972 0.467,1.436c0.128,0.303 0.284,0.593 0.429,0.888c0.622,1.277 1.228,2.561 1.845,3.84c0.38,0.78 0.76,1.56 1.153,2.334c0.258,0.506 0.519,1.01 0.795,1.504c0.095,0.17 0.192,0.338 0.293,0.504c0.069,0.112 0.141,0.221 0.208,0.334c0.049,0.087 0.049,0.086 0.096,0.173a3.7,3.7 0 0 1 0.211,0.498c0.123,0.377 0.166,0.786 0.072,1.176c-0.104,0.438 -0.38,0.829 -0.76,1.07c-0.16,0.102 -0.343,0.181 -0.533,0.201a1.376,1.376 0 0 1 -0.718,-0.142a2.692,2.692 0 0 1 -0.606,-0.396a5.263,5.263 0 0 1 -0.636,-0.648c-0.427,-0.508 -0.788,-1.071 -1.121,-1.645c-0.19,-0.328 -0.368,-0.663 -0.552,-0.995c-0.134,-0.237 -0.134,-0.237 -0.27,-0.473a26.482,26.482 0 0 0 -1.607,-2.455l-0.066,-0.086c0.276,0.827 0.539,1.658 0.818,2.483c0.113,0.334 0.228,0.667 0.349,0.997c0.047,0.125 0.093,0.249 0.143,0.374c0.035,0.086 0.069,0.175 0.113,0.257c0.02,0.038 0.045,0.072 0.066,0.108c0.024,0.047 0.048,0.094 0.07,0.142c0.11,0.244 0.203,0.496 0.296,0.747c0.09,0.245 0.178,0.492 0.263,0.74c0.187,0.536 0.368,1.073 0.549,1.611c0.147,0.437 0.288,0.879 0.445,1.312c0.014,0.036 0.015,0.035 0.033,0.074c0.04,0.105 0.064,0.217 0.084,0.328a3.775,3.775 0 0 1 0.056,0.602c0.006,0.535 -0.109,1.115 -0.502,1.506a1.388,1.388 0 0 1 -0.544,0.333a1.313,1.313 0 0 1 -0.445,0.062a1.486,1.486 0 0 1 -0.487,-0.105c-0.39,-0.153 -0.717,-0.442 -0.989,-0.756a5.308,5.308 0 0 1 -1.029,-1.889c-0.032,-0.104 -0.059,-0.208 -0.093,-0.311a13.351,13.351 0 0 0 -0.09,-0.26c-0.238,-0.646 -0.5,-1.283 -0.772,-1.915a60.473,60.473 0 0 0 -0.783,-1.742a41.239,41.239 0 0 0 -0.853,-1.726a18.322,18.322 0 0 0 -0.86,-1.496c0.018,0.119 0.043,0.25 0.065,0.368c0.042,0.218 0.042,0.217 0.086,0.434c0.095,0.443 0.194,0.886 0.293,1.328c0.446,1.972 0.908,3.939 1.377,5.906c0.027,0.084 0.052,0.171 0.076,0.256c0.136,0.5 0.241,1.014 0.25,1.534c0.006,0.311 -0.022,0.628 -0.129,0.921a1.451,1.451 0 0 1 -0.246,0.435a1.195,1.195 0 0 1 -0.229,0.215c-0.36,0.258 -0.85,0.305 -1.267,0.175a1.702,1.702 0 0 1 -0.575,-0.319c-0.35,-0.289 -0.597,-0.688 -0.79,-1.094c-0.233,-0.491 -0.395,-1.014 -0.535,-1.539c-0.075,-0.288 -0.141,-0.578 -0.214,-0.867c-0.069,-0.258 -0.14,-0.516 -0.211,-0.773c-0.441,-1.562 -0.898,-3.12 -1.346,-4.68c-0.14,-0.494 -0.28,-0.989 -0.417,-1.484c-0.055,-0.211 -0.111,-0.422 -0.163,-0.635l-0.001,-0.004a4.274,4.274 0 0 0 -0.096,0.615c-0.015,0.246 -0.024,0.493 -0.034,0.739c-0.055,1.445 -0.101,2.89 -0.154,4.335c-0.017,0.433 -0.034,0.867 -0.058,1.3c-0.011,0.184 -0.017,0.37 -0.047,0.552c-0.06,0.357 -0.197,0.714 -0.444,0.982c-0.129,0.14 -0.286,0.25 -0.463,0.318a1.207,1.207 0 0 1 -1.045,-0.105c-0.238,-0.15 -0.406,-0.385 -0.524,-0.636c-0.169,-0.357 -0.252,-0.751 -0.309,-1.139a10.31,10.31 0 0 1 -0.089,-1.022c-0.014,-0.329 -0.011,-0.661 -0.013,-0.991c-0.003,-0.717 -0.005,-1.434 -0.012,-2.152c-0.005,-0.4 -0.012,-0.801 -0.021,-1.201a36.17,36.17 0 0 0 -0.089,-1.889c-0.016,-0.2 -0.036,-0.4 -0.064,-0.599a2.19,2.19 0 0 0 -0.084,-0.408c-0.016,-0.048 -0.04,-0.094 -0.061,-0.138c-0.152,-0.313 -0.321,-0.617 -0.48,-0.925a18.31,18.31 0 0 1 -0.865,-1.993c-0.491,-1.368 -0.811,-2.796 -1.003,-4.237a27.028,27.028 0 0 1 -0.196,-2.165c-0.025,-0.492 -0.033,-0.985 -0.051,-1.478c-0.011,-0.276 -0.011,-0.275 -0.025,-0.55c-0.063,-1.092 -0.167,-2.184 -0.385,-3.256l-0.039,-0.157c0.79,-0.22 1.591,-0.494 2.378,-0.798a25.886,25.886 0 0 0 4.024,-1.952a17.425,17.425 0 0 0 2.247,-1.587z" id="svg_35"/>
   <path class="body-area body-area-sexual_organs" d="m75.60067,152.001l1.589,0.212a7.049,7.049 0 0 1 1.919,0.81c1.872,1.128 3.195,3.02 3.862,5.08c0.18,0.555 0.313,1.126 0.401,1.703c0.412,2.714 -0.173,5.61 -1.786,7.854a9.087,9.087 0 0 1 -0.738,0.899a8.375,8.375 0 0 1 -1.152,1.026a7.485,7.485 0 0 1 -1.565,0.887l-0.615,0.188l-0.17,-1.008a3,3 0 0 0 -0.265,-0.703a1.528,1.528 0 0 0 -0.153,-0.235c-0.077,-0.1 -0.163,-0.192 -0.241,-0.29c-0.063,-0.079 -0.123,-0.161 -0.184,-0.242c-0.518,-0.726 -0.957,-1.503 -1.372,-2.291a4.61,4.61 0 0 1 -0.058,0.224a6.816,6.816 0 0 1 -0.696,1.56c-0.251,0.421 -0.532,0.821 -0.798,1.233a4.387,4.387 0 0 0 -0.14,0.239c-0.022,0.044 -0.044,0.087 -0.059,0.133c-0.011,0.044 -0.001,0.091 -0.001,0.137l-0.003,0.198c-0.003,0.232 -0.005,0.28 -0.011,0.52l-0.025,0.482l-0.473,-0.145a7.485,7.485 0 0 1 -1.565,-0.887a8.262,8.262 0 0 1 -1.08,-0.95a8.94,8.94 0 0 1 -0.747,-0.889c-1.659,-2.254 -2.267,-5.191 -1.849,-7.94c0.088,-0.577 0.221,-1.148 0.401,-1.703c0.666,-2.06 1.99,-3.952 3.862,-5.08a7.049,7.049 0 0 1 1.919,-0.81l1.589,-0.212l0.204,0z" id="svg_36"/>
   <path class="body-area body-area-thigh" d="m45.76367,144.135l0.063,0.022a52.19,52.19 0 0 1 2.468,1.001a61.236,61.236 0 0 1 6.038,3.031c4.651,2.66 8.983,5.922 12.706,9.751c-1.012,3.243 -0.599,6.937 1.228,9.81c0.233,0.367 0.489,0.719 0.766,1.054c0.396,0.476 0.835,0.915 1.314,1.307a8.635,8.635 0 0 0 2.137,1.285l0.804,0.245l-0.028,0.534c-0.023,0.268 -0.05,0.537 -0.087,0.803a5.029,5.029 0 0 1 -0.1,0.529a1.804,1.804 0 0 1 -0.07,0.227c-0.013,0.035 -0.031,0.069 -0.043,0.105c-0.021,0.074 -0.038,0.149 -0.057,0.224c-0.133,0.588 -0.244,1.18 -0.356,1.772c-0.186,0.988 -0.364,1.978 -0.539,2.968a580.174,580.174 0 0 0 -1.161,6.836c-0.387,2.36 -0.764,4.721 -1.115,7.087c-0.148,0.988 -0.291,1.977 -0.424,2.968c-0.11,0.818 -0.217,1.637 -0.293,2.459c-0.054,0.578 -0.09,1.157 -0.126,1.737c-0.056,0.911 -0.104,1.821 -0.149,2.733c-0.131,2.646 -0.238,5.294 -0.345,7.942l-0.361,9.433c-1.759,-1.309 -3.846,-2.133 -5.965,-2.654a26.129,26.129 0 0 0 -1.205,-0.264a29.917,29.917 0 0 0 -3.527,-0.464a40.242,40.242 0 0 0 -3.702,-0.105c-2.212,0.04 -4.423,0.218 -6.629,0.588l-0.031,-0.814c-0.049,-0.88 -0.107,-1.76 -0.182,-2.638a1981.388,1981.388 0 0 0 -1.012,-13.872c-0.169,-2.183 -0.337,-4.367 -0.546,-6.547c-0.053,-0.554 -0.119,-1.107 -0.177,-1.66c-0.062,-0.621 -0.122,-1.241 -0.181,-1.861c-0.228,-2.46 -0.441,-4.921 -0.642,-7.384a645.483,645.483 0 0 1 -0.581,-7.608c-0.138,-1.954 -0.266,-3.91 -0.365,-5.865c-0.039,-0.77 -0.073,-1.54 -0.097,-2.31a35.844,35.844 0 0 1 -0.02,-1.704c0.013,-0.742 0.069,-1.483 0.134,-2.222c0.086,-0.977 0.193,-1.951 0.308,-2.925c0.285,-2.409 0.618,-4.811 0.955,-7.212l1.195,-8.342zm60.021,0.231l0.817,8.51a541.12,541.12 0 0 1 0.788,10.334c0.044,0.675 0.09,1.349 0.123,2.024c0.02,0.401 0.035,0.804 0.047,1.206c0.033,1.126 0.047,2.251 0.053,3.378c0.008,1.26 0.006,2.52 -0.001,3.779a710.654,710.654 0 0 1 -0.112,8.882c-0.111,6.065 -0.261,12.129 -0.43,18.193c-0.085,3.082 -0.185,6.165 -0.259,9.247c-0.007,0.402 -0.006,0.805 -0.008,1.208l0.075,5.72a22.814,22.814 0 0 0 -2.786,-0.831a24.683,24.683 0 0 0 -5.332,-0.634a25.131,25.131 0 0 0 -3.973,0.294a26.151,26.151 0 0 0 -7.161,2.226l-2.037,1.089l-0.013,-0.101c-0.205,-1.606 -0.408,-3.21 -0.601,-4.816c-0.126,-1.057 -0.25,-2.115 -0.359,-3.174c-0.034,-0.335 -0.068,-0.67 -0.097,-1.004c-0.028,-0.316 -0.048,-0.632 -0.078,-0.949a56.596,56.596 0 0 0 -0.088,-0.817c-0.147,-1.263 -0.32,-2.521 -0.498,-3.78a403.19,403.19 0 0 0 -0.747,-5.01a367.68,367.68 0 0 0 -0.75,-4.663c-0.16,-0.947 -0.319,-1.896 -0.509,-2.837l-0.05,-0.233c-0.18,-0.777 -0.364,-1.553 -0.544,-2.331c-0.928,-4.018 -1.849,-8.038 -2.771,-12.057l-0.536,-2.337c-0.023,-0.116 -0.046,-0.232 -0.067,-0.349l-0.265,-2.863l0.898,-0.274a8.635,8.635 0 0 0 2.137,-1.285a9.66,9.66 0 0 0 1.314,-1.307c0.277,-0.335 0.533,-0.687 0.766,-1.054c1.867,-2.935 2.257,-6.727 1.153,-10.008c1.298,-1.307 2.723,-2.511 4.201,-3.64a59.862,59.862 0 0 1 2.572,-1.856a67.538,67.538 0 0 1 3.445,-2.195a77.16,77.16 0 0 1 5.243,-2.852a73.452,73.452 0 0 1 6.44,-2.833z" id="svg_37"/>
   <path class="body-area body-area-knee" d="m47.04267,218.062l2.655,-0.327a49.796,49.796 0 0 1 3.704,-0.22c0.937,-0.02 1.875,-0.01 2.811,0.034c0.79,0.037 1.579,0.099 2.365,0.19a27.2,27.2 0 0 1 2.87,0.486c0.51,0.114 1.015,0.249 1.515,0.401c1.81,0.552 3.564,1.367 5.026,2.564l-0.054,1.407c-0.039,0.937 -0.068,1.872 -0.167,2.804a19.992,19.992 0 0 1 -0.89,4.205a16.794,16.794 0 0 1 -0.93,2.241c-0.132,0.266 -0.272,0.528 -0.417,0.788c-0.126,0.229 -0.256,0.456 -0.379,0.688c-0.065,0.126 -0.121,0.256 -0.181,0.384c-0.18,0.384 -0.346,0.772 -0.482,1.175a14.648,14.648 0 0 0 -0.494,1.947c-0.139,0.724 -0.24,1.456 -0.323,2.189l-0.048,0.788a49.049,49.049 0 0 1 -7.379,-1.043c-2.36,-0.527 -4.688,-1.249 -6.884,-2.268c-1.352,-0.628 -2.663,-1.369 -3.829,-2.287l0.663,-2.837c0.313,-1.588 0.578,-3.189 0.74,-4.8c0.103,-1.022 0.157,-2.05 0.184,-3.076c0.028,-1.068 0.027,-2.137 0.008,-3.206l-0.084,-2.227zm38.685,2.004l2.836,-1.496a25.069,25.069 0 0 1 6.377,-1.906a23.438,23.438 0 0 1 9.852,0.56l2.099,0.677l0.032,2.432c0.036,1.127 0.083,2.256 0.151,3.382c0.049,0.785 0.104,1.57 0.191,2.353c0.054,0.476 0.121,0.951 0.199,1.424c0.278,1.688 0.702,3.348 1.204,4.982l0.407,1.219l-0.296,0.233c-3.517,2.332 -7.654,3.594 -11.821,4.088a36.725,36.725 0 0 1 -5.176,0.237l-0.79,-0.053l-0.372,-1.315c-0.609,-1.765 -1.488,-3.419 -2.318,-5.086l-0.186,-0.392a21.571,21.571 0 0 1 -0.565,-1.353a21.896,21.896 0 0 1 -0.982,-3.469a19.15,19.15 0 0 1 -0.361,-2.834c-0.005,-0.164 -0.041,-0.327 -0.063,-0.49l-0.175,-1.326l-0.243,-1.867z" id="svg_38"/>
   <path class="body-area body-area-lower_leg" d="m53.80567,291.5l-10.234,0l-0.029,-0.681l-0.059,-1.381c-0.184,-4.465 -0.354,-8.931 -0.508,-13.398c-0.151,-4.353 -0.287,-8.707 -0.387,-13.062c-0.033,-1.412 -0.06,-2.825 -0.078,-4.238a128.627,128.627 0 0 1 -0.004,-3.622c0.019,-1.055 0.059,-2.109 0.114,-3.162c0.082,-1.608 0.201,-3.214 0.361,-4.817c0.137,-1.375 0.304,-2.748 0.516,-4.115c0.153,-0.978 0.323,-1.957 0.567,-2.918c0.213,-0.807 0.438,-1.611 0.653,-2.417l0.569,-2.434c1.065,0.815 2.243,1.48 3.456,2.055c2.223,1.053 4.582,1.807 6.976,2.359a49.55,49.55 0 0 0 7.844,1.134l-0.218,3.538c-0.019,0.813 -0.021,1.625 -0.034,2.438a63.38,63.38 0 0 1 -0.032,1.153c-0.139,3.67 -0.571,7.326 -1.231,10.939a80.644,80.644 0 0 1 -0.881,4.21a55.441,55.441 0 0 1 -0.813,3.076c-0.066,0.221 -0.134,0.44 -0.207,0.658c-0.057,0.172 -0.118,0.342 -0.174,0.513c-0.097,0.305 -0.192,0.611 -0.286,0.917a380.057,380.057 0 0 0 -2.026,6.943a418.828,418.828 0 0 0 -2.357,8.622a142.41,142.41 0 0 0 -0.716,2.862a40.344,40.344 0 0 0 -0.45,2.064l-0.332,2.764zm60.874,0l-10.669,0l-0.226,-2.197a59.46,59.46 0 0 0 -0.24,-1.473c-0.054,-0.31 -0.111,-0.616 -0.18,-0.922a30.105,30.105 0 0 0 -0.387,-1.503a78.373,78.373 0 0 0 -0.611,-2.06c-0.513,-1.65 -1.057,-3.29 -1.617,-4.924c-0.775,-2.26 -1.57,-4.512 -2.383,-6.758a428.154,428.154 0 0 0 -1.617,-4.397c-0.216,-0.577 -0.439,-1.152 -0.659,-1.728a75.64,75.64 0 0 1 -0.277,-0.763c-0.91,-2.611 -1.605,-5.296 -2.174,-8.001a78.076,78.076 0 0 1 -0.635,-3.384a48.365,48.365 0 0 1 -0.446,-3.372c-0.081,-0.945 -0.149,-1.891 -0.225,-2.836a68.754,68.754 0 0 0 -0.228,-2.17c-0.12,-0.981 -0.243,-1.962 -0.371,-2.942l-0.485,-2.842l3.865,-0.043a36.93,36.93 0 0 0 1.962,-0.178c4.344,-0.515 8.652,-1.843 12.336,-4.305l0.539,1.616c0.085,0.254 0.167,0.506 0.247,0.76c0.117,0.386 0.221,0.775 0.335,1.162l0.512,1.713c0.245,0.831 0.484,1.664 0.707,2.503c0.958,3.595 1.679,7.28 1.797,11.007c0.022,0.847 0.045,1.695 0.069,2.542c0.164,5.596 0.344,11.193 0.511,16.789c0.055,1.862 0.108,3.723 0.159,5.585c0.053,2.009 0.104,4.018 0.144,6.027c0.026,1.366 0.054,2.733 0.046,4.099c-0.002,0.241 -0.004,0.482 -0.012,0.723c-0.005,0.158 -0.013,0.318 -0.017,0.477l0.002,0.288c0.011,0.318 0.034,0.636 0.08,0.952l0.148,0.555z" id="svg_39"/>
   <path class="body-area body-area-foot" d="m53.70267,292.5l-0.018,2.06c0.011,0.233 0.025,0.465 0.045,0.696c0.008,0.084 0.015,0.162 0.026,0.245c0.003,0.034 0.005,0.067 0.012,0.1c0.029,0.151 0.06,0.301 0.088,0.452c0.039,0.21 0.076,0.421 0.111,0.632c0.071,0.455 0.135,0.912 0.164,1.371c0.014,0.213 0.02,0.429 0.009,0.644c-0.01,0.174 -0.032,0.35 -0.089,0.515c-0.034,0.1 -0.088,0.187 -0.137,0.278a3.5,3.5 0 0 0 -0.074,0.166c-0.188,0.479 -0.3,0.988 -0.392,1.492l-0.001,0.01l0.011,0.506c0.005,0.286 0.008,0.572 0.011,0.858a52.355,52.355 0 0 1 -0.069,3.243c-0.025,0.424 -0.059,0.849 -0.114,1.272c-0.044,0.34 -0.098,0.684 -0.201,1.014c-0.03,0.092 -0.064,0.185 -0.106,0.274c-0.05,0.105 -0.11,0.207 -0.158,0.314a3.966,3.966 0 0 0 -0.094,0.235a4.383,4.383 0 0 0 -0.233,1.226a4.233,4.233 0 0 0 -0.006,0.298c0.001,0.051 -0.003,0.114 0.007,0.165c0.038,0.195 0.081,0.389 0.118,0.585c0.054,0.286 0.054,0.285 0.105,0.572c0.147,0.889 0.264,1.787 0.279,2.69c0.004,0.234 0,0.469 -0.013,0.703c-0.009,0.168 -0.026,0.335 -0.037,0.503c-0.005,0.045 -0.005,0.045 -0.014,0.092c-0.048,0.216 -0.136,0.42 -0.219,0.625c-0.145,0.349 -0.294,0.696 -0.437,1.046c-0.079,0.198 -0.158,0.397 -0.232,0.598l-0.098,0.272c-0.03,0.07 -0.03,0.069 -0.061,0.137c-0.067,0.128 -0.144,0.25 -0.236,0.362c-0.439,0.531 -1.119,0.808 -1.777,0.947a4.554,4.554 0 0 1 -0.463,0.075c-0.095,0.011 -0.189,0.02 -0.284,0.025c-0.047,0.002 -0.095,0.001 -0.143,0.004c-0.11,0.01 -0.22,0.022 -0.331,0.031c-0.12,0.007 -0.24,0.01 -0.36,0.001a2.007,2.007 0 0 1 -0.567,-0.125c-0.377,-0.145 -0.695,-0.408 -0.95,-0.719a2.55,2.55 0 0 1 -0.112,-0.145l-0.006,0.015a2.108,2.108 0 0 1 -0.127,0.251a1.89,1.89 0 0 1 -1.329,0.872a1.51,1.51 0 0 1 -0.403,0.006c-0.439,-0.061 -0.785,-0.366 -1.036,-0.718a1.98,1.98 0 0 1 -0.817,0.201a1.533,1.533 0 0 1 -0.621,-0.101c-0.34,-0.137 -0.603,-0.403 -0.79,-0.717a1.284,1.284 0 0 1 -0.201,0.05c-0.535,0.094 -1.064,-0.132 -1.486,-0.444l-0.033,-0.025a1.246,1.246 0 0 1 -0.401,0.053c-0.152,0 -0.303,-0.018 -0.452,-0.046a1.68,1.68 0 0 1 -0.295,-0.075a1.355,1.355 0 0 1 -0.205,-0.103a1.617,1.617 0 0 1 -0.624,-0.71c-0.238,-0.517 -0.255,-1.114 -0.212,-1.671c0.056,-0.726 0.224,-1.441 0.421,-2.14c0.099,-0.351 0.213,-0.696 0.314,-1.046l0.03,-0.117c0.128,-0.43 0.309,-0.844 0.48,-1.257c0.437,-1.042 0.886,-2.079 1.325,-3.12c0.225,-0.536 0.453,-1.07 0.658,-1.614c0.345,-0.922 0.641,-1.864 0.888,-2.817c0.122,-0.471 0.232,-0.947 0.321,-1.426c0.064,-0.343 0.122,-0.689 0.142,-1.038c0.015,-0.235 -0.008,-0.471 -0.018,-0.706a59.83,59.83 0 0 1 -0.014,-2.993c0.004,-0.196 0.009,-0.39 0.019,-0.584c0.008,-0.168 0.015,-0.336 0.066,-0.497c0.054,-0.17 0.144,-0.326 0.236,-0.478c0.096,-0.156 0.197,-0.31 0.293,-0.467a5.206,5.206 0 0 0 0.582,-1.327c0.14,-0.502 0.202,-1.018 0.207,-1.556l10.128,0zm61.244,0l0.11,0.412c0.144,0.371 0.311,0.732 0.488,1.088c0.141,0.282 0.291,0.559 0.432,0.841c0.037,0.078 0.075,0.157 0.11,0.236c0.056,0.134 0.104,0.269 0.132,0.412c0.018,0.136 0.026,0.274 0.037,0.411c0.053,0.669 0.103,1.339 0.141,2.01c0.024,0.457 0.045,0.915 0.049,1.373c0.001,0.126 0.001,0.251 -0.002,0.377c-0.003,0.095 -0.01,0.189 -0.011,0.285c0,0.062 0.003,0.123 0.007,0.184c0.043,0.474 0.149,0.941 0.263,1.402a26.8,26.8 0 0 0 0.495,1.726c0.23,0.72 0.482,1.434 0.755,2.139c0.211,0.543 0.437,1.081 0.663,1.619c0.438,1.042 0.887,2.079 1.324,3.12c0.094,0.226 0.186,0.452 0.276,0.68c0.064,0.165 0.128,0.329 0.18,0.497c0.027,0.088 0.047,0.177 0.073,0.265c0.082,0.266 0.164,0.532 0.244,0.798c0.238,0.828 0.452,1.68 0.485,2.546c0.02,0.486 -0.018,0.998 -0.226,1.445a1.602,1.602 0 0 1 -0.624,0.711a1.214,1.214 0 0 1 -0.5,0.177c-0.13,0.025 -0.261,0.041 -0.394,0.045a1.477,1.477 0 0 1 -0.458,-0.053c-0.03,0.025 -0.062,0.047 -0.094,0.069c-0.411,0.288 -0.916,0.489 -1.424,0.401a1.3,1.3 0 0 1 -0.202,-0.051c-0.197,0.327 -0.474,0.606 -0.838,0.737a1.33,1.33 0 0 1 -0.252,0.064c-0.19,0.03 -0.386,0.025 -0.576,-0.005a1.977,1.977 0 0 1 -0.562,-0.179c-0.25,0.351 -0.598,0.657 -1.036,0.717a1.47,1.47 0 0 1 -0.403,-0.005a1.812,1.812 0 0 1 -0.453,-0.125a1.9,1.9 0 0 1 -0.945,-0.869a2.162,2.162 0 0 1 -0.068,-0.156c-0.039,0.054 -0.08,0.107 -0.122,0.159a2.38,2.38 0 0 1 -0.855,0.68c-0.278,0.123 -0.58,0.175 -0.882,0.168c-0.163,-0.003 -0.323,-0.03 -0.484,-0.039c-0.062,-0.002 -0.123,-0.003 -0.185,-0.007a5.012,5.012 0 0 1 -0.893,-0.145c-0.607,-0.157 -1.219,-0.443 -1.609,-0.953a1.884,1.884 0 0 1 -0.224,-0.373c-0.046,-0.103 -0.08,-0.21 -0.121,-0.314l-0.068,-0.152c-0.133,-0.27 -0.304,-0.515 -0.461,-0.771c-0.042,-0.071 -0.041,-0.07 -0.082,-0.143a2.713,2.713 0 0 1 -0.195,-0.461a2.835,2.835 0 0 1 -0.104,-0.88c0.021,-0.62 0.055,-1.24 0.085,-1.859c0.039,-0.752 0.075,-1.505 0.127,-2.256c0.01,-0.153 0.022,-0.316 0.035,-0.47c0.012,-0.131 0.025,-0.262 0.034,-0.394a3.3,3.3 0 0 0 -0.036,-0.727a3.759,3.759 0 0 0 -0.249,-0.81a5.884,5.884 0 0 0 -0.213,-0.446c-0.049,-0.094 -0.101,-0.185 -0.148,-0.28a1.884,1.884 0 0 1 -0.056,-0.13c-0.135,-0.357 -0.201,-0.737 -0.253,-1.112a17.775,17.775 0 0 1 -0.134,-1.492a41.769,41.769 0 0 1 -0.059,-2.001c-0.006,-0.674 0,-1.348 0.016,-2.022a24.474,24.474 0 0 0 -0.124,-0.536a15.449,15.449 0 0 0 -0.232,-0.857a5.122,5.122 0 0 0 -0.237,-0.659c-0.031,-0.07 -0.07,-0.135 -0.107,-0.202l-0.031,-0.065a2.557,2.557 0 0 1 -0.144,-0.731a8.884,8.884 0 0 1 -0.021,-0.711c0.003,-0.758 0.06,-1.516 0.129,-2.269l0.016,-0.166l0.011,-0.112a22.569,22.569 0 0 0 -0.014,-0.448l-0.139,-1.358l10.833,0z" id="svg_40"/>
  </g>
 </g>
</svg>