<svg width="180" height="320" xmlns="http://www.w3.org/2000/svg">
	<!-- Generator: Sketch 64 (93537) - https://sketch.com -->
	<title>
		Group 261
	</title>
	<desc>
		Created with Sketch.
	</desc>
	<defs>
		<polygon id="path-1" points="0 0.0109105184 329.765526 0.0109105184 329.765526 287.930563 0 287.930563">
		</polygon>
	</defs>
	<g id="svg_56" class="body-parts">
		<g id="svg_57" class="ng-hide">
			<path id="svg_58" d="m72.129,34.841l-0.085,-0.418l0,0.007l-0.39,-3.008l-0.061,0.003a2.406,2.406 0 0 1 -0.723,-0.114a3.174,3.174 0 0 1 -0.72,-0.325c-0.229,-0.14 -0.456,-0.317 -0.602,-0.547a3.225,3.225 0 0 1 -0.295,-0.669a17.65,17.65 0 0 1 -0.342,-1.128a38.729,38.729 0 0 1 -0.714,-3.207a4.602,4.602 0 0 1 -0.06,-0.453c-0.019,-0.277 -0.039,-0.554 -0.05,-0.831a9.72,9.72 0 0 1 0.015,-1.017a6.224,6.224 0 0 1 0.068,-0.528c0.073,-0.385 0.212,-0.792 0.485,-1.079c-0.026,-0.256 -0.048,-0.514 -0.07,-0.771a106.275,106.275 0 0 1 -0.277,-4.219a66.03,66.03 0 0 1 -0.075,-3.36a33.3,33.3 0 0 1 0.105,-2.643c0.065,-0.747 0.16,-1.499 0.373,-2.22c0.074,-0.236 0.154,-0.471 0.234,-0.705c0.219,-0.633 0.452,-1.266 0.762,-1.861c0.291,-0.558 0.661,-1.079 1.162,-1.468c0.32,-0.249 0.681,-0.436 1.061,-0.575c0.511,-0.188 1.045,-0.291 1.582,-0.376l0.079,-0.052c1.08,-0.698 2.246,-1.266 3.443,-1.736a21.897,21.897 0 0 1 5.201,-1.338a21.556,21.556 0 0 1 2.858,-0.168c1.713,0.026 3.432,0.241 5.081,0.716c1.213,0.348 2.387,0.845 3.46,1.513a11.474,11.474 0 0 1 2.218,1.796c0.915,0.958 1.653,2.08 2.169,3.299c0.201,0.475 0.37,0.965 0.497,1.466c0.079,0.308 0.145,0.621 0.181,0.938c0.028,0.25 0.016,0.5 0.005,0.752c-0.014,0.323 -0.033,0.647 -0.053,0.969a300.61,300.61 0 0 1 -0.194,2.839c-0.184,2.526 -0.384,5.051 -0.584,7.576l-0.032,0.397a3.558,3.558 0 0 1 0.12,0.61a6.96,6.96 0 0 1 0.046,0.824c0,0.184 -0.005,0.367 -0.013,0.551c-0.013,0.248 -0.03,0.495 -0.048,0.742l-0.017,0.158a22.855,22.855 0 0 1 -0.328,1.716a33.86,33.86 0 0 1 -0.539,2.153c-0.085,0.296 -0.175,0.59 -0.284,0.877a2.438,2.438 0 0 1 -0.277,0.569a1.69,1.69 0 0 1 -0.403,0.384a3.132,3.132 0 0 1 -1.072,0.482c-0.15,0.035 -0.31,0.06 -0.469,0.063c-0.144,1.407 -0.279,2.662 -0.381,3.203l-0.103,0.092l-0.029,-0.297c-0.001,0.051 -0.003,0.1 -0.007,0.151c-0.007,0.074 -0.007,0.074 -0.017,0.148l-0.018,0.062l-0.325,0.29c-1.077,0.873 -1.976,1.641 -3.244,2.199c-1.903,0.839 -4.287,1.45 -6.361,1.575c-1.231,0.073 -2.429,-0.024 -3.649,-0.211c-2.173,-0.335 -4.379,-0.892 -6.281,-1.991c-0.744,-0.431 -1.363,-1.263 -2.013,-1.805z" class="body-area body-area-whole_head" />
		</g>
		<g id="svg_59">
			<path id="svg_60" d="m70.441,17.651l-0.416,-0.2a6.092,6.092 0 0 0 -0.79,-0.262l-0.89,-0.121l-0.037,-0.565a66.016,66.016 0 0 1 -0.075,-3.359c0.005,-0.882 0.03,-1.765 0.105,-2.644c0.065,-0.747 0.16,-1.499 0.373,-2.22c0.074,-0.236 0.154,-0.471 0.234,-0.704c0.219,-0.634 0.452,-1.267 0.762,-1.861c0.291,-0.558 0.661,-1.08 1.162,-1.469c0.32,-0.249 0.681,-0.436 1.061,-0.574c0.511,-0.188 1.045,-0.292 1.582,-0.377l0.079,-0.052c1.08,-0.698 2.246,-1.266 3.443,-1.736a21.897,21.897 0 0 1 5.201,-1.338a21.556,21.556 0 0 1 2.858,-0.168c1.713,0.026 3.432,0.242 5.081,0.716c1.213,0.348 2.387,0.845 3.46,1.513a11.474,11.474 0 0 1 2.218,1.796c0.915,0.958 1.653,2.08 2.169,3.299c0.201,0.475 0.37,0.965 0.497,1.466c0.079,0.308 0.145,0.621 0.181,0.938c0.028,0.25 0.016,0.5 0.005,0.752c-0.014,0.323 -0.033,0.647 -0.053,0.969c-0.059,0.947 -0.126,1.893 -0.194,2.839l-0.209,2.712l-0.093,0a6.09,6.09 0 0 0 -2.18,0.45l-0.038,0.019l-0.224,-0.349a7.873,7.873 0 0 0 -1.283,-1.225a11.174,11.174 0 0 0 -2.389,-1.382c-1.224,-0.53 -2.522,-0.881 -3.835,-1.114a24.305,24.305 0 0 0 -2.065,-0.274a32.387,32.387 0 0 0 -2.625,-0.125l-0.515,0c-0.877,0.009 -1.752,0.045 -2.625,0.125c-0.692,0.063 -1.382,0.152 -2.067,0.274c-1.266,0.225 -2.519,0.56 -3.707,1.058c-0.864,0.363 -1.694,0.813 -2.443,1.376a8.093,8.093 0 0 0 -1.368,1.286l-0.35,0.531z" class="body-area body-area-head" />
			<path id="svg_61" d="m77.5,15c2.484,0 4.5,1.456 4.5,3.25s-2.016,3.25 -4.5,3.25s-4.5,-1.456 -4.5,-3.25s2.016,-3.25 4.5,-3.25zm11.25,0c2.346,0 4.25,1.456 4.25,3.25s-1.904,3.25 -4.25,3.25s-4.25,-1.456 -4.25,-3.25s1.904,-3.25 4.25,-3.25z" class="body-area body-area-eyes" />
			<path id="svg_62" d="m98.171,18.001l-0.298,3.865l-0.032,0.396a3.613,3.613 0 0 1 0.12,0.61a6.96,6.96 0 0 1 0.046,0.824c0,0.184 -0.005,0.367 -0.013,0.551c-0.013,0.248 -0.03,0.496 -0.048,0.742l-0.017,0.158a22.855,22.855 0 0 1 -0.328,1.716a34.06,34.06 0 0 1 -0.539,2.154c-0.085,0.295 -0.175,0.589 -0.284,0.876a2.438,2.438 0 0 1 -0.277,0.569a1.69,1.69 0 0 1 -0.403,0.384a3.06,3.06 0 0 1 -0.51,0.29a3.327,3.327 0 0 1 -0.371,0.141a3.372,3.372 0 0 1 -0.191,0.051c-0.15,0.035 -0.31,0.06 -0.469,0.063l-0.108,0.952a7.685,7.685 0 0 1 -1.439,-1.99c-0.699,-1.372 -1.025,-2.921 -1.009,-4.458c0.015,-1.587 0.398,-3.182 1.18,-4.568c0.733,-1.297 1.841,-2.429 3.245,-2.979c0.216,-0.085 0.438,-0.155 0.664,-0.21a5.112,5.112 0 0 1 1.081,-0.137zm-29.76,0.074l0.574,0.082c0.225,0.058 0.446,0.132 0.661,0.22c1.371,0.561 2.452,1.675 3.173,2.95c0.783,1.386 1.164,2.981 1.18,4.568c0.016,1.536 -0.31,3.086 -1.009,4.458a7.743,7.743 0 0 1 -1.239,1.784l-0.097,-0.749l-0.061,0.003a2.406,2.406 0 0 1 -0.723,-0.114a3.174,3.174 0 0 1 -0.72,-0.325c-0.229,-0.14 -0.456,-0.317 -0.602,-0.546a3.257,3.257 0 0 1 -0.295,-0.67a17.65,17.65 0 0 1 -0.342,-1.128a38.729,38.729 0 0 1 -0.714,-3.206a4.663,4.663 0 0 1 -0.06,-0.454c-0.019,-0.277 -0.039,-0.554 -0.05,-0.831a9.72,9.72 0 0 1 0.015,-1.017a6.056,6.056 0 0 1 0.068,-0.528c0.073,-0.385 0.212,-0.791 0.485,-1.078c-0.026,-0.257 -0.048,-0.515 -0.07,-0.772l-0.174,-2.647z" class="body-area body-area-ears" />
			<path id="svg_63" fill-rule="nonzero" d="m83.259,19.144c1.557,-0.02 1.97,1.742 2,1.957l1,4.493a2.042,2.042 0 0 1 -0.139,0.755a1.983,1.983 0 0 1 -0.261,0.457a1.689,1.689 0 0 1 -1.305,0.676c-0.879,0.012 -1.758,0.034 -2.635,-0.001a1.716,1.716 0 0 1 -0.389,-0.069a1.75,1.75 0 0 1 -0.872,-0.606a1.944,1.944 0 0 1 -0.4,-1.227c0.257,-1.58 0.731,-2.9 1.001,-4.478c0.061,-0.307 0.442,-1.938 2,-1.957z" class="body-area body-area-nose" />
			<path id="svg_64" d="m74.117,30.178l0.157,0.24l0.022,-0.014c0.445,-0.283 0.915,-0.527 1.393,-0.752a17.735,17.735 0 0 1 1.913,-0.765a17.499,17.499 0 0 1 4.731,-0.898a16.276,16.276 0 0 1 3.765,0.26c1.126,0.213 2.229,0.547 3.287,0.987a18.545,18.545 0 0 1 2.36,1.194l0.142,-0.241l0.186,0.527c0.534,1.076 1.281,2.066 2.239,2.831l-0.085,0.758l-0.169,0.226l-0.014,-0.142a2.503,2.503 0 0 1 -0.007,0.151l-0.003,0.023c-0.786,1.13 -1.961,1.963 -3.22,2.54c-0.383,0.175 -0.775,0.329 -1.174,0.464c-0.514,0.174 -1.038,0.317 -1.568,0.435c-0.611,0.136 -1.23,0.238 -1.851,0.314c-0.802,0.098 -1.61,0.152 -2.417,0.174c-0.954,0.025 -1.91,0.008 -2.862,-0.056c-1.245,-0.084 -2.489,-0.251 -3.698,-0.56c-0.428,-0.11 -0.852,-0.238 -1.268,-0.389a11.006,11.006 0 0 1 -0.94,-0.39a9.007,9.007 0 0 1 -0.795,-0.422a7.954,7.954 0 0 1 -0.576,-0.38a7.035,7.035 0 0 1 -0.488,-0.388c-0.436,-0.382 -0.823,-0.826 -1.097,-1.339l-0.036,-0.177l0,0.008l-0.136,-1.052c0.847,-0.708 1.525,-1.632 2.019,-2.629l0.19,-0.538z" class="body-area body-area-oral_cavity" />
		</g>
		<path id="svg_65" d="m93.499,36.583l-0.095,0.641c-0.26,1.834 -0.509,3.671 -0.692,5.514a37.075,37.075 0 0 0 -0.147,1.825c-0.011,0.231 -0.02,0.463 -0.019,0.695c0,0.154 0.003,0.309 0.02,0.464a0.505,0.505 0 0 0 0.012,0.053c0.034,0.098 0.081,0.189 0.133,0.277c0.072,0.123 0.153,0.241 0.238,0.355c0.26,0.352 0.553,0.678 0.853,0.996c0.46,0.485 0.944,0.947 1.437,1.397c0.537,0.488 1.086,0.961 1.646,1.422l2.309,1.784a38.184,38.184 0 0 1 -5.444,1.84a39.964,39.964 0 0 1 -9.483,1.236c-3.641,0.04 -7.284,-0.395 -10.826,-1.237a46.702,46.702 0 0 1 -5.191,-1.555l-1.119,-0.474l0.485,-0.353a48.993,48.993 0 0 0 2.496,-2.075a34.618,34.618 0 0 0 1.48,-1.387c0.34,-0.339 0.672,-0.686 0.986,-1.05c0.214,-0.249 0.421,-0.504 0.601,-0.778c0.057,-0.086 0.11,-0.174 0.157,-0.265a0.946,0.946 0 0 0 0.082,-0.204c0.008,-0.032 0.01,-0.067 0.012,-0.1c0.008,-0.096 0.011,-0.192 0.013,-0.288c0.005,-0.219 0,-0.44 -0.007,-0.659c-0.021,-0.66 -0.071,-1.32 -0.125,-1.979l-0.638,-5.917c0.421,0.378 0.908,0.701 1.415,0.975c0.353,0.192 0.717,0.361 1.089,0.513c0.476,0.194 0.964,0.357 1.459,0.497c1.301,0.365 2.645,0.565 3.991,0.668a31.4,31.4 0 0 0 3.203,0.075a26.368,26.368 0 0 0 2.512,-0.18a20.232,20.232 0 0 0 2.146,-0.376c0.613,-0.144 1.218,-0.32 1.808,-0.537c1.164,-0.427 2.286,-1.021 3.203,-1.813z" class="body-area body-area-neck_or_throat" />
		<path id="svg_66" d="m55.469,83.872l0.201,-4.26c0.159,-2.794 0.346,-5.587 0.577,-8.376c0.209,-2.52 0.453,-5.038 0.765,-7.548c0.202,-1.626 0.431,-3.25 0.717,-4.863l0.694,-3.205l0.154,0.008c0.159,0.008 0.318,0.015 0.478,0.02c0.64,0.013 1.287,-0.013 1.911,-0.168c0.263,-0.066 0.518,-0.16 0.769,-0.264c0.318,-0.132 0.628,-0.282 0.933,-0.442a24.631,24.631 0 0 0 2.312,-1.396l1.168,-0.848l1.129,0.464a47.26,47.26 0 0 0 5.933,1.824c3.555,0.845 7.209,1.288 10.864,1.265a41.017,41.017 0 0 0 9.925,-1.268c1.951,-0.5 3.864,-1.15 5.717,-1.939l0.427,-0.203l1.844,1.233c0.603,0.368 1.222,0.718 1.863,1.018c0.457,0.213 0.93,0.408 1.425,0.507c0.901,0.181 1.824,0.127 2.732,0.054l0.94,-0.076l1.022,3.457c0.458,2.038 0.733,4.116 0.897,6.197a59.88,59.88 0 0 1 0.159,6.312c-0.007,0.204 -0.015,0.408 -0.025,0.613l0,10.875c-0.521,0.973 -1.43,1.73 -2.4,2.294c-0.354,0.206 -0.721,0.389 -1.096,0.555a14.81,14.81 0 0 1 -1.339,0.51c-1.327,0.436 -2.704,0.713 -4.087,0.904a42.295,42.295 0 0 1 -4.915,0.363a48.41,48.41 0 0 1 -4.587,-0.102c-1.242,-0.092 -2.483,-0.244 -3.702,-0.507a17.497,17.497 0 0 1 -1.256,-0.32a12.84,12.84 0 0 1 -0.924,-0.31c-0.227,-0.087 -0.452,-0.18 -0.672,-0.282a8.713,8.713 0 0 1 -0.57,-0.29a6.446,6.446 0 0 1 -0.475,-0.293c-0.392,-0.265 -0.761,-0.578 -1.048,-0.957a2.337,2.337 0 0 1 -0.403,-0.782a2.466,2.466 0 0 1 -0.024,-0.118c-0.006,-0.057 -0.003,-0.057 -0.004,-0.141l-0.283,-0.626l-0.6,0.073l-0.114,0.614l-0.002,0.066l0,0.006c-0.014,0.14 -0.066,0.278 -0.125,0.405a2.657,2.657 0 0 1 -0.458,0.659c-0.3,0.326 -0.66,0.596 -1.037,0.828a9.148,9.148 0 0 1 -1.613,0.763c-0.315,0.116 -0.634,0.22 -0.956,0.313c-0.429,0.125 -0.864,0.232 -1.302,0.325a25.2,25.2 0 0 1 -1.544,0.277c-1.574,0.234 -3.165,0.344 -4.754,0.389a53.51,53.51 0 0 1 -3.538,-0.013a37.416,37.416 0 0 1 -3.491,-0.288a24.79,24.79 0 0 1 -2.936,-0.559c-1.362,-0.352 -2.711,-0.844 -3.902,-1.603a6.346,6.346 0 0 1 -1.374,-1.144z" class="body-area body-area-chest" />
		<path id="svg_67" d="m118.438,107.185l-0.814,-1.744c-0.457,-0.941 -0.924,-1.877 -1.394,-2.813l-4.23,-8.237l0,-22.379l0.007,-0.147c0.041,-0.997 0.05,-1.994 0.035,-2.991a62.101,62.101 0 0 0 -0.123,-3.111c-0.156,-2.389 -0.448,-4.778 -0.974,-7.116a25.425,25.425 0 0 0 -0.951,-3.28l0.743,-0.006c0.605,0.021 1.21,0.088 1.805,0.207c2.011,0.399 3.86,1.367 5.532,2.529c0.582,0.404 1.146,0.833 1.686,1.293a18.921,18.921 0 0 1 4.437,5.522a20.998,20.998 0 0 1 1.473,3.533c0.647,2.048 1.002,4.181 1.151,6.321c0.212,3.063 0.001,6.137 -0.426,9.173l-0.02,0.074c0.011,0.113 0.042,0.226 0.071,0.336c0.041,0.157 0.09,0.312 0.141,0.467c0.17,0.519 0.371,1.028 0.557,1.542a77.661,77.661 0 0 1 1.779,5.598c0.318,1.164 0.605,2.338 0.84,3.521c0.124,0.626 0.234,1.255 0.323,1.888c0.048,0.336 0.084,0.674 0.131,1.012c0.02,0.137 0.042,0.276 0.066,0.413c0.091,0.485 0.21,0.966 0.363,1.436l0.688,1.537l-0.545,0.411a33.88,33.88 0 0 1 -8.473,4.081a30.541,30.541 0 0 1 -3.245,0.84l-0.633,0.09zm-82.461,-6.845l0.017,-0.046c0.128,-0.45 0.228,-0.907 0.298,-1.37c0.049,-0.329 0.081,-0.66 0.12,-0.99c0.03,-0.234 0.061,-0.467 0.094,-0.701a47.275,47.275 0 0 1 1.042,-4.951a74.743,74.743 0 0 1 1.209,-4.095c0.194,-0.591 0.393,-1.181 0.599,-1.768c0.123,-0.351 0.253,-0.701 0.373,-1.052c0.052,-0.154 0.1,-0.308 0.147,-0.461c0.05,-0.175 0.099,-0.351 0.129,-0.531c0.005,-0.029 0.005,-0.029 0.008,-0.06l0,-0.001l-0.021,-0.077a55.636,55.636 0 0 1 -0.357,-2.793a45.986,45.986 0 0 1 -0.164,-2.134a41.233,41.233 0 0 1 -0.057,-1.793c-0.033,-3.501 0.407,-7.05 1.68,-10.329c0.169,-0.436 0.352,-0.866 0.552,-1.289c0.305,-0.65 0.645,-1.284 1.02,-1.897a18.616,18.616 0 0 1 1.812,-2.478a19.054,19.054 0 0 1 2.042,-2.026a21.792,21.792 0 0 1 1.677,-1.292c1.428,-0.996 2.981,-1.846 4.665,-2.312a11.532,11.532 0 0 1 3.082,-0.405l1.44,0.076l-0.017,0.057a51.035,51.035 0 0 0 -0.695,3.443c-0.149,0.874 -0.283,1.75 -0.406,2.628a153.186,153.186 0 0 0 -0.785,6.858a272.913,272.913 0 0 0 -0.619,7.876c-0.411,6.299 -0.664,12.609 -0.816,18.921l-0.586,1.223a1002.303,1002.303 0 0 0 -3.618,7.634l-0.894,1.934l-0.699,-0.082a34.627,34.627 0 0 1 -2.938,-0.607c-1.893,-0.481 -3.754,-1.141 -5.472,-2.078c-1.141,-0.622 -2.22,-1.37 -3.158,-2.272l-0.704,-0.76z" class="body-area body-area-upper_arm" />
		<path id="svg_68" d="m111,84.53l0,11.47l0.169,0l-0.489,1.892c-0.378,1.409 -0.768,2.813 -1.149,4.221c-0.495,1.858 -0.969,3.729 -1.276,5.887l-50.035,0c-0.257,-1.982 -0.752,-3.942 -1.271,-5.888c-0.323,-1.2 -0.655,-2.398 -0.981,-3.598c-0.256,-0.95 -0.508,-1.901 -0.744,-2.857l-0.157,-0.659l0.197,-6.767l0.143,-3.041c0.651,0.559 1.417,1.014 2.207,1.384c0.251,0.117 0.505,0.227 0.762,0.329c0.276,0.11 0.555,0.211 0.837,0.306c1.308,0.438 2.665,0.723 4.03,0.918c1.67,0.239 3.359,0.344 5.045,0.369c1.109,0.016 2.218,0 3.326,-0.05a39.49,39.49 0 0 0 3.778,-0.335a24.815,24.815 0 0 0 2.539,-0.485a15.111,15.111 0 0 0 2.197,-0.716c0.951,-0.4 1.874,-0.931 2.573,-1.703c0.047,-0.053 0.092,-0.107 0.137,-0.161c0.054,-0.068 0.106,-0.137 0.156,-0.208l0.023,0.034c0.61,0.877 1.52,1.494 2.471,1.95c0.195,0.093 0.393,0.18 0.593,0.261c0.219,0.089 0.441,0.172 0.665,0.249c0.297,0.101 0.597,0.193 0.9,0.276c0.396,0.109 0.796,0.204 1.199,0.287c0.524,0.109 1.053,0.198 1.583,0.271c0.607,0.085 1.217,0.15 1.828,0.199c0.789,0.064 1.58,0.102 2.371,0.121c0.987,0.024 1.974,0.021 2.96,-0.007a43.906,43.906 0 0 0 3.988,-0.28c1.581,-0.189 3.157,-0.477 4.678,-0.955a15.882,15.882 0 0 0 1.839,-0.7c0.177,-0.082 0.353,-0.167 0.526,-0.257c0.872,-0.451 1.706,-1.021 2.382,-1.757z" class="body-area body-area-upper_abdomen" />
		<path id="svg_69" d="m35.594,101.399l0.291,0.321c1.025,1.009 2.214,1.842 3.475,2.53c1.791,0.977 3.731,1.668 5.705,2.169a35.38,35.38 0 0 0 3.023,0.625l0.438,0.051l-0.552,1.267a32.287,32.287 0 0 0 -1.47,4.668l-0.031,0.138l-0.021,0.096c-0.039,0.294 -0.079,0.588 -0.122,0.882c-0.172,1.155 -0.377,2.31 -0.796,3.405c-0.313,0.821 -0.735,1.593 -1.17,2.355c-0.434,0.758 -0.88,1.509 -1.319,2.264c-0.29,0.503 -0.58,1.008 -0.867,1.513c-0.285,0.506 -0.566,1.014 -0.848,1.521c-0.125,0.222 -0.252,0.442 -0.379,0.664c-1.198,2.053 -2.49,4.048 -3.824,6.016a234.013,234.013 0 0 1 -4.788,6.767c-1.111,1.521 -2.241,3.028 -3.355,4.547c-0.182,0.252 -0.361,0.506 -0.545,0.756c-0.306,0.409 -0.624,0.809 -0.932,1.218a11.35,11.35 0 0 0 -1.238,2.053c-0.394,0.851 -0.68,1.749 -0.902,2.659l-0.054,0.31l-0.837,-0.1c-2.807,-0.495 -5.546,-1.482 -7.933,-3.056a14.013,14.013 0 0 1 -1.659,-1.266l0.57,-0.95c1.926,-3.243 3.774,-6.538 5.342,-9.971a54.565,54.565 0 0 0 1.61,-3.885a36.739,36.739 0 0 0 1.13,-3.592c0.187,-0.735 0.346,-1.478 0.467,-2.227c0.077,-0.484 0.133,-0.971 0.203,-1.457a34.97,34.97 0 0 1 1.156,-5.133a33.135,33.135 0 0 1 5.133,-10.082c0.224,-0.298 0.452,-0.594 0.683,-0.887c0.206,-0.263 0.417,-0.523 0.621,-0.789l0.191,-0.257c0.204,-0.26 0.424,-0.506 0.645,-0.751l0.471,-0.528c0.142,-0.164 0.284,-0.328 0.423,-0.494a14.99,14.99 0 0 0 1.302,-1.814a9.692,9.692 0 0 0 0.763,-1.556zm96.214,1.26c0.437,0.732 0.962,1.402 1.522,2.041c0.351,0.394 0.711,0.779 1.061,1.174c0.079,0.094 0.159,0.187 0.236,0.285c0.064,0.08 0.123,0.164 0.187,0.244l0.187,0.222c0.344,0.389 0.694,0.772 1.036,1.163a32.042,32.042 0 0 1 2.803,3.707a30.154,30.154 0 0 1 3.078,6.318c0.422,1.205 0.77,2.436 1.045,3.683c0.14,0.635 0.256,1.274 0.366,1.914c0.044,0.242 0.044,0.241 0.091,0.481c0.084,0.41 0.174,0.819 0.274,1.226a40.66,40.66 0 0 0 1.266,4.107a65.684,65.684 0 0 0 1.595,3.959c1.366,3.11 2.923,6.135 4.554,9.114l1.489,2.661a30.18,30.18 0 0 1 -7.78,3.83l-2.635,0.701a16.651,16.651 0 0 0 -1.163,-2.881a19.073,19.073 0 0 0 -1.092,-1.835c-0.376,-0.563 -0.775,-1.108 -1.161,-1.664c-0.135,-0.198 -0.263,-0.399 -0.399,-0.596c-0.48,-0.679 -1.007,-1.324 -1.528,-1.972c-0.66,-0.819 -1.323,-1.635 -1.983,-2.455c-0.384,-0.479 -0.769,-0.96 -1.151,-1.442c-2.269,-2.876 -4.468,-5.815 -6.419,-8.918a49.443,49.443 0 0 1 -1.514,-2.571c-0.352,-0.642 -0.686,-1.294 -1.031,-1.939c-0.191,-0.353 -0.384,-0.705 -0.578,-1.058c-0.582,-1.047 -1.182,-2.085 -1.772,-3.129c-0.111,-0.2 -0.221,-0.399 -0.33,-0.6a19.644,19.644 0 0 1 -0.496,-0.983c-0.19,-0.41 -0.358,-0.832 -0.501,-1.261c-0.371,-1.122 -0.561,-2.292 -0.723,-3.459l-0.027,-0.206a32.365,32.365 0 0 0 -0.751,-2.438l-0.749,-1.937l3.128,-0.731a34.69,34.69 0 0 0 9.184,-4.265l0.681,-0.49z" class="body-area body-area-forearm" />
		<path id="svg_70" d="m108.096,109l-0.156,0.978a24.724,24.724 0 0 0 -0.116,2.494c0.006,0.748 0.049,1.496 0.094,2.242a86.75,86.75 0 0 0 0.728,7.183c0.077,0.529 0.161,1.056 0.252,1.582c0.074,0.432 0.153,0.861 0.246,1.289c0.031,0.145 0.068,0.288 0.102,0.432c0.016,0.081 0.016,0.08 0.029,0.163c0.065,0.452 0.091,0.91 0.116,1.366c0.034,0.598 0.057,1.195 0.076,1.793c0.059,1.791 0.088,3.582 0.108,5.373l0.003,0.306l0.258,1.409l-3.246,0.477c-2.9,0.389 -5.805,0.737 -8.716,1.032c-2.61,0.264 -5.224,0.488 -7.843,0.647c-2.341,0.141 -4.686,0.234 -7.031,0.234c-2.137,0 -4.274,-0.077 -6.407,-0.196a194.55,194.55 0 0 1 -7.965,-0.621a283.67,283.67 0 0 1 -8.48,-0.959l-3.582,-0.507l0.152,-0.7l0.185,-0.829a335,335 0 0 1 0.067,-4.074c0.022,-0.904 0.046,-1.809 0.086,-2.713c0.018,-0.419 0.04,-0.84 0.07,-1.259c0.019,-0.26 0.04,-0.521 0.079,-0.779c0.031,-0.201 0.087,-0.397 0.132,-0.595c0.039,-0.185 0.076,-0.37 0.113,-0.555a62.18,62.18 0 0 0 0.542,-3.46a87.047,87.047 0 0 0 0.602,-6.594c0.033,-0.609 0.062,-1.217 0.062,-1.827c0,-0.693 -0.032,-1.387 -0.091,-2.078l-0.192,-1.254l49.723,0z" class="body-area body-area-mid_abdomen" />
		<path id="svg_71" d="m110.016,136.591l1.177,6.438l0.051,0.256c-2.979,0.37 -5.914,1.13 -8.617,2.428a21.89,21.89 0 0 0 -3.244,1.908a20.7,20.7 0 0 0 -4.524,4.404c-2.053,2.719 -3.424,5.908 -4.164,9.23c-0.772,-1.058 -1.706,-1.939 -2.801,-2.592a8.52,8.52 0 0 0 -0.935,-0.483a8.068,8.068 0 0 0 -1.213,-0.423a8.082,8.082 0 0 0 -1.875,-0.256l-0.242,0a8.082,8.082 0 0 0 -1.875,0.256c-0.414,0.108 -0.82,0.25 -1.213,0.423a8.52,8.52 0 0 0 -0.935,0.483c-1.564,0.933 -2.799,2.329 -3.665,3.953l-0.293,-1.07c-1.246,-3.765 -3.172,-7.353 -5.893,-10.261c-0.421,-0.45 -0.861,-0.884 -1.319,-1.298c-0.663,-0.6 -1.364,-1.16 -2.098,-1.673a21.295,21.295 0 0 0 -3.35,-1.911c-2.005,-0.913 -4.145,-1.51 -6.322,-1.83l-1.991,-0.153l1.678,-7.724l3.668,0.52c2.832,0.362 5.669,0.686 8.51,0.962c2.664,0.258 5.333,0.475 8.006,0.624c2.152,0.12 4.308,0.198 6.463,0.198c2.145,0 4.289,-0.077 6.43,-0.198c2.423,-0.136 4.842,-0.33 7.257,-0.561c2.641,-0.253 5.278,-0.552 7.911,-0.885l5.418,-0.765z" class="body-area body-area-lower_abdomen" />
		<path id="svg_72" d="m14.388,146.596l1.479,1.194c2.463,1.652 5.292,2.706 8.199,3.246l1.075,0.133l-0.325,1.849c-0.066,0.541 -0.116,1.084 -0.175,1.626l-0.075,0.65c-0.267,2.119 -0.646,4.224 -1.197,6.289a32.84,32.84 0 0 1 -0.615,2.051a21.042,21.042 0 0 1 -0.644,1.691l-0.07,0.145a29.264,29.264 0 0 0 -0.639,1.672c-0.05,0.147 -0.098,0.295 -0.141,0.443c-0.02,0.072 -0.044,0.147 -0.058,0.221c-0.019,0.12 -0.022,0.243 -0.027,0.363c-0.007,0.185 -0.01,0.371 -0.012,0.556c-0.005,0.519 0.001,1.037 0.006,1.555c0.021,1.49 0.056,2.98 0.076,4.471c0.004,0.396 0.008,0.791 0.006,1.186c-0.002,0.288 0,0.581 -0.029,0.87a3.919,3.919 0 0 1 -0.095,0.524c-0.047,0.187 -0.11,0.372 -0.2,0.544a1.467,1.467 0 0 1 -0.396,0.485c-0.142,0.111 -0.306,0.19 -0.48,0.24a1.583,1.583 0 0 1 -0.484,0.064a1.074,1.074 0 0 1 -0.219,-0.034c-0.424,-0.112 -0.726,-0.473 -0.935,-0.84a3.552,3.552 0 0 1 -0.195,-0.404l-0.026,-0.066c-0.015,-0.043 -0.03,-0.08 -0.04,-0.126c-0.006,-0.026 -0.007,-0.051 -0.01,-0.076l-0.378,-7.678a3.853,3.853 0 0 0 -0.012,-0.415a2.262,2.262 0 0 0 -0.066,-0.385a0.856,0.856 0 0 0 -0.084,-0.208a0.582,0.582 0 0 0 -0.054,0.079c-0.127,0.219 -0.193,0.468 -0.246,0.713l-0.012,0.061c-0.02,0.119 -0.031,0.239 -0.047,0.357c-0.02,0.146 -0.027,0.187 -0.048,0.333c-0.035,0.227 -0.072,0.455 -0.111,0.681c-0.503,2.827 -1.317,5.586 -2.123,8.338c-0.055,0.191 -0.11,0.382 -0.167,0.574c-0.05,0.165 -0.102,0.331 -0.159,0.494c-0.042,0.12 -0.086,0.24 -0.135,0.357c-0.174,0.426 -0.4,0.861 -0.775,1.143a1.532,1.532 0 0 1 -0.622,0.276a2.3,2.3 0 0 1 -0.543,0.034a2.507,2.507 0 0 1 -0.275,-0.023a1.108,1.108 0 0 1 -0.36,-0.124a1.219,1.219 0 0 1 -0.467,-0.493a2.181,2.181 0 0 1 -0.223,-0.792a5.153,5.153 0 0 1 0.026,-1.197l0.005,-0.032l1.664,-9.862c0.034,-0.135 0.079,-0.269 0.116,-0.403c0.032,-0.123 0.061,-0.247 0.085,-0.371l0.002,-0.011a7.647,7.647 0 0 0 -0.382,0.633c-0.145,0.264 -0.281,0.535 -0.41,0.808a34.488,34.488 0 0 0 -0.855,1.975a88.333,88.333 0 0 0 -1.68,4.616c-0.143,0.424 -0.284,0.847 -0.425,1.272c-0.096,0.292 -0.19,0.586 -0.291,0.877c-0.032,0.09 -0.067,0.18 -0.103,0.268a3.346,3.346 0 0 1 -0.526,0.876a2.22,2.22 0 0 1 -0.57,0.474a2.382,2.382 0 0 1 -1.251,0.295a2.4,2.4 0 0 1 -0.478,-0.048a1.13,1.13 0 0 1 -0.615,-0.381c-0.283,-0.338 -0.361,-0.802 -0.368,-1.232a4.482,4.482 0 0 1 0.031,-0.571c0.014,-0.131 0.036,-0.261 0.061,-0.391l0.005,-0.026c0.144,-0.556 0.338,-1.098 0.509,-1.646a3638.822,3638.822 0 0 1 2.205,-7.083c0.17,-0.544 0.339,-1.09 0.516,-1.633c0.017,-0.051 0.018,-0.051 0.038,-0.099c0.057,-0.117 0.11,-0.237 0.164,-0.355l0.063,-0.15l0.031,-0.074c-0.103,0.125 -0.201,0.252 -0.298,0.382c-0.47,0.625 -0.908,1.274 -1.336,1.929a110.062,110.062 0 0 0 -1.78,2.856c-0.259,0.446 -0.509,0.896 -0.756,1.349c-0.015,0.029 -0.023,0.061 -0.035,0.092l-0.059,0.138l-0.127,0.273c-0.197,0.387 -0.421,0.764 -0.718,1.084c-0.18,0.192 -0.386,0.362 -0.623,0.478c-0.195,0.096 -0.41,0.152 -0.628,0.153a1.493,1.493 0 0 1 -0.774,-0.222a1.461,1.461 0 0 1 -0.391,-0.335c-0.2,-0.252 -0.3,-0.565 -0.334,-0.882a3.313,3.313 0 0 1 0.022,-0.79c0.05,-0.363 0.14,-0.719 0.248,-1.069c0.22,-0.717 0.515,-1.41 0.824,-2.093c0.183,-0.404 0.375,-0.804 0.555,-1.208c0.064,-0.148 0.122,-0.298 0.185,-0.446c0.334,-0.756 0.723,-1.488 1.116,-2.215a45.43,45.43 0 0 1 1.287,-2.248c0.097,-0.157 0.2,-0.31 0.3,-0.464c0.022,-0.039 0.041,-0.077 0.061,-0.117c0.116,-0.257 0.201,-0.527 0.281,-0.798c0.089,-0.302 0.167,-0.608 0.24,-0.914c0.193,-0.81 0.351,-1.629 0.475,-2.452c-0.157,0.193 -0.311,0.39 -0.467,0.586c-0.449,0.576 -0.892,1.159 -1.349,1.732l-0.192,0.231c-0.253,0.277 -0.58,0.474 -0.922,0.621c-0.743,0.319 -1.606,0.421 -2.39,0.2a2.895,2.895 0 0 1 -0.51,-0.198a1.79,1.79 0 0 1 -0.31,-0.193a1.074,1.074 0 0 1 -0.396,-0.78c-0.016,-0.356 0.128,-0.698 0.305,-1c0.157,-0.264 0.345,-0.51 0.542,-0.745c0.264,-0.313 0.547,-0.608 0.834,-0.899c0.223,-0.225 0.449,-0.447 0.669,-0.673c0.072,-0.077 0.144,-0.153 0.212,-0.233c0.181,-0.222 0.311,-0.479 0.436,-0.737c0.181,-0.384 0.346,-0.776 0.524,-1.162c0.255,-0.541 0.54,-1.074 0.936,-1.526a4.48,4.48 0 0 1 0.516,-0.487a11.9,11.9 0 0 1 0.619,-0.48a40.722,40.722 0 0 1 1.962,-1.332a86.388,86.388 0 0 1 1.577,-0.987l0.5,-0.304c0.067,-0.04 0.133,-0.081 0.202,-0.121c0.103,-0.057 0.213,-0.105 0.32,-0.155c0.199,-0.091 0.4,-0.174 0.604,-0.251a8.26,8.26 0 0 1 1.595,-0.423a5.18,5.18 0 0 1 0.173,-0.361c0.241,-0.47 0.511,-0.924 0.78,-1.379l1.081,-1.798zm138.702,-0.759l1.022,1.825c0.135,0.242 0.268,0.486 0.4,0.73c0.105,0.199 0.211,0.397 0.311,0.598c0.067,0.134 0.133,0.271 0.193,0.409c0.119,0.026 0.239,0.052 0.358,0.082a8.954,8.954 0 0 1 1.804,0.683c0.235,0.14 0.468,0.282 0.702,0.423a65.61,65.61 0 0 1 2.92,1.88c0.336,0.232 0.668,0.469 0.99,0.72c0.31,0.242 0.611,0.495 0.86,0.801c0.595,0.73 0.928,1.624 1.315,2.47c0.048,0.102 0.097,0.204 0.148,0.304c0.087,0.164 0.177,0.329 0.29,0.478c0.078,0.104 0.17,0.197 0.259,0.292c0.263,0.27 0.532,0.535 0.797,0.804c0.264,0.272 0.526,0.548 0.767,0.842c0.174,0.213 0.34,0.434 0.481,0.673c0.177,0.3 0.321,0.644 0.304,1a1.062,1.062 0 0 1 -0.396,0.779a1.651,1.651 0 0 1 -0.31,0.192a2.845,2.845 0 0 1 -0.583,0.218c-0.725,0.185 -1.508,0.099 -2.2,-0.172a3.036,3.036 0 0 1 -0.85,-0.488c-0.144,-0.121 -0.261,-0.267 -0.38,-0.412c-0.457,-0.571 -0.899,-1.155 -1.349,-1.731l-0.035,-0.043a36.91,36.91 0 0 0 0.878,2.325c0.141,0.339 0.287,0.68 0.464,1.004c0.048,0.09 0.105,0.173 0.161,0.257c0.06,0.09 0.084,0.13 0.144,0.223c0.115,0.185 0.228,0.372 0.341,0.56c0.39,0.661 0.765,1.331 1.128,2.007a34.2,34.2 0 0 1 0.889,1.75c0.061,0.132 0.121,0.264 0.176,0.398c0.044,0.107 0.086,0.215 0.132,0.321c0.181,0.404 0.371,0.805 0.556,1.208c0.237,0.53 0.468,1.063 0.663,1.609c0.126,0.355 0.239,0.715 0.322,1.083c0.112,0.494 0.183,1.03 0.062,1.532c-0.053,0.22 -0.147,0.43 -0.288,0.608a1.415,1.415 0 0 1 -0.391,0.336c-0.26,0.155 -0.56,0.24 -0.865,0.218a1.539,1.539 0 0 1 -0.68,-0.227a2.584,2.584 0 0 1 -0.673,-0.629a5.524,5.524 0 0 1 -0.746,-1.357c-0.021,-0.056 -0.058,-0.107 -0.086,-0.159c-0.039,-0.069 -0.076,-0.139 -0.113,-0.208c-0.146,-0.263 -0.151,-0.271 -0.304,-0.543c-0.11,-0.194 -0.22,-0.388 -0.334,-0.579c-0.134,-0.226 -0.273,-0.449 -0.411,-0.672a98.037,98.037 0 0 0 -0.982,-1.57c-0.308,-0.48 -0.62,-0.957 -0.942,-1.427a22.532,22.532 0 0 0 -0.982,-1.339l-0.015,-0.019c0.082,0.202 0.171,0.4 0.266,0.596c0.065,0.168 0.126,0.337 0.188,0.506c1.006,2.755 2.004,5.512 3.004,8.269l0.58,1.601c0.045,0.158 0.067,0.322 0.086,0.485a4.98,4.98 0 0 1 0.031,0.572c-0.007,0.452 -0.095,0.943 -0.415,1.283a1.091,1.091 0 0 1 -0.353,0.255a1.291,1.291 0 0 1 -0.366,0.1c-0.111,0.01 -0.11,0.01 -0.221,0.017a2.837,2.837 0 0 1 -0.801,-0.068a2.163,2.163 0 0 1 -0.744,-0.344c-0.501,-0.366 -0.802,-0.924 -1.01,-1.497c-0.165,-0.48 -0.33,-0.96 -0.5,-1.44c-0.673,-1.894 -1.376,-3.78 -2.181,-5.622a28.854,28.854 0 0 0 -0.884,-1.864c-0.238,-0.455 -0.491,-0.912 -0.815,-1.313l-0.003,-0.005c0.041,0.173 0.09,0.344 0.135,0.516l0.031,0.13c0.793,3.523 1.537,7.058 2.304,10.586c0.014,0.096 0.025,0.192 0.034,0.289c0.032,0.373 0.037,0.751 -0.026,1.121a1.96,1.96 0 0 1 -0.231,0.679c-0.146,0.247 -0.37,0.441 -0.645,0.525a1.92,1.92 0 0 1 -0.523,0.061a2.032,2.032 0 0 1 -0.544,-0.06a1.513,1.513 0 0 1 -0.565,-0.287c-0.367,-0.298 -0.591,-0.744 -0.759,-1.177a8.74,8.74 0 0 1 -0.161,-0.445a16.143,16.143 0 0 1 -0.16,-0.516c-0.06,-0.209 -0.122,-0.416 -0.186,-0.622c-0.276,-0.895 -0.56,-1.787 -0.836,-2.682a79.31,79.31 0 0 1 -1.165,-4.116c-0.26,-1.047 -0.491,-2.103 -0.624,-3.174a1.565,1.565 0 0 0 -0.065,-0.145a1.145,1.145 0 0 0 -0.224,-0.315l-0.009,-0.008l-0.005,-0.005c-0.014,0.065 -0.023,0.13 -0.033,0.195c-0.03,0.262 -0.037,0.526 -0.029,0.789l-0.118,7.794c-0.003,0.027 -0.003,0.056 -0.008,0.084c-0.018,0.097 -0.064,0.193 -0.103,0.283a3.515,3.515 0 0 1 -0.127,0.262c-0.21,0.39 -0.521,0.783 -0.969,0.901c-0.071,0.019 -0.145,0.03 -0.219,0.034a1.599,1.599 0 0 1 -0.901,-0.258a1.398,1.398 0 0 1 -0.379,-0.395a2.217,2.217 0 0 1 -0.278,-0.681c-0.093,-0.376 -0.121,-0.76 -0.146,-1.145c-0.025,-0.38 -0.046,-0.76 -0.067,-1.139c-0.081,-1.549 -0.152,-3.099 -0.232,-4.646c-0.025,-0.473 -0.052,-0.945 -0.08,-1.417c-0.03,-0.475 -0.057,-0.951 -0.11,-1.423a3.664,3.664 0 0 0 -0.021,-0.146a3.019,3.019 0 0 0 -0.118,-0.386a11.233,11.233 0 0 0 -0.191,-0.489a25.367,25.367 0 0 0 -0.677,-1.472c-0.029,-0.058 -0.059,-0.118 -0.091,-0.176a5.435,5.435 0 0 1 -0.105,-0.183c-0.057,-0.105 -0.056,-0.105 -0.111,-0.211c-0.559,-1.111 -0.972,-2.294 -1.312,-3.488a35.214,35.214 0 0 1 -1.022,-5.056a42.063,42.063 0 0 1 -0.151,-1.279c-0.031,-0.309 -0.061,-0.619 -0.097,-0.929a33.895,33.895 0 0 0 -0.095,-0.713l-0.451,-2.063l2.237,-0.546c3,-0.92 5.861,-2.293 8.444,-4.054z" class="body-area body-area-hand" />
		<path id="svg_73" d="m82.097,178.284l-0.869,-0.261a7.41,7.41 0 0 1 -0.748,-0.342c-1.716,-0.902 -3.038,-2.438 -3.869,-4.172c-0.746,-1.557 -1.111,-3.285 -1.111,-5.009c0,-1.762 0.381,-3.53 1.162,-5.113c0.848,-1.722 2.185,-3.239 3.91,-4.116c0.275,-0.139 0.558,-0.262 0.848,-0.365a6.948,6.948 0 0 1 2.225,-0.405l0.21,0a6.948,6.948 0 0 1 2.225,0.405c0.29,0.103 0.573,0.226 0.848,0.365c1.725,0.877 3.062,2.394 3.91,4.116c0.781,1.583 1.162,3.351 1.162,5.113c0,1.724 -0.365,3.452 -1.111,5.009c-0.831,1.734 -2.153,3.27 -3.869,4.172a7.124,7.124 0 0 1 -1.827,0.666l-0.441,0.047l-0.089,-0.593a64.078,64.078 0 0 1 -0.386,-3.152a23.848,23.848 0 0 1 -0.078,-1.068a7.434,7.434 0 0 1 -0.007,-0.804l-0.001,0.015l-0.248,-4.552l-0.79,0l-0.024,0.407a107.793,107.793 0 0 1 -0.768,7.98l-0.264,1.657z" class="body-area body-area-sexual_organs" />
		<path id="svg_74" d="m54.462,145.401c1.745,0.061 3.483,0.344 5.169,0.829a20.803,20.803 0 0 1 5.024,2.182a20.154,20.154 0 0 1 3.883,3.052c2.939,2.944 4.972,6.701 6.24,10.639l0.54,1.934l-0.144,0.334a12.539,12.539 0 0 0 -0.511,2.063c-0.509,3.184 0.167,6.597 2.066,9.229c0.262,0.362 0.547,0.708 0.853,1.034c0.408,0.435 0.855,0.834 1.338,1.186a8.668,8.668 0 0 0 1.837,1.028l1.183,0.354l-0.183,1.15c-0.402,2.208 -0.901,4.396 -1.434,6.575a378.692,378.692 0 0 1 -1.221,4.828c-0.606,2.342 -1.223,4.682 -1.83,7.024c-0.27,1.062 -0.528,2.126 -0.773,3.194a152.9,152.9 0 0 0 -1.681,8.512l-1.178,8.09c-2.778,-2.231 -6.127,-3.671 -9.569,-4.558a35.272,35.272 0 0 0 -1.9,-0.434c-0.7,-0.141 -1.404,-0.261 -2.111,-0.364a43.064,43.064 0 0 0 -2.73,-0.304a47.377,47.377 0 0 0 -4.16,-0.143l-0.455,0.02l0.004,-2.341a54.546,54.546 0 0 0 -0.15,-3.454c-0.04,-0.494 -0.098,-0.986 -0.154,-1.479c-0.166,-1.415 -0.343,-2.828 -0.512,-4.243a264.138,264.138 0 0 1 -0.654,-6.156a235.162,235.162 0 0 1 -0.666,-9.151a282.026,282.026 0 0 1 -0.161,-3.436c-0.036,-0.911 -0.07,-1.821 -0.086,-2.733a89.552,89.552 0 0 1 0.001,-3.278c0.058,-3.229 0.28,-6.453 0.627,-9.663c0.211,-1.964 0.474,-3.921 0.764,-5.874c0.186,-1.225 0.385,-2.45 0.568,-3.677c0.042,-0.285 0.084,-0.571 0.116,-0.858c0.016,-0.148 0.033,-0.297 0.033,-0.447c-0.001,-0.039 -0.005,-0.08 -0.007,-0.119l0,-0.128c0.022,-0.415 0.094,-0.828 0.163,-1.239c0.084,-0.51 0.178,-1.02 0.274,-1.528c0.292,-1.544 0.608,-3.084 0.93,-4.622l0.657,-3.028zm56.981,-1.117l0.442,2.222c0.23,1.105 0.465,2.208 0.729,3.305c0.128,0.535 0.272,1.067 0.411,1.601c0.066,0.259 0.131,0.517 0.194,0.775c0.423,1.768 0.798,3.548 1.158,5.329a292.3,292.3 0 0 1 1.176,6.164c0.361,1.998 0.702,3.998 1.01,6.005c0.112,0.736 0.22,1.472 0.318,2.21c0.094,0.703 0.181,1.408 0.248,2.114c0.061,0.651 0.095,1.304 0.132,1.957c0.046,0.821 0.086,1.642 0.12,2.464a202,202 0 0 1 0.171,7.784c0.009,3.194 -0.048,6.389 -0.174,9.581a177.761,177.761 0 0 1 -0.435,7.476c-0.037,0.451 -0.076,0.903 -0.12,1.354c-0.034,0.359 -0.073,0.717 -0.108,1.075a32,32 0 0 0 -0.051,0.629c-0.134,1.921 -0.137,3.851 -0.076,5.776l0.008,0.126l-1.087,-0.226a27.306,27.306 0 0 0 -4.675,-0.372a26.274,26.274 0 0 0 -4.924,0.522a27.23,27.23 0 0 0 -8.032,3.041l-2.246,1.441l-0.297,-1.325a607.166,607.166 0 0 0 -2.218,-9.303a469.515,469.515 0 0 0 -1.056,-4.204a233.304,233.304 0 0 0 -0.834,-3.189a107.966,107.966 0 0 0 -1.099,-3.778a103.733,103.733 0 0 0 -1.811,-5.283c-0.572,-1.539 -1.179,-3.064 -1.767,-4.598c-0.126,-0.334 -0.25,-0.669 -0.373,-1.005a33.746,33.746 0 0 1 -0.849,-2.638l-0.413,-1.928a6.756,6.756 0 0 0 1.828,-0.475a8.668,8.668 0 0 0 1.837,-1.028c0.45,-0.328 0.869,-0.697 1.255,-1.098c0.31,-0.322 0.598,-0.664 0.863,-1.023c1.955,-2.643 2.654,-6.104 2.139,-9.328c-0.112,-0.7 -0.282,-1.391 -0.511,-2.063a10.41,10.41 0 0 0 -0.853,-1.891l0.116,-0.739c0.786,-3.6 2.321,-7.065 4.696,-9.903a19.671,19.671 0 0 1 2.354,-2.371a20.494,20.494 0 0 1 4.232,-2.761c2.689,-1.323 5.623,-2.08 8.572,-2.422z" class="body-area body-area-thigh" />
		<path id="svg_75" d="m52.713,213.848l0.134,-0.008a45.145,45.145 0 0 1 3.945,0.1a42.68,42.68 0 0 1 2.624,0.263a38.027,38.027 0 0 1 4.14,0.778c3.443,0.858 6.802,2.272 9.597,4.491l0.355,0.322l-0.094,0.835c-0.018,0.168 -0.037,0.336 -0.052,0.505c-0.016,0.19 -0.031,0.38 -0.05,0.569c-0.023,0.195 -0.048,0.388 -0.075,0.581c-0.255,1.708 -0.739,3.371 -1.299,5c-0.614,1.786 -1.318,3.54 -1.997,5.302c-0.15,0.396 -0.3,0.791 -0.447,1.187a58.83,58.83 0 0 0 -0.582,1.636c-0.14,0.416 -0.279,0.834 -0.399,1.256l-0.089,0.356c-2.581,0.001 -5.155,-0.16 -7.698,-0.549a35.573,35.573 0 0 1 -3.769,-0.776a25.28,25.28 0 0 1 -3.363,-1.136a17.91,17.91 0 0 1 -2.436,-1.246l-0.566,-0.421l0.606,-2.106c0.292,-1.352 0.49,-2.72 0.668,-4.09c0.103,-0.814 0.201,-1.629 0.304,-2.443c0.036,-0.284 0.077,-0.568 0.111,-0.852c0.134,-1.182 0.204,-2.373 0.265,-3.561c0.084,-1.635 0.136,-3.27 0.165,-4.906l0.002,-1.087zm43.157,3.853l2.677,-1.735a26.367,26.367 0 0 1 6.772,-2.657a24.962,24.962 0 0 1 6.61,-0.663c1.373,0.046 2.742,0.205 4.091,0.468l0.644,0.153l0.285,4.325c0.063,0.612 0.145,1.221 0.226,1.831c0.099,0.745 0.196,1.491 0.297,2.236c0.258,1.904 0.538,3.808 0.892,5.697c0.151,0.8 0.314,1.598 0.506,2.389c0.149,0.61 0.312,1.219 0.515,1.813l0.022,0.061l-1.034,0.637c-0.275,0.138 -0.555,0.267 -0.837,0.391c-0.435,0.19 -0.878,0.365 -1.325,0.526c-1.081,0.392 -2.19,0.708 -3.309,0.973a44.167,44.167 0 0 1 -3.641,0.696a59.457,59.457 0 0 1 -4.058,0.46l-3.118,0.141l-0.072,-0.156c-0.616,-1.284 -1.276,-2.547 -1.921,-3.818c-0.19,-0.377 -0.379,-0.754 -0.566,-1.132c-0.619,-1.268 -1.21,-2.55 -1.682,-3.881a17.382,17.382 0 0 1 -0.778,-2.878a13.208,13.208 0 0 1 -0.149,-1.157l-0.006,-0.078l-1.041,-4.642z" class="body-area body-area-knee" />
		<path id="svg_76" d="m125.812,290l-11.284,0l0.075,-1.128a18.807,18.807 0 0 0 -0.109,-1.76a33.43,33.43 0 0 0 -0.354,-2.461a51.08,51.08 0 0 0 -0.546,-2.652a81.392,81.392 0 0 0 -1.691,-6.097c-0.482,-1.528 -0.985,-3.049 -1.606,-4.527a39.735,39.735 0 0 0 -1.24,-2.654c-0.469,-0.92 -0.966,-1.827 -1.447,-2.741l-0.283,-0.546a35.13,35.13 0 0 1 -1.022,-2.17a27.759,27.759 0 0 1 -0.991,-2.723c-0.518,-1.696 -0.881,-3.438 -1.156,-5.189c-0.329,-2.094 -0.53,-4.205 -0.678,-6.318l0.005,-0.114c0.026,-0.168 0.049,-0.336 0.071,-0.506c0.03,-0.229 0.03,-0.229 0.057,-0.458c0.225,-2.01 0.314,-4.04 0.177,-6.059a21.143,21.143 0 0 0 -0.293,-2.394a13.803,13.803 0 0 0 -0.484,-1.902l-0.468,-1.158l0.79,-0.019a63.63,63.63 0 0 0 4.634,-0.397a48.74,48.74 0 0 0 4.665,-0.793a32.115,32.115 0 0 0 3.918,-1.12c0.39,-0.141 0.777,-0.292 1.159,-0.454c0.732,-0.31 1.451,-0.661 2.097,-1.07l0.22,0.488c0.222,0.469 0.45,0.937 0.671,1.408a44.91,44.91 0 0 1 1.359,3.175c0.454,1.189 0.85,2.399 1.191,3.625c0.901,3.234 1.424,6.567 1.685,9.911c0.272,3.483 0.261,6.985 0.06,10.472a103.37,103.37 0 0 1 -0.257,3.425c0,0.807 0.002,1.615 0.006,2.424c0.024,4.374 0.082,8.75 0.246,13.122c0.06,1.586 0.134,3.173 0.246,4.756c0.046,0.656 0.1,1.311 0.166,1.966c0.06,0.602 0.134,1.203 0.24,1.8l0.171,0.838zm-66.764,0l-11.076,0l0.038,-0.185c0.021,-0.119 0.041,-0.239 0.058,-0.359c0.092,-0.694 0.13,-1.393 0.15,-2.092c0.019,-0.617 0.022,-1.236 0.015,-1.854a115.45,115.45 0 0 0 -0.206,-5.39a241.084,241.084 0 0 0 -0.501,-6.738c-0.223,-2.576 -0.477,-5.15 -0.757,-7.72l-0.025,-0.229c-0.411,-4.537 -0.637,-9.1 -0.456,-13.655a62.65,62.65 0 0 1 0.427,-5.335c0.214,-1.704 0.509,-3.399 0.916,-5.067a34.865,34.865 0 0 1 1.874,-5.594c0.196,-0.461 0.399,-0.918 0.594,-1.378l0.189,-0.466l2.523,1.372c1.089,0.486 2.218,0.881 3.364,1.208c1.337,0.382 2.7,0.67 4.072,0.891c2.637,0.425 5.31,0.604 7.956,0.604l-0.378,2.403a36.487,36.487 0 0 0 -0.183,2.881a44.62,44.62 0 0 0 0.127,4.706l0.002,0.059c-0.072,2.704 -0.185,5.409 -0.451,8.102a49.904,49.904 0 0 1 -0.418,3.249a27.916,27.916 0 0 1 -0.755,3.371c-0.269,0.905 -0.602,1.79 -0.99,2.651c-0.465,1.032 -1.003,2.03 -1.511,3.042l-0.258,0.523a38.13,38.13 0 0 0 -1.071,2.422c-0.332,0.834 -0.63,1.68 -0.908,2.533c-0.22,0.676 -0.428,1.357 -0.623,2.041a50.528,50.528 0 0 0 -1.54,7.373a35.57,35.57 0 0 0 -0.314,4.623c0.002,0.537 0.019,1.074 0.061,1.61l0.055,0.398z" class="body-area body-area-lower_leg" />
		<path id="svg_77" d="m59.185,291l0.004,0.023c0.049,0.208 0.107,0.413 0.161,0.621c0.08,0.304 0.158,0.608 0.235,0.912c0.267,1.074 0.527,2.155 0.696,3.248c0.057,0.36 0.105,0.724 0.115,1.088c0.005,0.216 0,0.441 -0.066,0.648a0.885,0.885 0 0 1 -0.059,0.147c-0.025,0.048 -0.056,0.093 -0.081,0.142a3.198,3.198 0 0 0 -0.062,0.146a13.53,13.53 0 0 0 -0.412,1.295a52.98,52.98 0 0 0 -0.456,1.763l0.034,0.303c0.155,1.57 0.22,3.158 -0.045,4.721a15.53,15.53 0 0 1 -0.189,0.927c-0.031,0.134 -0.076,0.318 -0.106,0.44a0.827,0.827 0 0 1 -0.054,0.154a1.404,1.404 0 0 1 -0.173,0.282c-0.093,0.113 -0.195,0.221 -0.283,0.338a1.225,1.225 0 0 0 -0.152,0.268a1.509,1.509 0 0 0 -0.096,0.528c-0.006,0.257 0.027,0.514 0.077,0.766c0.019,0.101 0.042,0.201 0.067,0.301c0.039,0.154 0.082,0.306 0.13,0.458c0.056,0.181 0.118,0.359 0.175,0.54a8.365,8.365 0 0 1 0.225,0.926c0.12,0.671 0.145,1.367 0.005,2.038a3.548,3.548 0 0 1 -0.333,0.942a2.54,2.54 0 0 1 -0.256,0.395c-0.045,0.056 -0.096,0.105 -0.145,0.157c-0.044,0.046 -0.051,0.055 -0.097,0.109a6.13,6.13 0 0 0 -0.189,0.237c-0.296,0.403 -0.552,0.832 -0.785,1.273c-0.123,0.233 -0.236,0.47 -0.352,0.707c-0.049,0.094 -0.049,0.094 -0.1,0.186a3.822,3.822 0 0 1 -0.6,0.78c-0.13,0.129 -0.271,0.247 -0.419,0.354c-0.696,0.503 -1.544,0.739 -2.391,0.811a7.201,7.201 0 0 1 -0.465,0.024c-0.175,0.004 -0.35,0.004 -0.522,-0.021a2.012,2.012 0 0 1 -0.593,-0.188c-0.328,-0.166 -0.6,-0.42 -0.834,-0.701a7.913,7.913 0 0 1 -0.532,-0.736c-0.232,0.28 -0.47,0.556 -0.711,0.828a2.085,2.085 0 0 1 -0.342,0.272c-0.357,0.232 -0.778,0.372 -1.208,0.344c-0.493,-0.033 -0.932,-0.289 -1.267,-0.644a2.682,2.682 0 0 1 -0.131,-0.149l-0.022,0.02c-0.371,0.327 -0.903,0.355 -1.369,0.284a3.384,3.384 0 0 1 -0.611,-0.155a0.779,0.779 0 0 1 -0.23,-0.198a1.963,1.963 0 0 1 -0.275,-0.422c-0.019,-0.04 -0.036,-0.081 -0.053,-0.122c-0.072,0.017 -0.145,0.03 -0.217,0.04c-0.168,0.026 -0.338,0.04 -0.506,0.05c-0.161,0.01 -0.323,0.017 -0.483,-0.006a1.07,1.07 0 0 1 -0.741,-0.431a1.336,1.336 0 0 1 -0.163,-0.293l-0.014,0.002a0.997,0.997 0 0 1 -0.197,0.008c-0.343,-0.022 -0.634,-0.231 -0.869,-0.469a3.098,3.098 0 0 1 -0.217,-0.242a1.995,1.995 0 0 1 -0.215,-0.302a2.402,2.402 0 0 1 -0.248,-0.709a5.1,5.1 0 0 1 -0.09,-1.076a9.997,9.997 0 0 1 0.216,-1.896c0.059,-0.284 0.127,-0.567 0.212,-0.845c0.065,-0.212 0.138,-0.423 0.228,-0.626c0.117,-0.262 0.269,-0.508 0.423,-0.748c0.181,-0.281 0.372,-0.556 0.568,-0.829a62.215,62.215 0 0 1 1.862,-2.452l0.126,-0.159c0.04,-0.05 0.08,-0.102 0.121,-0.15c0.019,-0.023 0.042,-0.045 0.062,-0.067a7.28,7.28 0 0 0 0.375,-0.45c0.39,-0.514 0.726,-1.067 1.031,-1.635c0.287,-0.533 0.547,-1.08 0.791,-1.633a38.105,38.105 0 0 0 1.142,-2.961a16.12,16.12 0 0 1 -0.263,-1.43a13.473,13.473 0 0 1 -0.113,-1.946c0.014,-1.108 0.159,-2.212 0.349,-3.302l0.556,-2.853l11.416,0zm64.151,26.934l-0.026,0.038c-0.338,0.496 -0.715,1.007 -1.265,1.284a1.964,1.964 0 0 1 -0.593,0.188a3.044,3.044 0 0 1 -0.523,0.021a7.17,7.17 0 0 1 -0.464,-0.024c-0.936,-0.079 -1.876,-0.363 -2.604,-0.978a3.68,3.68 0 0 1 -0.857,-1.058c-0.09,-0.167 -0.167,-0.341 -0.251,-0.51a28.626,28.626 0 0 0 -0.222,-0.427a9.295,9.295 0 0 0 -0.757,-1.195a4.25,4.25 0 0 0 -0.2,-0.244c-0.051,-0.056 -0.106,-0.108 -0.157,-0.165a2.692,2.692 0 0 1 -0.104,-0.135c-0.602,-0.877 -0.694,-2.005 -0.549,-3.032a8.11,8.11 0 0 1 0.265,-1.171c0.056,-0.181 0.118,-0.359 0.175,-0.54c0.036,-0.115 0.07,-0.232 0.102,-0.349c0.094,-0.364 0.172,-0.737 0.173,-1.115c0,-0.221 -0.029,-0.448 -0.124,-0.65c-0.097,-0.208 -0.265,-0.37 -0.408,-0.546a1.334,1.334 0 0 1 -0.214,-0.386c-0.045,-0.161 -0.081,-0.326 -0.119,-0.49a15.338,15.338 0 0 1 -0.189,-0.926a12.248,12.248 0 0 1 -0.15,-1.268c-0.085,-1.254 0.001,-2.512 0.137,-3.76l-0.15,-0.614a42.444,42.444 0 0 0 -0.431,-1.59a14.42,14.42 0 0 0 -0.169,-0.535c-0.053,-0.154 -0.107,-0.312 -0.179,-0.46c-0.023,-0.049 -0.053,-0.095 -0.079,-0.142c-0.02,-0.04 -0.02,-0.04 -0.037,-0.079c-0.108,-0.307 -0.099,-0.639 -0.077,-0.959c0.032,-0.425 0.098,-0.847 0.173,-1.266c0.184,-1.028 0.428,-2.046 0.685,-3.057c0.057,-0.226 0.117,-0.453 0.175,-0.678l0.031,-0.116l11.661,0l0.178,0.88c0.257,1.32 0.505,2.648 0.589,3.992c0.049,0.798 0.038,1.598 -0.05,2.392c-0.044,0.413 -0.109,0.825 -0.191,1.232c-0.031,0.16 -0.066,0.32 -0.103,0.479l-0.004,0.02c0.456,1.348 0.973,2.677 1.601,3.953c0.237,0.479 0.488,0.95 0.767,1.404c0.304,0.494 0.638,0.967 1.034,1.391c0.204,0.256 0.407,0.513 0.609,0.77a57.838,57.838 0 0 1 1.623,2.165c0.185,0.265 0.367,0.531 0.538,0.805c0.11,0.174 0.214,0.352 0.302,0.538c0.081,0.173 0.147,0.354 0.207,0.536c0.088,0.269 0.16,0.543 0.221,0.819c0.159,0.708 0.257,1.439 0.255,2.167c-0.001,0.33 -0.023,0.66 -0.09,0.984a2.408,2.408 0 0 1 -0.249,0.708c-0.061,0.11 -0.135,0.207 -0.214,0.303c-0.07,0.083 -0.141,0.164 -0.217,0.241c-0.262,0.264 -0.606,0.499 -0.995,0.468c-0.028,-0.003 -0.057,-0.006 -0.085,-0.011a1.295,1.295 0 0 1 -0.192,0.332a1.095,1.095 0 0 1 -0.713,0.394c-0.194,0.027 -0.392,0.012 -0.586,-0.002a3.943,3.943 0 0 1 -0.621,-0.083a1.864,1.864 0 0 1 -0.245,0.443a1.186,1.186 0 0 1 -0.233,0.252a0.836,0.836 0 0 1 -0.278,0.113a3.895,3.895 0 0 1 -0.34,0.078c-0.45,0.077 -0.963,0.074 -1.351,-0.202a1.192,1.192 0 0 1 -0.111,-0.091a2.095,2.095 0 0 1 -0.132,0.149c-0.334,0.355 -0.773,0.612 -1.266,0.644c-0.43,0.027 -0.851,-0.113 -1.208,-0.345a2.056,2.056 0 0 1 -0.322,-0.25l-0.021,-0.022a35.106,35.106 0 0 1 -0.71,-0.827l-0.025,0.039l-0.051,0.076z" class="body-area body-area-foot" />
	</g>
</svg>
